SplineFontDB: 3.2
FontName: DigitaltT
FullName: DigitaltT
FamilyName: DigitaltT
Weight: Medium
Copyright: Created by gluk, with FontForge 
UComments: "2016-6-6: Created."
Version: 0.60
ItalicAngle: 0
UnderlinePosition: -100
UnderlineWidth: 50
Ascent: 800
Descent: 200
InvalidEm: 0
LayerCount: 5
Layer: 0 0 "Warstwa t+AUIA-a" 1
Layer: 1 1 "fore" 0
Layer: 2 0 "in" 0
Layer: 3 0 "out" 0
Layer: 4 0 "base" 0
XUID: [1021 364 1810991383 13289309]
FSType: 0
OS2Version: 0
OS2_WeightWidthSlopeOnly: 0
OS2_UseTypoMetrics: 1
CreationTime: 1465195875
ModificationTime: 1569943817
OS2TypoAscent: 0
OS2TypoAOffset: 1
OS2TypoDescent: 0
OS2TypoDOffset: 1
OS2TypoLinegap: 90
OS2WinAscent: 0
OS2WinAOffset: 1
OS2WinDescent: 0
OS2WinDOffset: 1
HheadAscent: 0
HheadAOffset: 1
HheadDescent: 0
HheadDOffset: 1
OS2Vendor: 'PfEd'
Lookup: 258 0 0 "'kern' Kerning poziomy" { "'kern' Kerning poziomy-1" [1500,0,2] } ['kern' ('DFLT' <'dflt' > 'latn' <'dflt' > ) ]
Lookup: 260 0 0 "'abvm' Znak nad glifem g+AUIA8wAA-wnym" { "'abvm' Znak nad glifem g+AUIA8wAA-wnym-1"  } ['abvm' ('DFLT' <'dflt' > 'latn' <'dflt' > ) ]
MarkAttachClasses: 1
DEI: 91125
KernClass2: 25 20 "'kern' Kerning poziomy-1"
 211 A Aogonek Agrave Aacute Acircumflex Atilde Adieresis Aring Amacron Abreve uni01CD uni0200 uni0202 uni0226 a aogonek agrave aacute acircumflex atilde adieresis aring amacron abreve uni01CE uni0201 uni0203 uni0227
 15 three eight B b
 331 zero nine D O Oacute Eth Dcaron Dcroat Ograve Ocircumflex Otilde Odieresis Oslash Omacron Obreve Ohungarumlaut uni020C uni020E uni01D1 uni01EA uni01EC Oslashacute uni022E d o oacute eth dcaron dcroat ograve ocircumflex otilde odieresis oslash omacron obreve ohungarumlaut uni020D uni020F uni01D2 uni01EB uni01ED oslashacute uni022F
 49 K X Kcommaaccent uni01E8 k x kcommaaccent uni01E9
 43 L Lacute Lcommaaccent l lacute lcommaaccent
 13 Lslash lslash
 15 P Thorn p thorn
 89 R Racute Rcommaaccent Rcaron uni0210 uni0212 r racute rcommaaccent rcaron uni0211 uni0213

StartChar: I
Encoding: 73 73 0
Width: 280
VWidth: 0
Flags: MW
AnchorPoint: "gs" 145 580 basechar 0
LayerCount: 5
Fore
SplineSet
46 300 m 0,0,1
 46 440 46 440 50 600 c 1,2,3
 97.6245 602.25 97.6245 602.25 137.38 602.25 c 0,4,5
 174.711 602.25 174.711 602.25 240 600 c 0,6,7
 250 600 250 600 250 590 c 0,8,9
 254 402 254 402 254 300 c 0,10,11
 254 160 254 160 250 0 c 1,12,13
 202.375 -2.25 202.375 -2.25 162.62 -2.25 c 0,14,15
 125.288 -2.25 125.288 -2.25 60 0 c 0,16,17
 50 0 50 0 50 10 c 0,18,19
 46 198 46 198 46 300 c 0,0,1
EndSplineSet
Layer: 2
SplineSet
66 300 m 4
 66 393.368 67.3505 488.546 69.5393 580.853 c 5
 93.9659 581.854 110.933 582.25 137.375 582.25 c 4
 167.878 582.25 199.488 581.352 230.201 580.323 c 5
 232.153 488.322 234 396.621 234 300 c 4
 234 206.632 232.65 111.454 230.461 19.1467 c 5
 206.034 18.1461 189.067 17.75 162.625 17.75 c 4
 132.122 17.75 100.512 18.6471 69.7988 19.6774 c 5
 67.8464 111.678 66 203.379 66 300 c 4
EndSplineSet
Validated: 1
Layer: 3
SplineSet
16 280 m 0
 16 380.399 17.4932 480.733 20 581 c 2
 20.9424 618.199 l 1
 58.1123 619.955 l 2
 90.0781 621.465 113.52 622.25 147.375 622.25 c 0
 181.739 622.25 218.229 621.12 250.689 620 c 0
 277.224 620 300 597.419 300 570.426 c 0
 301.979 477.405 304 380.252 304 280 c 0
 304 179.986 302.466 78.4844 300 -20.3975 c 2
 299.058 -58.1992 l 1
 261.888 -59.9551 l 2
 229.922 -61.4658 206.48 -62.25 172.625 -62.25 c 0
 138.077 -62.25 102.143 -61.1377 69.0234 -59.998 c 0
 40.8955 -59.0938 20 -36.9404 20 -10.4258 c 0
 18.0205 82.5938 16 179.749 16 280 c 0
EndSplineSet
Validated: 1
Layer: 4
SplineSet
46 300 m 0
 46 400 47.5 500 50 600 c 1
 81.75 601.5 104.13 602.25 137.38 602.25 c 0
 171.34 602.25 206.05 601.17 240 600 c 0
 245.52 600 250 595.52 250 590 c 0
 252 496 254 400 254 300 c 0
 254 200 252.5 100 250 0 c 1
 218.25 -1.5 195.87 -2.25 162.62 -2.25 c 0
 128.66 -2.25 93.95 -1.17 60 0 c 0
 54.48 0 50 4.48 50 10 c 0
 48 104 46 200 46 300 c 0
EndSplineSet
Validated: 1
EndChar

StartChar: F
Encoding: 70 70 1
Width: 420
VWidth: 0
Flags: MW
AnchorPoint: "gs" 259 580 basechar 0
LayerCount: 5
Fore
SplineSet
46 300 m 0,0,1
 46 440 46 440 50 600 c 1,2,3
 97.6245 602.25 97.6245 602.25 257.38 602.25 c 0,4,5
 352.711 602.25 352.711 602.25 418 600 c 0,6,7
 428 600 428 600 428 590 c 0,8,9
 428.91 538.72 428.91 538.72 428.91 503.56 c 0,10,11
 428.91 466.655 428.91 466.655 428 430 c 1,12,13
 380.375 427.75 380.375 427.75 282.62 427.75 c 0,14,15
 273.015 427.75 273.015 427.75 248.89 428.09 c 1,16,17
 248.293 376.243 248.293 376.243 248.11 341.99 c 1,18,19
 324.854 341.219 324.854 341.219 360 340 c 0,20,21
 370 340 370 340 370 330 c 0,22,23
 370.91 278.721 370.91 278.721 370.91 243.57 c 0,24,25
 370.91 206.655 370.91 206.655 370 170 c 1,26,27
 332.136 168.209 332.136 168.209 248.82 167.8 c 1,28,29
 250 47.8021 250 47.8021 250 0 c 1,30,31
 202.375 -2.25 202.375 -2.25 162.62 -2.25 c 0,32,33
 125.288 -2.25 125.288 -2.25 60 0 c 0,34,35
 50 0 50 0 50 10 c 0,36,37
 46 198 46 198 46 300 c 0,0,1
EndSplineSet
Layer: 2
SplineSet
66 300 m 0
 66 393.192 67.3589 488.899 69.533 580.588 c 1
 119.765 581.698 228.87 582.25 257.375 582.25 c 0
 288.055 582.25 371.18 581.284 408.165 580.288 c 1
 408.618 553.302 408.908 528.658 408.908 503.565 c 0
 408.908 485.846 408.749 467.595 408.416 449.317 c 1
 370.354 448.263 310.344 447.75 282.625 447.75 c 0
 272.565 447.75 243.95 448.164 229.117 448.376 c 1
 228.629 407.137 228.18 365.405 228.009 322.193 c 1
 265.945 321.814 320.625 321.107 350.165 320.292 c 1
 350.618 293.297 350.908 268.662 350.908 243.566 c 0
 350.908 225.836 350.749 207.616 350.416 189.301 c 1
 312.037 188.197 266.104 187.881 228.626 187.695 c 1
 229.179 131.606 229.837 75.0457 229.977 19.1269 c 5
 206.697 18.1733 188.719 17.75 162.625 17.75 c 0
 132.122 17.75 100.512 18.6471 69.7988 19.6774 c 1
 67.8464 111.678 66 203.379 66 300 c 0
EndSplineSet
Validated: 1
Layer: 3
SplineSet
16 280 m 0
 16 392.741 18.1445 506.274 20.9424 618.199 c 1
 71.5811 620.592 210.875 622.25 267.375 622.25 c 0
 301.744 622.25 394.956 621.164 428.689 620 c 0
 455.713 620 477.522 597.24 477.994 570.711 c 0
 478.536 540.166 478.908 512.018 478.908 483.565 c 0
 478.908 448.016 477.965 408.086 477.057 371.801 c 1
 429.104 369.535 352.694 367.869 298.46 367.756 c 1
 298.435 365.038 298.421 363.562 298.401 361.501 c 1
 329.638 361.048 354.077 360.572 370.689 360 c 0
 397.713 360 419.522 337.24 419.994 310.711 c 0
 420.536 280.166 420.908 252.018 420.908 223.566 c 0
 420.908 188.016 419.965 148.086 419.057 111.8 c 1
 379.554 109.935 347.125 108.726 299.219 108.145 c 1
 299.762 52.5557 300 -2.23828 300 -58.1553 c 1
 256.54 -60.208 218.064 -62.25 172.625 -62.25 c 0
 138.077 -62.25 102.143 -61.1377 69.0234 -59.998 c 0
 40.8955 -59.0938 20 -36.9404 20 -10.4258 c 0
 18.0205 82.5938 16 179.749 16 280 c 0
EndSplineSet
Validated: 1
Layer: 4
SplineSet
46 300 m 0
 46 400 47.5 500 50 600 c 1
 81.75 601.5 224.13 602.25 257.38 602.25 c 0
 291.34 602.25 384.05 601.17 418 600 c 0
 423.52 600 427.9 595.52 428 590 c 0
 428.54 559.57 428.91 531.66 428.91 503.56 c 0
 428.91 479.74 428.64 455.78 428 430 c 1
 396.25 428.5 315.87 427.75 282.62 427.75 c 0
 275.7 427.75 263.79 427.88 248.89 428.09 c 1
 248.57 400.32 248.27 372.01 248.11 341.99 c 1
 286.93 341.6 336.07 340.83 360 340 c 0
 365.52 340 369.9 335.52 370 330 c 0
 370.54 299.57 370.91 271.67 370.91 243.57 c 0
 370.91 219.75 370.64 195.78 370 170 c 1
 342.73 168.71 285.5 167.98 248.82 167.8 c 1
 249.37 111.87 250 55.93 250 0 c 1
 218.25 -1.5 195.87 -2.25 162.62 -2.25 c 0
 128.66 -2.25 93.95 -1.17 60 0 c 4
 54.48 0 50 4.48 50 10 c 4
 48 104 46 200 46 300 c 0
EndSplineSet
Validated: 1
EndChar

StartChar: D
Encoding: 68 68 2
Width: 526
VWidth: 0
Flags: MW
AnchorPoint: "gs" 262 580 basechar 0
LayerCount: 5
Fore
SplineSet
246 300 m 0,0,1
 246 247.493 246 247.493 247.74 167.95 c 1,2,-1
 264.81 167.95 l 2,3,4
 280.445 167.95 280.445 167.95 289.329 175.535 c 128,-1,5
 298.213 183.12 298.213 183.12 304.611 213.312 c 128,-1,6
 311.01 243.503 311.01 243.503 311.01 300.33 c 128,-1,7
 311.01 356.992 311.01 356.992 304.613 387.108 c 128,-1,8
 298.215 417.224 298.215 417.224 289.327 424.802 c 128,-1,9
 280.44 432.38 280.44 432.38 264.81 432.38 c 2,10,-1
 247.92 432.38 l 1,11,12
 246 350.394 246 350.394 246 300 c 0,0,1
48 300 m 0,13,14
 48 350 48 350 49 445 c 128,-1,15
 50 540 50 540 50 590 c 1,16,17
 160 607 160 607 245 607 c 0,18,19
 311.048 607 311.048 607 359.711 591.854 c 128,-1,20
 408.375 576.708 408.375 576.708 445.43 542.143 c 128,-1,21
 482.485 507.579 482.485 507.579 501.242 447.154 c 128,-1,22
 520 386.729 520 386.729 520 300.33 c 0,23,24
 520 226.642 520 226.642 507.352 172.972 c 128,-1,25
 494.705 119.302 494.705 119.302 472.672 85.8091 c 128,-1,26
 450.639 52.3163 450.639 52.3163 415.288 32.5065 c 128,-1,27
 379.938 12.6967 379.938 12.6967 340.288 5.34834 c 128,-1,28
 300.637 -2 300.637 -2 247 -2 c 0,29,30
 198 -2 198 -2 60 10 c 0,31,32
 50 10 50 10 50 20 c 0,33,34
 50 66 50 66 49 157.5 c 128,-1,35
 48 249 48 249 48 300 c 0,13,14
EndSplineSet
Layer: 2
SplineSet
226 300 m 4
 226 243.327 227.077 197.941 228.169 147.989 c 1
 264.814 147.95 l 0
 310.337 147.95 331.013 183.716 331.013 300.333 c 0
 331.013 416.631 310.36 452.383 264.814 452.383 c 0
 228.383 452.344 l 1
 227.213 402.489 226 356.837 226 300 c 4
68 300 m 0
 68 393.778 69.775 480.704 69.9808 572.754 c 1
 131.743 581.588 195.034 587 245 587 c 0
 405.16 587 500 526.325 500 300.333 c 0
 500 59.8772 407.586 18 247 18 c 0
 195.763 18 134.885 23.525 69.9808 29.2038 c 1
 69.8446 121.65 68 203.257 68 300 c 0
EndSplineSet
Validated: 1
Layer: 3
SplineSet
18 280 m 0
 18 391.727 20 492.951 20 604.296 c 1
 93.5986 615.664 186.213 627 255 627 c 0
 441.931 627 570 533.998 570 280.333 c 0
 570 10.9297 440.14 -62 257 -62 c 0
 199.176 -62 135.364 -55.8623 66.5635 -49.8711 c 0
 39.5332 -47.4297 20 -25.918 20 0 c 0
 20 93.4336 18 179.44 18 280 c 0
EndSplineSet
Validated: 1
Layer: 4
SplineSet
246 300 m 0
 246 251.35 246.83 209.55 247.74 167.95 c 1
 264.81 167.95 l 2
 291.99 167.95 311.01 181.18 311.01 300.33 c 0
 311.01 419.13 291.99 432.38 264.81 432.38 c 2
 247.92 432.38 l 1
 246.95 390.96 246 348.67 246 300 c 0
48 300 m 0
 48 400 50 490.03 50 590 c 1
 116.84 600.33 189 607 245 607 c 4
 414 607 520 535.48 520 300.33 c 4
 520 50.31 415 -2 247 -2 c 4
 192 -2 129.07 3.99 60 10 c 4
 54.48 10 50 14.48 50 20 c 0
 50 114.03 48 200 48 300 c 0
EndSplineSet
Validated: 1
EndChar

StartChar: O
Encoding: 79 79 3
Width: 540
VWidth: 0
Flags: MW
AnchorPoint: "gs" 284 580 basechar 0
LayerCount: 5
Fore
SplineSet
26 300.33 m 0,0,1
 26 445.057 26 445.057 86.1425 523.355 c 128,-1,2
 146.285 601.652 146.285 601.652 254 607 c 1,3,4
 352.096 607 352.096 607 411.984 578.738 c 128,-1,5
 471.872 550.475 471.872 550.475 502.936 482.672 c 128,-1,6
 534 414.869 534 414.869 534 300.33 c 0,7,8
 534 155.809 534 155.809 473.02 77.5863 c 128,-1,9
 412.04 -0.636325 412.04 -0.636325 304 -6 c 1,10,11
 206.056 -6 206.056 -6 146.661 22.1207 c 128,-1,12
 87.2652 50.2414 87.2652 50.2414 56.6326 117.869 c 128,-1,13
 26 185.497 26 185.497 26 300.33 c 0,0,1
234.99 300.33 m 0,14,15
 234.99 243.522 234.99 243.522 241.379 213.329 c 128,-1,16
 247.767 183.136 247.767 183.136 256.611 175.568 c 128,-1,17
 265.456 168 265.456 168 281 168 c 128,-1,18
 296.39 168 296.39 168 304.85 175.649 c 128,-1,19
 313.31 183.298 313.31 183.298 319.16 213.248 c 128,-1,20
 325.01 243.197 325.01 243.197 325.01 300.33 c 0,21,22
 325.01 356.82 325.01 356.82 318.346 386.97 c 128,-1,23
 311.683 417.12 311.683 417.12 302.664 424.56 c 128,-1,24
 293.644 432 293.644 432 278 432 c 0,25,26
 262.666 432 262.666 432 254.414 424.398 c 128,-1,27
 246.162 416.796 246.162 416.796 240.576 387.132 c 128,-1,28
 234.99 357.469 234.99 357.469 234.99 300.33 c 0,14,15
EndSplineSet
Layer: 2
SplineSet
46 300.333 m 0
 46 490.695 127.237 580.326 254.501 587 c 1
 435.876 586.756 514 522.883 514 300.333 c 0
 514 109.999 430.958 20.6843 303.499 14 c 1
 122.514 14.2448 46 77.2475 46 300.333 c 0
214.987 300.333 m 0
 214.987 183.741 235.618 148 281 148 c 0
 326.896 148 345.013 184.523 345.013 300.333 c 0
 345.013 417.045 322.998 452 278 452 c 0
 231.967 452 214.987 415.478 214.987 300.333 c 0
EndSplineSet
Validated: 1
Layer: 3
SplineSet
-4 280.333 m 0
 -4 488.949 82.7013 614.819 269.5 624.09 c 1
 496.506 624.09 584 513.94 584 280.333 c 0
 584 70.3833 482.177 -57.7643 314.992 -66 c 1
 105.552 -66 -4 31.845 -4 280.333 c 0
EndSplineSet
Layer: 4
SplineSet
26 300.33 m 4
 26 496.58 113 600 254 607 c 5
 444.38 607 534 531.45 534 300.33 c 4
 534 103.87 445 1 304 -6 c 5
 113.94 -6 26 68.82 26 300.33 c 4
234.99 300.33 m 0
 234.99 181.18 254 168 281 168 c 0
 308 168 325.01 181.18 325.01 300.33 c 0
 325.01 419.13 305 432 278 432 c 0
 251 432 234.99 419.13 234.99 300.33 c 0
EndSplineSet
Validated: 1
EndChar

StartChar: H
Encoding: 72 72 4
Width: 550
VWidth: 0
Flags: MW
AnchorPoint: "gs" 284 580 basechar 0
LayerCount: 5
Fore
SplineSet
46 300 m 0,0,1
 46 440 46 440 50 600 c 1,2,3
 97.6245 602.25 97.6245 602.25 137.38 602.25 c 0,4,5
 174.711 602.25 174.711 602.25 240 600 c 0,6,7
 250 600 250 600 250 590 c 0,8,9
 251.765 506.99 251.765 506.99 251.96 380 c 1,10,-1
 317.96 380 l 1,11,12
 317.96 518.254 317.96 518.254 320 600 c 1,13,14
 367.625 602.25 367.625 602.25 407.38 602.25 c 0,15,16
 444.711 602.25 444.711 602.25 510 600 c 0,17,18
 520 600 520 600 520 590 c 0,19,20
 524 402 524 402 524 300 c 0,21,22
 524 160 524 160 520 0 c 1,23,24
 472.375 -2.25 472.375 -2.25 432.62 -2.25 c 0,25,26
 395.288 -2.25 395.288 -2.25 330 0 c 0,27,28
 320 0 320 0 320 10 c 0,29,30
 318.288 90.6406 318.288 90.6406 318.06 210 c 1,31,-1
 252.04 210 l 1,32,33
 252.022 80.8622 252.022 80.8622 250 0 c 1,34,35
 202.375 -2.25 202.375 -2.25 162.62 -2.25 c 0,36,37
 125.288 -2.25 125.288 -2.25 60 0 c 0,38,39
 50 0 50 0 50 10 c 0,40,41
 46 198 46 198 46 300 c 0,0,1
EndSplineSet
Layer: 2
SplineSet
66 300 m 4
 66 393.368 67.3505 488.546 69.5393 580.853 c 5
 93.9659 581.854 110.933 582.25 137.375 582.25 c 4
 167.874 582.25 199.496 581.352 230.195 580.323 c 5
 231.638 507.433 231.88 435.002 231.991 360 c 5
 337.96 360 l 5
 337.96 434.159 338.032 509.175 339.562 580.853 c 5
 363.935 581.852 380.949 582.25 407.375 582.25 c 4
 437.878 582.25 469.488 581.352 500.201 580.323 c 5
 502.153 488.322 504 396.621 504 300 c 4
 504 206.632 502.65 111.453 500.461 19.1458 c 5
 476.034 18.1452 459.067 17.75 432.625 17.75 c 4
 402.126 17.75 370.503 18.6474 339.805 19.6772 c 5
 338.426 89.4086 338.153 158.463 338.018 230 c 5
 232.043 230 l 5
 232.033 159.719 231.906 87.9447 230.438 19.1458 c 5
 206.065 18.1474 189.051 17.75 162.625 17.75 c 4
 132.122 17.75 100.512 18.6469 69.7988 19.6772 c 5
 67.8464 111.678 66 203.379 66 300 c 4
EndSplineSet
Validated: 1
Layer: 3
SplineSet
16 280 m 0
 16 380.399 17.4932 480.733 20 581 c 2
 20.9424 618.199 l 1
 58.1123 619.955 l 2
 90.0781 621.465 113.52 622.25 147.375 622.25 c 0
 181.739 622.25 218.229 621.12 250.689 620 c 0
 267.165 620 282.712 609.875 290.469 599.256 c 1
 290.942 618.199 l 1
 328.112 619.955 l 2
 360.078 621.465 383.52 622.25 417.375 622.25 c 0
 451.739 622.25 488.229 621.12 520.689 620 c 0
 547.224 620 569.987 597.418 569.987 570.427 c 0
 571.97 477.405 574 380.251 574 280 c 0
 574 179.599 572.491 79.2686 569.987 -21 c 2
 569.058 -58.1992 l 1
 531.888 -59.9551 l 2
 499.922 -61.4658 476.48 -62.25 442.625 -62.25 c 0
 408.26 -62.25 371.772 -61.1191 339.311 -60 c 0
 322.834 -60 307.288 -49.873 299.531 -39.2559 c 1
 299.058 -58.1992 l 1
 261.888 -59.9551 l 2
 229.922 -61.4658 206.48 -62.25 172.625 -62.25 c 0
 138.077 -62.25 102.143 -61.1396 69.0234 -60 c 0
 40.8955 -59.0957 20 -36.9404 20 -10.4258 c 0
 18.0205 82.5938 16 179.749 16 280 c 0
EndSplineSet
Validated: 1
Layer: 4
SplineSet
46 300 m 0
 46 400 47.5 500 50 600 c 1
 81.75 601.5 104.13 602.25 137.38 602.25 c 0
 171.34 602.25 206.05 601.17 240 600 c 0
 245.52 600 250 595.52 250 590 c 0
 251.46 521.33 251.85 451.59 251.96 380 c 1
 317.96 380 l 1
 317.96 454.25 318.17 526.67 320 600 c 1
 351.75 601.5 374.13 602.25 407.38 602.25 c 0
 441.34 602.25 476.05 601.17 510 600 c 0
 515.52 600 520 595.52 520 590 c 0
 522 496 524 400 524 300 c 0
 524 200 522.5 100 520 0 c 1
 488.25 -1.5 465.87 -2.25 432.62 -2.25 c 0
 398.66 -2.25 363.95 -1.17 330 0 c 0
 324.48 0 320 4.48 320 10 c 0
 318.61 75.47 318.19 141.91 318.06 210 c 1
 252.04 210 l 1
 252.03 140 251.75 70 250 0 c 1
 218.25 -1.5 195.87 -2.25 162.62 -2.25 c 0
 128.66 -2.25 93.95 -1.17 60 0 c 0
 54.48 0 50 4.48 50 10 c 0
 48 104 46 200 46 300 c 0
EndSplineSet
Validated: 1
EndChar

StartChar: T
Encoding: 84 84 5
Width: 460
VWidth: 0
Flags: MW
AnchorPoint: "gs" 240 580 basechar 0
LayerCount: 5
Fore
SplineSet
15.04 524.08 m 0,0,1
 15.04 561.815 15.04 561.815 16 600 c 1,2,3
 63.6253 602.25 63.6253 602.25 247.38 602.25 c 0,4,5
 388.711 602.25 388.711 602.25 454 600 c 0,6,7
 464 600 464 600 464 590 c 0,8,9
 464.91 542.361 464.91 542.361 464.91 504.93 c 0,10,11
 464.91 466.655 464.91 466.655 464 430 c 1,12,13
 442.957 429.006 442.957 429.006 342.9 428.27 c 1,14,15
 344 360.97 344 360.97 344 300 c 0,16,17
 344 160 344 160 340 0 c 1,18,19
 292.375 -2.25 292.375 -2.25 252.62 -2.25 c 0,20,21
 215.288 -2.25 215.288 -2.25 150 0 c 0,22,23
 140 0 140 0 140 10 c 0,24,25
 136 198 136 198 136 300 c 0,26,27
 136 366.051 136 366.051 136.9 429.28 c 1,28,29
 55.9909 430.965 55.9909 430.965 26 432 c 0,30,31
 16 432 16 432 16 442 c 0,32,33
 15.04 487.435 15.04 487.435 15.04 524.08 c 0,0,1
EndSplineSet
Layer: 2
SplineSet
35.035 524.076 m 0
 35.035 542.542 35.2169 561.483 35.5756 580.562 c 1
 90.3623 581.69 218.598 582.25 247.375 582.25 c 0
 278.388 582.25 400.779 581.288 444.176 580.268 c 1
 444.639 553.981 444.908 530.628 444.908 504.932 c 0
 444.908 486.878 444.742 467.522 444.416 449.437 c 1
 416.483 448.86 362.676 448.413 322.572 448.122 c 1
 323.374 399.437 324 354.359 324 300 c 0
 324 206.632 322.65 111.454 320.461 19.1467 c 1
 296.034 18.1461 279.067 17.75 252.625 17.75 c 0
 222.122 17.75 190.512 18.6471 159.799 19.6774 c 1
 157.847 111.678 156 203.379 156 300 c 0
 156 353.397 156.489 399.734 157.184 448.858 c 5
 117.789 449.679 59.8174 450.995 35.8058 451.701 c 1
 35.3078 477.16 35.035 500.415 35.035 524.076 c 0
EndSplineSet
Validated: 1
Layer: 3
SplineSet
-14.9648 504.076 m 0
 -14.9648 540.4 -13.9854 581.089 -13.0576 618.199 c 1
 38.376 620.629 199.664 622.25 257.375 622.25 c 0
 291.604 622.25 430.721 621.172 464.689 620 c 0
 491.754 620 513.485 597.208 513.992 570.766 c 0
 514.537 542.335 514.908 513.995 514.908 484.932 c 0
 514.908 448.51 513.979 408.599 513.057 371.801 c 1
 470.975 369.812 452.442 369.182 393.472 368.607 c 1
 393.826 338.77 394 312.06 394 280 c 0
 394 167.149 391.833 52.8193 389.058 -58.1992 c 1
 349.904 -60.2383 307.758 -62.25 262.625 -62.25 c 0
 228.26 -62.25 191.772 -61.1191 159.311 -60 c 0
 132.775 -60 110 -37.418 110 -10.4258 c 0
 108.021 82.5938 106 179.749 106 280 c 0
 106 311.229 106.171 342.94 106.435 370.151 c 1
 74.0645 370.894 47.9707 371.562 34.793 372.01 c 0
 7.09082 372.9 -14 395.06 -14 421.574 c 0
 -14.5977 449.648 -14.9648 477.354 -14.9648 504.076 c 0
EndSplineSet
Validated: 1
Layer: 4
SplineSet
15.04 524.08 m 0
 15.04 548.68 15.33 573.35 16 600 c 1
 47.75 601.5 214.13 602.25 247.38 602.25 c 0
 281.34 602.25 420.05 601.17 454 600 c 0
 459.52 600 463.89 595.52 464 590 c 0
 464.54 561.73 464.91 533.65 464.91 504.93 c 0
 464.91 480.59 464.64 455.78 464 430 c 1
 447.49 429.22 394.57 428.65 342.9 428.27 c 1
 343.56 387.89 344 346.54 344 300 c 0
 344 200 342.5 100 340 0 c 1
 308.25 -1.5 285.87 -2.25 252.62 -2.25 c 0
 218.66 -2.25 183.95 -1.17 150 0 c 0
 144.48 0 140 4.48 140 10 c 0
 138 104 136 200 136 300 c 0
 136 346.03 136.31 387.83 136.9 429.28 c 1
 91.29 430.23 43.97 431.38 26 432 c 0
 20.48 432 16 436.48 16 442 c 0
 15.39 470.87 15.04 497.43 15.04 524.08 c 0
EndSplineSet
Validated: 1
EndChar

StartChar: A
Encoding: 65 65 6
Width: 520
VWidth: 0
Flags: MW
AnchorPoint: "gs" 270 580 basechar 0
LayerCount: 5
Fore
SplineSet
9.71 8.25 m 0,0,1
 9.71 9.70318 9.71 9.70318 14.55 39.54 c 0,2,3
 27.9349 122.167 27.9349 122.167 44.3741 207.953 c 132,-1,4
 60.8133 293.739 60.8133 293.739 89.0959 430.674 c 132,-1,5
 117.378 567.609 117.378 567.609 123.9 600 c 5,6,7
 171.935 602.25 171.935 602.25 261.38 602.25 c 4,8,9
 338.436 602.25 338.436 602.25 404.1 600 c 4,10,11
 414.103 600 414.103 600 415.86 590 c 4,12,13
 426.4 536.652 426.4 536.652 453.114 408.303 c 128,-1,14
 479.828 279.954 479.828 279.954 498.279 183.497 c 128,-1,15
 516.73 87.04 516.73 87.04 529.9 0 c 1,16,17
 482.665 -2.25 482.665 -2.25 442.92 -2.25 c 0,18,19
 380.319 -2.25 380.319 -2.25 344.9 0 c 0,20,21
 334.997 0.629039 334.997 0.629039 333.14 10 c 0,22,23
 323.875 56.8491 323.875 56.8491 315.03 110 c 1,24,-1
 222.16 110 l 1,25,26
 213.363 50.9937 213.363 50.9937 203.1 0 c 1,27,28
 155.085 -2.25 155.085 -2.25 120.33 -2.25 c 0,29,30
 82.9846 -2.25 82.9846 -2.25 18.1 0 c 0,31,32
 9.71 0 9.71 0 9.71 8.25 c 0,0,1
239.08 240 m 5,33,-1
 295.13 240 l 5,34,35
 289.265 281.097 289.265 281.097 278.961 357.239 c 132,-1,36
 268.657 433.382 268.657 433.382 264.33 464.34 c 5,37,38
 259.189 422.545 259.189 422.545 250.731 345.06 c 132,-1,39
 242.273 267.574 242.273 267.574 239.08 240 c 5,33,-1
EndSplineSet
Layer: 2
SplineSet
31.6045 19.5511 m 1
 60.5896 202.667 103.142 396.582 140.4 580.673 c 1
 181.513 582.172 219.701 582.25 261.375 582.25 c 0
 307.763 582.25 352.214 581.67 397.414 580.212 c 1
 433.967 395.949 477.865 202.375 506.729 18.9928 c 1
 485.777 18.1573 467.59 17.75 442.92 17.75 c 0
 410.934 17.75 382.131 17.8866 351.625 19.6284 c 1
 345.558 50.6757 340.016 81.7251 334.761 113.285 c 2
 331.978 130 l 1
 204.924 130 l 1
 202.381 112.951 l 2
 197.715 81.6777 192.187 48.7671 186.51 19.2586 c 1
 162.597 18.2013 147.68 17.75 120.33 17.75 c 0
 91.3176 17.75 59.3774 18.6246 31.6045 19.5511 c 1
216.626 220 m 5
 318.182 220 l 5
 306.488 301.969 295.616 384.941 284.135 467.103 c 4
 283.267 473.315 282.5 477.708 281.25 484.458 c 5
 276.002 484.833 269.989 485.052 263.976 485.052 c 4
 257.958 485.052 251.94 484.833 246.688 484.332 c 5
 246.188 479.833 245.234 472.929 244.477 466.777 c 4
 234.417 385.027 226.129 302.078 216.626 220 c 5
EndSplineSet
Layer: 3
SplineSet
-20.2694 -11.1342 m 0
 -20.2694 -2.32058 -16.2743 17.7077 -13.9941 31.6666 c 0
 18.079 228.019 62.0046 425.593 100.846 618.495 c 1
 156.098 621.084 213.752 622.25 271.375 622.25 c 4
 319.884 622.25 368.241 621.595 414.788 620 c 0
 439.385 620 460.972 601.26 465.188 577.35 c 0
 502.674 387.635 549.798 181.95 579.447 -14.0156 c 2
 586.08 -57.8457 l 1
 541.802 -59.9561 l 2
 510.095 -61.4668 486.773 -62.25 452.92 -62.25 c 0
 418.939 -62.25 387.963 -62.1826 352.36 -59.9199 c 0
 330.02 -58.499 308.821 -42.7031 303.894 -17.7539 c 0
 299.525 4.35547 295.163 28 291.292 50 c 1
 266.414 50 l 1
 262.148 23.7764 257.442 -2.35449 252.424 -27.3564 c 2
 246.155 -58.4951 l 1
 214.975 -59.9561 l 2
 183.012 -61.4541 164.196 -62.25 130.33 -62.25 c 0
 95.9717 -62.25 59.6494 -61.1191 27.4082 -60 c 1
 -0.338968 -60 -20.2694 -35.4768 -20.2694 -11.1342 c 0
EndSplineSet
Layer: 4
SplineSet
9.71 8.25 m 0
 9.71 10.57 12.91 29.43 14.55 39.54 c 0
 44.17 222.39 86.81 415.78 123.9 600 c 1
 168.52 602.09 214.57 602.25 261.38 602.25 c 0
 309.99 602.25 356.53 601.63 404.1 600 c 0
 409.62 600 414.89 595.52 415.86 590 c 4
 453.69 398.53 500.52 194.17 529.9 0 c 5
 498.41 -1.5 476.17 -2.25 442.92 -2.25 c 4
 408.96 -2.25 379.06 -2.17 344.9 0 c 4
 339.39 0.35 334.23 4.5 333.14 10 c 0
 326.62 42.97 320.63 76.35 315.03 110 c 1
 222.16 110 l 5
 216.65 73.04 210.41 36.32 203.1 0 c 5
 171.09 -1.5 153.58 -2.25 120.33 -2.25 c 4
 86.37 -2.25 51.84 -1.17 18.1 0 c 4
 13.18 0 9.71 3.56 9.71 8.25 c 0
239.08 240 m 1
 295.13 240 l 1
 284.47 314.69 274.73 389.93 264.33 464.34 c 1
 255.22 390.28 247.77 315.05 239.08 240 c 1
EndSplineSet
Validated: 1
EndChar

StartChar: P
Encoding: 80 80 7
Width: 516
VWidth: 0
Flags: MW
AnchorPoint: "gs" 274 580 basechar 0
LayerCount: 5
Fore
SplineSet
48 300 m 0,0,1
 48 350 48 350 49 445.5 c 128,-1,2
 50 541 50 541 50 590 c 1,3,4
 160 607 160 607 245 607 c 0,5,6
 285.138 607 285.138 607 313.547 605.205 c 128,-1,7
 341.956 603.41 341.956 603.41 372.31 597.691 c 128,-1,8
 402.664 591.972 402.664 591.972 422.935 581.618 c 128,-1,9
 443.206 571.265 443.206 571.265 462.228 553.781 c 128,-1,10
 481.25 536.297 481.25 536.297 492.16 511.363 c 128,-1,11
 503.069 486.43 503.069 486.43 509.534 451.16 c 128,-1,12
 516 415.89 516 415.89 516 370.33 c 0,13,14
 516 300.709 516 300.709 498.361 254.301 c 128,-1,15
 480.722 207.894 480.722 207.894 444.096 182.868 c 128,-1,16
 407.469 157.843 407.469 157.843 361.214 147.956 c 128,-1,17
 314.96 138.068 314.96 138.068 248.04 138 c 1,18,19
 249.766 46.7194 249.766 46.7194 250 0 c 1,20,21
 203 -2 203 -2 162 -2 c 0,22,23
 124 -2 124 -2 60 0 c 0,24,25
 50 0 50 0 50 10 c 0,26,27
 50 56 50 56 49 152.5 c 128,-1,28
 48 249 48 249 48 300 c 0,0,1
246 301.95 m 1,29,-1
 261.81 301.95 l 2,30,31
 286.562 301.95 286.562 301.95 299.786 314.543 c 128,-1,32
 313.01 327.136 313.01 327.136 313.01 367.34 c 0,33,34
 313.01 413.944 313.01 413.944 305.828 425.162 c 128,-1,35
 298.646 436.38 298.646 436.38 268.81 436.38 c 2,36,-1
 246 436.38 l 1,37,-1
 246 301.95 l 1,29,-1
EndSplineSet
Layer: 2
SplineSet
68 300 m 0
 68 393.862 69.7602 480.968 69.9801 572.754 c 1
 131.744 581.588 195.033 587 245 587 c 0
 411.612 587 496 572.327 496 370.333 c 0
 496 183.744 402.113 158.161 227.658 157.98 c 5
 228.524 114.026 229.472 64.6562 229.868 19.2336 c 1
 206.102 18.4166 184.523 18 162 18 c 0
 131.557 18 100.193 18.7848 69.9801 19.701 c 1
 69.8512 111.02 68 203.664 68 300 c 0
226 281.988 m 1
 261.814 281.95 l 0
 296.185 281.95 333.013 298.639 333.013 367.34 c 0
 333.013 425.074 326.652 456.441 268.814 456.383 c 2
 226 456.34 l 1
 226 281.988 l 1
EndSplineSet
Validated: 33
Layer: 3
SplineSet
18 280 m 0
 18 392.208 20 494.415 20 604.296 c 1
 93.5986 615.664 186.213 627 255 627 c 0
 429.1 627 566 592.193 566 350.333 c 0
 566 152.435 453.612 87.1455 298.766 78.9961 c 1
 299.615 30.9609 299.955 -10.8818 300.192 -58.3115 c 1
 259.492 -60.1016 214.824 -62 172 -62 c 0
 137.39 -62 102.751 -61.0439 68.9355 -59.9863 c 0
 43.8223 -59.4355 20 -39.1045 20 -10 c 0
 20 83.46 18 179.466 18 280 c 0
EndSplineSet
Validated: 1
Layer: 4
SplineSet
48 300 m 0
 48 400 50 492.03 50 590 c 1
 116.84 600.33 189 607 245 607 c 4
 414 607 516 585.48 516 370.33 c 4
 516 180.7 415.42 138.17 248.04 138 c 5
 248.91 92 249.77 46 250 0 c 5
 220.83 -1.25 191 -2 162 -2 c 4
 128 -2 94.15 -1.07 60 0 c 4
 54.79 0.11 50 4.48 50 10 c 0
 50 104.03 48 200 48 300 c 0
246 301.95 m 1
 261.81 301.95 l 2
 288.99 301.95 313.01 308.19 313.01 367.34 c 0
 313.01 429.48 308.59 436.38 268.81 436.38 c 2
 246 436.38 l 1
 246 301.95 l 1
EndSplineSet
Validated: 1
EndChar

StartChar: N
Encoding: 78 78 8
Width: 550
VWidth: 0
Flags: MW
AnchorPoint: "gs" 288 580 basechar 0
LayerCount: 5
Fore
SplineSet
46 300 m 0,0,1
 46 440 46 440 50 600 c 1,2,3
 97.6245 602.25 97.6245 602.25 132.38 602.25 c 0,4,5
 162.3 602.25 162.3 602.25 219 600 c 0,6,7
 226 600 226 600 230 590 c 2,8,-1
 333.54 334.1 l 1,9,-1
 330 600 l 1,10,11
 377.626 602.25 377.626 602.25 417.38 602.25 c 0,12,13
 456.594 602.25 456.594 602.25 510 600 c 0,14,15
 520 600 520 600 520 590 c 0,16,17
 524 402 524 402 524 300 c 0,18,19
 524 160 524 160 520 0 c 1,20,21
 480.483 -2.25 480.483 -2.25 442.62 -2.25 c 0,22,23
 397.168 -2.25 397.168 -2.25 351 0 c 0,24,25
 344 0 344 0 340 10 c 2,26,-1
 236.46 265.9 l 1,27,-1
 240 0 l 1,28,29
 192.375 -2.25 192.375 -2.25 157.62 -2.25 c 0,30,31
 121.865 -2.25 121.865 -2.25 60 0 c 0,32,33
 50 0 50 0 50 10 c 0,34,35
 46 198 46 198 46 300 c 0,0,1
EndSplineSet
Layer: 2
SplineSet
66 300 m 0
 66 393.384 67.3498 488.514 69.5399 580.877 c 1
 91.5046 581.833 106.319 582.25 132.375 582.25 c 0
 158.945 582.25 184.219 581.354 212.371 580.247 c 1
 354.963 227.839 l 1
 350.257 580.877 l 1
 372.983 581.809 391.448 582.25 417.375 582.25 c 0
 447.458 582.25 474.336 581.425 500.2 580.387 c 1
 502.155 488.235 504 396.665 504 300 c 0
 504 206.524 502.655 111.672 500.457 18.9832 c 1
 482.05 18.0989 467.704 17.75 442.625 17.75 c 0
 414.864 17.75 386.716 18.3782 357.647 19.707 c 1
 215.037 372.158 l 1
 219.744 19.0913 l 1
 197.658 18.1385 183.449 17.75 157.625 17.75 c 0
 127.299 17.75 98.4912 18.6411 69.7992 19.6602 c 1
 67.8459 111.701 66 203.367 66 300 c 0
EndSplineSet
Validated: 1
Layer: 3
SplineSet
16 280 m 0
 16 392.741 18.1445 506.274 20.9424 618.199 c 1
 63.3389 620.202 98.1846 622.25 142.375 622.25 c 0
 172.284 622.25 199.085 621.215 230.587 619.965 c 0
 261.356 618.743 273.69 593.38 277.08 585.003 c 2
 300.708 526.606 l 1
 299.488 618.131 l 1
 343.115 620.191 381.769 622.25 427.375 622.25 c 0
 462.126 622.25 491.831 621.223 521.682 619.965 c 0
 546.615 618.915 570 598.577 570 570.427 c 0
 571.982 477.405 574 380.251 574 280 c 0
 574 167.378 571.862 53.9785 569.066 -57.8359 c 1
 531.891 -60.1855 498.429 -62.25 452.625 -62.25 c 0
 422.072 -62.25 392.09 -61.5879 359.049 -59.9736 c 0
 329.84 -58.5469 316.817 -35.1562 312.594 -24.1953 c 2
 289.292 33.3926 l 1
 290.512 -58.1309 l 1
 252.648 -60.1553 212.268 -62.25 167.625 -62.25 c 0
 132.807 -62.25 100.757 -61.1416 68.5498 -59.9736 c 0
 43.2393 -59.0557 20 -38.4131 20 -10.4258 c 0
 18.0205 82.5938 16 179.749 16 280 c 0
EndSplineSet
Validated: 1
Layer: 4
SplineSet
46 300 m 0
 46 400 47.5 500 50 600 c 1
 81.75 601.5 99.13 602.25 132.38 602.25 c 0
 161.34 602.25 187.5 601.25 219 600 c 0
 224.52 599.78 227.95 595.07 230 590 c 2
 333.54 334.1 l 1
 330 600 l 1
 361.75 601.5 384.13 602.25 417.38 602.25 c 0
 451.34 602.25 480.33 601.25 510 600 c 0
 515.52 599.77 520 595.52 520 590 c 0
 522 496 524 400 524 300 c 0
 524 200 522.5 100 520 0 c 5
 492.25 -1.58 475.87 -2.25 442.62 -2.25 c 4
 412.66 -2.25 383.42 -1.58 351 0 c 4
 345.49 0.27 342 4.5 340 10 c 1
 236.46 265.9 l 5
 240 0 l 5
 208.25 -1.5 190.87 -2.25 157.62 -2.25 c 4
 123.66 -2.25 92.17 -1.17 60 0 c 4
 54.48 0.2 50 4.48 50 10 c 0
 48 104 46 200 46 300 c 0
EndSplineSet
Validated: 1
EndChar

StartChar: L
Encoding: 76 76 9
Width: 410
VWidth: 0
Flags: MW
AnchorPoint: "gs" 200 580 basechar 0
LayerCount: 5
Fore
SplineSet
46 300 m 0,0,1
 46 440 46 440 50 600 c 1,2,3
 97.6245 602.25 97.6245 602.25 137.38 602.25 c 0,4,5
 174.711 602.25 174.711 602.25 240 600 c 0,6,7
 250 600 250 600 250 590 c 0,8,9
 254 402 254 402 254 300 c 0,10,11
 254 235.303 254 235.303 253.14 170.25 c 1,12,-1
 257.38 170.25 l 2,13,14
 344.711 170.25 344.711 170.25 410 168 c 0,15,16
 420 168 420 168 420 158 c 0,17,18
 420.91 106.721 420.91 106.721 420.91 71.57 c 0,19,20
 420.91 34.6552 420.91 34.6552 420 -2 c 1,21,22
 372.375 -4.25 372.375 -4.25 272.62 -4.25 c 0,23,24
 183.323 -4.25 183.323 -4.25 60 0 c 0,25,26
 50 0 50 0 50 10 c 0,27,28
 46 198 46 198 46 300 c 0,0,1
EndSplineSet
Layer: 2
SplineSet
66 300 m 0
 66 393.368 67.3505 488.546 69.5393 580.853 c 1
 93.9659 581.854 110.933 582.25 137.375 582.25 c 0
 167.878 582.25 199.488 581.352 230.201 580.323 c 1
 232.153 488.322 234 396.621 234 300 c 0
 234 255.291 233.7 212.79 233.144 170.51 c 0
 232.877 150.233 l 1
 257.375 150.233 l 0
 288.13 150.233 363.212 149.305 400.165 148.292 c 1
 400.618 121.296 400.908 96.6621 400.908 71.5655 c 0
 400.908 53.8494 400.749 35.5897 400.416 17.3213 c 1
 362.309 16.273 300.309 15.75 272.625 15.75 c 0
 241.926 15.75 113.663 18.4336 69.7983 19.7037 c 1
 67.8471 111.643 66 203.397 66 300 c 0
EndSplineSet
Validated: 1
Layer: 3
SplineSet
16 280 m 0
 16 380.399 17.4932 480.733 20 581 c 2
 20.9424 618.199 l 1
 58.1123 619.955 l 2
 90.0781 621.465 113.52 622.25 147.375 622.25 c 0
 181.739 622.25 218.229 621.12 250.689 620 c 0
 277.224 620 300 597.419 300 570.426 c 0
 301.979 477.405 304 380.252 304 280 c 0
 304 249.53 303.84 217.976 303.588 190.039 c 1
 345.681 189.645 395.473 188.87 420.689 188 c 0
 447.713 188 469.517 165.24 469.987 138.711 c 0
 470.53 108.166 470.908 80.0186 470.908 51.5654 c 0
 470.908 27.4521 470.642 3.12793 469.987 -23 c 2
 469.057 -60.1992 l 1
 431.888 -61.9551 l 2
 398.262 -63.5439 316.543 -64.25 282.625 -64.25 c 0
 247.381 -64.25 103.354 -61.1641 68.7852 -59.9902 c 0
 41.0957 -59.0996 20 -36.9395 20 -10.4258 c 0
 18.0205 82.5938 16 179.749 16 280 c 0
EndSplineSet
Validated: 1
Layer: 4
SplineSet
46 300 m 0
 46 400 47.5 500 50 600 c 1
 81.75 601.5 104.13 602.25 137.38 602.25 c 0
 171.34 602.25 206.05 601.17 240 600 c 0
 245.52 600 250 595.52 250 590 c 4
 252 496 254 400 254 300 c 4
 254 255.2 253.7 212.61 253.14 170.25 c 5
 257.38 170.25 l 0
 291.34 170.25 376.05 169.17 410 168 c 0
 415.52 168 419.9 163.52 420 158 c 0
 420.54 127.57 420.91 99.67 420.91 71.57 c 0
 420.91 47.75 420.64 23.78 420 -2 c 1
 388.25 -3.5 305.87 -4.25 272.62 -4.25 c 0
 238.66 -4.25 93.95 -1.17 60 0 c 0
 54.48 0 50 4.48 50 10 c 0
 48 104 46 200 46 300 c 0
EndSplineSet
Validated: 1
EndChar

StartChar: E
Encoding: 69 69 10
Width: 454
VWidth: 0
Flags: MW
AnchorPoint: "gs" 243 580 basechar 0
LayerCount: 5
Fore
SplineSet
46 300 m 0,0,1
 46 440 46 440 50 600 c 1,2,3
 97.6245 602.25 97.6245 602.25 257.38 602.25 c 0,4,5
 366.711 602.25 366.711 602.25 432 600 c 0,6,7
 442 600 442 600 442 590 c 0,8,9
 442.91 538.72 442.91 538.72 442.91 503.56 c 0,10,11
 442.91 466.655 442.91 466.655 442 430 c 1,12,13
 400 428 400 428 283 428 c 0,14,15
 272.127 428 272.127 428 244.89 428.37 c 1,16,17
 244.532 397.549 244.532 397.549 244.35 375.85 c 1,18,19
 328.047 375.241 328.047 375.241 364 374 c 0,20,21
 374 374 374 374 374 364 c 0,22,23
 374.86 319.833 374.86 319.833 374.86 288.83 c 0,24,25
 374.86 256.499 374.86 256.499 374 222 c 1,26,-1
 244.35 222 l 1,27,28
 244.468 208.21 244.468 208.21 244.89 170 c 1,29,30
 257 170 l 2,31,32
 376 170 376 170 434 168 c 0,33,34
 444 168 444 168 444 158 c 0,35,36
 444.91 106.721 444.91 106.721 444.91 71.57 c 0,37,38
 444.91 34.6552 444.91 34.6552 444 -2 c 1,39,40
 396.375 -4.25 396.375 -4.25 272.62 -4.25 c 0,41,42
 183.323 -4.25 183.323 -4.25 60 0 c 0,43,44
 50 0 50 0 50 10 c 0,45,46
 46 198 46 198 46 300 c 0,0,1
EndSplineSet
Layer: 2
SplineSet
66 300 m 0
 66 393.192 67.3589 488.899 69.533 580.588 c 1
 119.765 581.698 228.87 582.25 257.375 582.25 c 0
 288.137 582.25 383.115 581.285 422.165 580.281 c 1
 422.618 553.312 422.908 528.652 422.908 503.565 c 0
 422.908 485.874 422.748 467.54 422.417 449.36 c 1
 381.97 448.357 310.678 448 283 448 c 0
 272.843 448 241.228 448.424 225.109 448.644 c 1
 224.751 418.008 224.424 387.195 224.178 355.998 c 1
 263.936 355.711 322.334 355.137 354.18 354.287 c 1
 354.615 330.33 354.859 310.071 354.859 288.831 c 0
 354.859 273.76 354.707 257.399 354.429 242 c 1
 224.178 242 l 1
 224.424 211.122 224.763 180.479 225.109 149.945 c 1
 235.017 149.966 247.563 150 257 150 c 0
 287.796 150 385.286 149.241 424.165 148.276 c 1
 424.618 121.321 424.908 96.6474 424.908 71.5655 c 0
 424.908 53.8761 424.748 35.5355 424.417 17.3629 c 1
 381.411 16.2909 300.643 15.75 272.625 15.75 c 0
 241.926 15.75 113.663 18.4336 69.7983 19.7037 c 1
 67.8471 111.643 66 203.397 66 300 c 0
EndSplineSet
Validated: 1
Layer: 3
SplineSet
16 280 m 0
 16 392.741 18.1445 506.274 20.9424 618.199 c 1
 71.5811 620.592 210.875 622.25 267.375 622.25 c 0
 301.609 622.25 408.986 621.163 442.689 620 c 0
 469.713 620 491.522 597.24 491.994 570.711 c 0
 492.536 540.166 492.908 512.018 492.908 483.565 c 0
 492.908 448.016 491.965 408.086 491.057 371.801 c 1
 453.888 370.045 l 2
 445.083 369.629 431.256 369.277 417.167 369.019 c 1
 421.42 361.663 423.815 353.582 423.987 344.78 c 0
 424.521 317.425 424.859 293.272 424.859 268.831 c 0
 424.859 247.207 424.597 225.382 423.987 201 c 2
 423.676 188.522 l 1
 432.912 188.341 439.741 188.171 444.689 188 c 0
 471.713 188 493.522 165.24 493.994 138.711 c 0
 494.536 108.166 494.908 80.0186 494.908 51.5654 c 0
 494.908 16.0166 493.965 -23.9141 493.057 -60.1992 c 1
 442.645 -62.5811 337.747 -64.25 282.625 -64.25 c 0
 247.381 -64.25 103.354 -61.1641 68.7852 -59.9902 c 0
 41.0957 -59.0996 20 -36.9395 20 -10.4258 c 0
 18.0205 82.5938 16 179.749 16 280 c 0
EndSplineSet
Validated: 1
Layer: 4
SplineSet
46 300 m 0
 46 400 47.5 500 50 600 c 1
 81.75 601.5 224.13 602.25 257.38 602.25 c 0
 291.34 602.25 398.05 601.17 432 600 c 0
 437.52 600 441.9 595.52 442 590 c 0
 442.54 559.57 442.91 531.66 442.91 503.56 c 0
 442.91 479.74 442.64 455.78 442 430 c 1
 410.25 428.5 316 428 283 428 c 0
 275.42 428 261.82 428.14 244.89 428.37 c 1
 244.69 411.16 244.5 393.75 244.35 375.85 c 1
 284.22 375.56 338.51 374.88 364 374 c 0
 369.52 374 373.89 369.52 374 364 c 0
 374.53 336.78 374.86 312.9 374.86 288.83 c 0
 374.86 267.53 374.6 246.07 374 222 c 1
 244.35 222 l 1
 244.5 204.42 244.7 187.19 244.89 170 c 1
 249.78 170 253.88 170 257 170 c 0
 291 170 400.05 169.17 434 168 c 0
 439.52 168 443.9 163.52 444 158 c 0
 444.54 127.57 444.91 99.67 444.91 71.57 c 0
 444.91 47.75 444.64 23.78 444 -2 c 1
 412.25 -3.5 305.87 -4.25 272.62 -4.25 c 0
 238.66 -4.25 93.95 -1.17 60 0 c 4
 54.48 0 50 4.48 50 10 c 0
 48 104 46 200 46 300 c 0
EndSplineSet
Validated: 1
EndChar

StartChar: G
Encoding: 71 71 11
Width: 502
VWidth: 0
Flags: MW
AnchorPoint: "gs" 294 580 basechar 0
LayerCount: 5
Fore
SplineSet
26 300.33 m 0,0,1
 26 386.729 26 386.729 44.7577 447.154 c 128,-1,2
 63.5154 507.579 63.5154 507.579 100.57 542.143 c 128,-1,3
 137.625 576.708 137.625 576.708 186.289 591.854 c 128,-1,4
 234.952 607 234.952 607 301 607 c 0,5,6
 375 607 375 607 480 590 c 1,7,-1
 459 432 l 1,8,-1
 281 432 l 2,9,10
 265.433 432 265.433 432 256.606 424.524 c 128,-1,11
 247.778 417.048 247.778 417.048 241.384 387.006 c 128,-1,12
 234.99 356.964 234.99 356.964 234.99 300.33 c 0,13,14
 234.99 243.945 234.99 243.945 242.503 213.435 c 128,-1,15
 250.015 182.924 250.015 182.924 259.821 175.462 c 128,-1,16
 269.626 168 269.626 168 286 168 c 2,17,-1
 306 168 l 1,18,19
 306 216 306 216 302 320 c 1,20,21
 342.193 321.9 342.193 321.9 381.08 321.9 c 0,22,23
 419.363 321.9 419.363 321.9 468 320 c 0,24,25
 478 320 478 320 478 310 c 0,26,27
 482 220 482 220 482 170 c 0,28,29
 482 90 482 90 478 17 c 1,30,31
 372 -2 372 -2 299 -2 c 0,32,33
 245.363 -2 245.363 -2 205.712 5.34834 c 128,-1,34
 166.062 12.6967 166.062 12.6967 130.712 32.5065 c 128,-1,35
 95.3613 52.3162 95.3613 52.3162 73.3283 85.8091 c 128,-1,36
 51.2953 119.302 51.2953 119.302 38.6477 172.972 c 128,-1,37
 26 226.642 26 226.642 26 300.33 c 0,0,1
EndSplineSet
Layer: 2
SplineSet
46 300.333 m 0
 46 526.324 140.84 587 301 587 c 0
 349.699 587 402.499 581.614 457.551 573.277 c 1
 441.154 452.263 l 1
 281.186 452.383 l 0
 235.66 452.416 214.987 416.619 214.987 300.333 c 0
 214.987 182.069 240.873 147.894 286.186 147.95 c 0
 326.016 147.998 l 1
 325.978 194.896 324.792 244.476 322.734 300.847 c 5
 343.695 301.593 361.53 301.896 381.079 301.896 c 0
 405.779 301.896 431.175 301.317 458.407 300.333 c 1
 460.315 257.019 462 215.621 462 170 c 0
 462 129.516 460.581 73.4668 458.811 33.8842 c 1
 397.926 23.067 364.505 18 299 18 c 0
 138.414 18 46 59.8775 46 300.333 c 0
EndSplineSet
Validated: 33
Layer: 3
SplineSet
-4 280.333 m 0
 -4 533.999 114.069 627 311 627 c 0
 370.179 627 431.4 619.998 496.386 609.487 c 2
 534.873 603.263 l 1
 503.567 372.224 l 1
 292.537 372.382 l 1
 290.502 366.405 288.453 356.411 286.951 338.861 c 1
 310.113 339.955 l 2
 338.205 341.282 364.486 341.896 391.079 341.896 c 0
 419.367 341.896 447.973 341.19 479.565 339.955 c 0
 505.986 338.921 526.812 317.715 527.961 291.771 c 0
 530.008 245.564 532 200.272 532 150 c 0
 532 102.446 530.12 35.2217 527.961 -4.78516 c 2
 526.217 -36.7783 l 1
 495.069 -42.3701 l 2
 426.506 -54.6807 383.668 -62 309 -62 c 0
 125.86 -62 -4 10.9287 -4 280.333 c 0
EndSplineSet
Layer: 4
SplineSet
26 300.33 m 4
 26 535.48 132 607 301 607 c 0
 357 607 416.16 600.33 480 590 c 5
 459 432 l 5
 281 432 l 6
 254 432 234.99 419.13 234.99 300.33 c 4
 234.99 181.18 258 168 286 168 c 2
 306 168 l 1
 306 208 303.98 268.42 302 320 c 1
 329.5 321.3 355.1 321.9 381.08 321.9 c 0
 408.71 321.9 436.77 321.22 468 320 c 0
 473.52 319.78 477.76 315.51 478 310 c 4
 480.05 263.79 482 219.2 482 170 c 4
 482 123.26 480.17 56.75 478 17 c 5
 409.11 4.63 371.05 -2 299 -2 c 4
 131 -2 26 50.31 26 300.33 c 4
EndSplineSet
Validated: 1
EndChar

StartChar: C
Encoding: 67 67 12
Width: 415
VWidth: 0
Flags: MW
AnchorPoint: "gs" 264 580 basechar 0
LayerCount: 5
Fore
SplineSet
26 300.33 m 0,0,1
 26 386.729 26 386.729 44.7577 447.154 c 128,-1,2
 63.5154 507.579 63.5154 507.579 100.57 542.143 c 128,-1,3
 137.625 576.708 137.625 576.708 186.289 591.854 c 128,-1,4
 234.952 607 234.952 607 301 607 c 0,5,6
 344 607 344 607 415 590 c 1,7,-1
 393.62 433.25 l 1,8,-1
 301.19 439.38 l 2,9,10
 269.921 441.455 269.921 441.455 252.456 412.011 c 128,-1,11
 234.99 382.568 234.99 382.568 234.99 300.33 c 0,12,13
 234.99 216.612 234.99 216.612 251.391 187.674 c 128,-1,14
 267.792 158.736 267.792 158.736 301.19 160.95 c 2,15,-1
 393.62 167.08 l 1,16,-1
 414 9 l 1,17,18
 355 -2 355 -2 299 -2 c 0,19,20
 245.363 -2 245.363 -2 205.712 5.34834 c 128,-1,21
 166.062 12.6967 166.062 12.6967 130.712 32.5065 c 128,-1,22
 95.3613 52.3162 95.3613 52.3162 73.3283 85.8091 c 128,-1,23
 51.2953 119.302 51.2953 119.302 38.6477 172.972 c 128,-1,24
 26 226.642 26 226.642 26 300.33 c 0,0,1
EndSplineSet
Layer: 2
SplineSet
46 300.333 m 0
 46 526.324 140.84 587 301 587 c 0
 333.78 587 361.517 581.933 392.732 574.726 c 1
 376.33 454.441 l 1
 302.51 459.339 l 0
 248.29 462.936 214.987 419.605 214.987 300.333 c 0
 214.987 201.026 238.721 136.763 302.51 140.994 c 6
 376.192 145.882 l 1
 391.719 25.4176 l 1
 359.253 20.1886 332.916 18 299 18 c 0
 138.414 18 46 59.8775 46 300.333 c 0
EndSplineSet
Validated: 33
Layer: 3
SplineSet
-4 280.333 m 0
 -4 533.999 114.069 627 311 627 c 0
 365.84 627 423.326 612.512 469.519 600.418 c 1
 438.216 370.867 l 1
 308.538 379.471 l 2
 303.521 379.804 284.987 384 284.987 280.333 c 0
 284.987 207.878 291.286 179.718 308.538 180.862 c 2
 438.49 189.484 l 1
 468.511 -43.4229 l 1
 417.828 -52.8281 364.833 -62 309 -62 c 0
 125.86 -62 -4 10.9287 -4 280.333 c 0
EndSplineSet
Validated: 33
Layer: 4
SplineSet
26 300.33 m 0
 26 535.48 132 607 301 607 c 0
 342.15 607 374.74 599.7 415 590 c 1
 393.62 433.25 l 1
 301.19 439.38 l 2
 264.72 441.8 234.99 419.13 234.99 300.33 c 0
 234.99 181.18 260.77 158.27 301.19 160.95 c 2
 393.62 167.08 l 1
 414 9 l 1
 373.33 1.45 340.35 -2 299 -2 c 0
 131 -2 26 50.31 26 300.33 c 0
EndSplineSet
Validated: 33
EndChar

StartChar: B
Encoding: 66 66 13
Width: 516
VWidth: 0
Flags: MW
LayerCount: 5
Fore
SplineSet
244.16 380.95 m 1,0,1
 251.81 380.95 l 2,2,3
 276.232 380.95 276.232 380.95 292.621 392.026 c 128,-1,4
 309.01 403.101 309.01 403.101 309.01 423.34 c 0,5,6
 309.01 442.706 309.01 442.706 293.77 453.068 c 128,-1,7
 278.531 463.43 278.531 463.43 257.54 463.43 c 0,8,9
 250.695 463.43 250.695 463.43 245.16 462.96 c 1,10,11
 244.335 405.612 244.335 405.612 244.16 380.95 c 1,0,1
245.3 232.38 m 1,12,13
 245.727 212.542 245.727 212.542 247.26 151.95 c 1,14,-1
 263.81 151.95 l 2,15,16
 316.01 151.95 316.01 151.95 316.01 192.34 c 0,17,18
 316.01 209.924 316.01 209.924 303.349 221.152 c 128,-1,19
 290.688 232.38 290.688 232.38 270.81 232.38 c 2,20,-1
 245.3 232.38 l 1,12,13
48 313 m 0,21,22
 48 363 48 363 49 451.5 c 128,-1,23
 50 540 50 540 50 590 c 1,24,25
 160 607 160 607 245 607 c 0,26,27
 279.084 607 279.084 607 302.467 605.924 c 128,-1,28
 325.85 604.847 325.85 604.847 353.215 600.9 c 128,-1,29
 380.581 596.952 380.581 596.952 398.56 589.737 c 128,-1,30
 416.539 582.521 416.539 582.521 434.562 569.724 c 128,-1,31
 452.585 556.927 452.585 556.927 462.887 538.706 c 128,-1,32
 473.189 520.485 473.189 520.485 479.594 493.972 c 128,-1,33
 486 467.458 486 467.458 486 433.33 c 0,34,35
 486 354.512 486 354.512 428.1 304.01 c 1,36,37
 469.996 281.147 469.996 281.147 492.998 249.17 c 128,-1,38
 516 217.194 516 217.194 516 181.33 c 0,39,40
 516 134.866 516 134.866 503.265 100.904 c 128,-1,41
 490.53 66.9419 490.53 66.9419 469.767 46.8251 c 128,-1,42
 449.004 26.7084 449.004 26.7084 416.433 14.8305 c 128,-1,43
 383.861 2.95262 383.861 2.95262 350.535 -1.0237 c 128,-1,44
 317.209 -5.00001 317.209 -5.00001 273 -5.00002 c 0,45,46
 167 -5 167 -5 60 6 c 1,47,48
 50 9 50 9 50 18 c 0,49,50
 50 64 50 64 49 163 c 128,-1,51
 48 262 48 262 48 313 c 0,21,22
EndSplineSet
Layer: 2
SplineSet
224.024 360.95 m 1
 233.316 360.95 242.52 360.95 251.814 360.95 c 0
 286.523 360.95 329.013 378.614 329.013 423.34 c 0
 329.013 467.329 287.237 483.431 257.542 483.431 c 0
 245.77 483.431 234.732 482.319 225.42 481.361 c 1
 224.852 443.845 224.247 403.808 224.024 360.95 c 1
224.868 252.339 m 1
 225.706 211.632 226.735 171.254 227.757 131.987 c 1
 263.814 131.95 l 0
 307.387 131.95 336.013 154.244 336.013 192.34 c 0
 336.013 228.304 305.997 252.383 270.814 252.383 c 0
 224.868 252.339 l 1
68 313 m 0
 68 406.884 69.7633 480.883 69.9805 572.754 c 1
 131.744 581.588 195.034 587 245 587 c 4
 384.865 587 466 578.854 466 433.333 c 4
 466 370.21 432.211 334.138 393.319 300.212 c 5
 448.111 270.309 496 232.047 496 181.333 c 4
 496 38.0585 406.729 15 273 15 c 4
 208.357 15 136.65 18.5672 69.9805 25.0961 c 5
 69.8757 118.572 68 215.572 68 313 c 0
EndSplineSet
Layer: 3
SplineSet
18 293 m 0
 18 404.071 20 493.232 20 604.296 c 1
 93.5986 615.664 186.213 627 255 627 c 0
 392.518 627 536 609.115 536 413.333 c 0
 536 367.128 521.758 325.038 498.418 291.546 c 1
 540.33 256.999 566 212.613 566 161.333 c 0
 566 -30.2266 420.728 -65 283 -65 c 0
 213.509 -65 137.305 -61.1123 65.918 -53.791 c 0
 37.9453 -50.9229 20 -26.6953 20 -2 c 0
 20 91.4727 18 192.477 18 293 c 0
EndSplineSet
Validated: 1
Layer: 4
SplineSet
244.16 380.95 m 1
 246.71 380.95 249.26 380.95 251.81 380.95 c 0
 282.53 380.95 309.01 395.11 309.01 423.34 c 0
 309.01 450.86 283.03 463.43 257.54 463.43 c 0
 253.31 463.43 247.28 463.14 245.16 462.96 c 1
 244.79 437.23 244.38 411.9 244.16 380.95 c 1
245.3 232.38 m 1
 245.87 205.91 246.58 178.83 247.26 151.95 c 1
 263.81 151.95 l 2
 301.19 151.95 316.01 166.51 316.01 192.34 c 0
 316.01 215.77 297.33 232.38 270.81 232.38 c 0
 262.31 232.38 253.8 232.38 245.3 232.38 c 1
48 313 m 0
 48 413 50 490.03 50 590 c 1
 116.84 600.33 189 607 245 607 c 4
 384 607 486 595.48 486 433.33 c 4
 486 380.01 464.73 335.96 428.1 304.01 c 5
 483.77 273.63 516 229.31 516 181.33 c 4
 516 22.06 408 -5 273 -5 c 4
 205 -5 129.94 -1.17 60 6 c 4
 54.33 7.52 50 12.48 50 18 c 0
 50 112.03 48 213 48 313 c 0
EndSplineSet
Validated: 1
EndChar

StartChar: X
Encoding: 88 88 14
Width: 530
VWidth: 0
Flags: MW
AnchorPoint: "gs" 286 580 basechar 0
LayerCount: 5
Fore
SplineSet
19 0 m 1,0,1
 25.477 30.7914 25.477 30.7914 30.5598 52.4294 c 128,-1,2
 35.6425 74.0673 35.6425 74.0673 45.9502 113.205 c 128,-1,3
 56.258 152.342 56.258 152.342 67.8094 181.569 c 128,-1,4
 79.3608 210.796 79.3608 210.796 94.4343 242.415 c 128,-1,5
 109.508 274.034 109.508 274.034 128.752 295.942 c 128,-1,6
 147.997 317.851 147.997 317.851 169.35 328 c 1,7,-1
 169.35 329.41 l 1,8,9
 140.649 338.219 140.649 338.219 107.561 391.561 c 128,-1,10
 74.4728 444.904 74.4728 444.904 52.6089 501.279 c 128,-1,11
 30.745 557.654 30.745 557.654 21 599.41 c 1,12,13
 68.7999 605 68.7999 605 120.66 605 c 0,14,15
 159.356 605 159.356 605 201 602.41 c 0,16,17
 213.252 601.648 213.252 601.648 216.29 592.41 c 0,18,19
 225.074 565.749 225.074 565.749 235.228 536.82 c 128,-1,20
 245.382 507.891 245.382 507.891 257.045 475.437 c 128,-1,21
 268.707 442.983 268.707 442.983 274.63 426.06 c 1,22,23
 330.454 580.434 330.454 580.434 334.4 592.41 c 0,24,25
 337.438 601.648 337.438 601.648 349.69 602.41 c 0,26,27
 391.334 605 391.334 605 430.03 605 c 0,28,29
 481.89 605 481.89 605 529.69 599.41 c 1,30,31
 522.603 569.042 522.603 569.042 508.017 528.125 c 128,-1,32
 493.431 487.209 493.431 487.209 473.71 443.849 c 128,-1,33
 453.989 400.49 453.989 400.49 429.039 367.962 c 128,-1,34
 404.09 335.434 404.09 335.434 381.35 329.41 c 1,35,-1
 381.35 328 l 1,36,37
 398.342 317.577 398.342 317.577 413.96 300.285 c 128,-1,38
 429.579 282.994 429.579 282.994 441.132 265.744 c 128,-1,39
 452.685 248.494 452.685 248.494 464.474 221.594 c 128,-1,40
 476.262 194.694 476.262 194.694 483.3 176.477 c 128,-1,41
 490.337 158.26 490.337 158.26 499.37 126.849 c 128,-1,42
 508.404 95.4375 508.404 95.4375 512.001 81.3516 c 128,-1,43
 515.597 67.2657 515.597 67.2657 522.952 36.442 c 128,-1,44
 530.306 5.61832 530.306 5.61832 531.69 0 c 1,45,46
 483.89 -5.59 483.89 -5.59 427.03 -5.59 c 0,47,48
 388.334 -5.59 388.334 -5.59 346.69 -3 c 0,49,50
 334.438 -2.23834 334.438 -2.23834 331.4 7 c 0,51,52
 311.173 68.3707 311.173 68.3707 275.35 209.69 c 1,53,54
 239.56 68.5023 239.56 68.5023 219.29 7 c 0,55,56
 216.252 -2.23834 216.252 -2.23834 204 -3 c 0,57,58
 162.356 -5.59 162.356 -5.59 123.66 -5.59 c 0,59,60
 66.8002 -5.59 66.8002 -5.59 19 0 c 1,0,1
EndSplineSet
Layer: 2
SplineSet
43.2035 17.6517 m 5
 64.2576 114.905 109.652 277.481 177.932 309.937 c 2
 189.346 315.362 l 1
 189.346 344.19 l 1
 175.214 348.527 l 2
 135.582 360.69 70.2313 499.822 46.317 581.905 c 1
 71.2737 584.104 93.7324 585 120.663 585 c 0
 146.602 585 173.145 584.064 198.492 582.524 c 1
 218.427 522.367 238.367 469.142 255.756 419.454 c 2
 263.73 396.667 l 1
 284.872 395.668 l 1
 293.413 419.26 l 2
 311.228 468.53 332.837 524.2 352.201 582.524 c 1
 379.469 584.181 403.703 585 430.031 585 c 0
 456.838 585 481.006 583.971 504.448 581.905 c 1
 480.169 496.926 416.968 359.533 376.227 348.74 c 2
 361.348 344.799 l 1
 361.348 316.806 l 1
 370.889 310.952 l 2
 446.179 264.764 484.455 112.295 506.895 17.6005 c 1
 480.2 15.3344 454.409 14.4072 427.031 14.4072 c 0
 401.094 14.4072 374.541 15.3428 349.213 16.8824 c 1
 330.535 74.3466 311.457 148.636 294.734 214.605 c 1
 286.874 243.672 l 1
 263.73 245.333 l 1
 255.96 214.605 l 2
 239.296 148.868 219.57 72.5344 201.481 16.8824 c 1
 174.242 15.2266 149.98 14.4072 123.663 14.4072 c 0
 96.5981 14.4072 67.3187 15.5742 43.2035 17.6517 c 5
EndSplineSet
Validated: 1
Layer: 3
SplineSet
-19.1641 -54.6455 m 1
 -10.0732 -11.4346 l 2
 5.6582 63.373 37.6758 226.026 114.452 308.168 c 1
 51.9512 376.744 7.11719 506.245 -7.87109 569.963 c 2
 -18.1357 613.938 l 1
 26.3574 619.137 l 2
 61.3574 623.229 93.6846 625 130.663 625 c 0
 158.411 625 186.223 624.025 213.48 622.33 c 0
 228.182 621.416 254.777 613.765 264.28 584.926 c 0
 271.093 564.252 278.688 542.243 285.219 523.67 c 1
 292.534 543.987 299.375 563.566 306.414 584.926 c 0
 315.916 613.762 342.516 621.417 357.211 622.33 c 0
 384.474 624.025 412.282 625 440.031 625 c 0
 477.009 625 509.337 623.229 544.336 619.137 c 2
 588.83 613.938 l 1
 578.646 570.314 l 2
 563.549 505.63 518.072 371.914 455.496 305.667 c 1
 536.893 215.685 562.236 63.8594 580.533 -10.4346 c 2
 591.379 -54.4678 l 1
 546.335 -59.7295 l 2
 510.902 -63.8691 474.017 -65.5928 437.031 -65.5928 c 0
 409.279 -65.5928 381.477 -64.6182 354.209 -62.9229 c 0
 339.515 -62.0078 312.918 -54.3604 303.413 -25.5186 c 0
 297.502 -7.5791 290.896 14.3086 285.347 33.6436 c 1
 278.957 11.3906 273.469 -6.73828 267.28 -25.5186 c 0
 257.777 -54.3564 231.179 -62.0078 216.482 -62.9229 c 0
 189.221 -64.6182 161.413 -65.5928 133.663 -65.5928 c 0
 96.6777 -65.5928 59.791 -63.8691 24.3584 -59.7295 c 2
 -19.1641 -54.6455 l 1
EndSplineSet
Layer: 4
SplineSet
19 0 m 5
 37.25 86.76 80.02 285.54 169.35 328 c 1
 169.35 329.41 l 1
 107.02 348.54 38.06 526.31 21 599.41 c 1
 54.52 603.33 84.92 605 120.66 605 c 0
 147.47 605 174.47 604.06 201 602.41 c 0
 206.63 602.06 214.33 598.37 216.29 592.41 c 4
 236.1 532.29 256.85 476.86 274.63 426.06 c 5
 293 476.86 314.59 532.29 334.4 592.41 c 0
 336.36 598.37 344.06 602.06 349.69 602.41 c 0
 376.22 604.06 403.22 605 430.03 605 c 0
 465.76 605 496.17 603.33 529.69 599.41 c 5
 512.56 526.01 446.02 346.54 381.35 329.41 c 5
 381.35 328 l 5
 475.02 270.54 509.84 88.7 531.69 0 c 5
 498.17 -3.92 462.76 -5.59 427.03 -5.59 c 4
 400.22 -5.59 373.22 -4.65 346.69 -3 c 4
 341.06 -2.65 333.36 1.04 331.4 7 c 0
 312.34 64.83 292.42 142.35 275.35 209.69 c 5
 258.28 142.35 238.35 64.83 219.29 7 c 4
 217.33 1.04 209.63 -2.65 204 -3 c 4
 177.47 -4.65 150.47 -5.59 123.66 -5.59 c 4
 87.92 -5.59 52.52 -3.92 19 0 c 5
EndSplineSet
Validated: 1
EndChar

StartChar: Y
Encoding: 89 89 15
Width: 525
VWidth: 0
Flags: MW
AnchorPoint: "gs" 272 580 basechar 0
LayerCount: 5
Fore
SplineSet
8 596.41 m 1,0,1
 55.7997 602 55.7997 602 112.66 602 c 0,2,3
 151.356 602 151.356 602 193 599.41 c 0,4,5
 205.252 598.648 205.252 598.648 208.29 589.41 c 0,6,7
 232.664 515.439 232.664 515.439 272.34 371.38 c 1,8,9
 311.965 515.255 311.965 515.255 336.4 589.41 c 0,10,11
 339.438 598.648 339.438 598.648 351.69 599.41 c 0,12,13
 393.334 602 393.334 602 432.03 602 c 0,14,15
 488.89 602 488.89 602 536.69 596.41 c 1,16,17
 497.427 428.173 497.427 428.173 453.35 341.41 c 1,18,19
 422.14 288.091 422.14 288.091 372.56 247.31 c 1,20,21
 374.724 55.4664 374.724 55.4664 375 0 c 1,22,23
 327.375 -2.25 327.375 -2.25 285.62 -2.25 c 0,24,25
 246.288 -2.25 246.288 -2.25 181 0 c 0,26,27
 171 0 171 0 171 10 c 0,28,29
 171 98.0457 171 98.0457 172.47 247.14 c 1,30,31
 122.394 288.388 122.394 288.388 91.35 341.41 c 1,32,33
 47.2543 428.209 47.2543 428.209 8 596.41 c 1,0,1
EndSplineSet
Layer: 2
SplineSet
32.7314 578.805 m 1
 59.5977 581.086 85.2201 582.004 112.663 582.004 c 0
 138.602 582.004 165.151 581.068 190.485 579.528 c 1
 212.564 511.984 234.715 432.707 253.065 366.068 c 0
 263.04 336.827 l 1
 283.854 337.833 l 1
 291.629 366.068 l 0
 309.897 432.411 332.75 513.881 354.209 579.528 c 1
 381.458 581.185 405.711 582.004 432.031 582.004 c 0
 459.042 582.004 487.127 580.913 511.963 578.805 c 1
 494.439 506.26 469.272 417.239 435.788 351.001 c 1
 411.738 310.222 384.015 282.629 352.458 256.67 c 1
 353.351 177.563 354.4 97.7793 354.892 19.133 c 1
 331.595 18.1962 311.679 17.75 285.625 17.75 c 0
 255.287 17.75 221.247 18.6671 191.003 19.6721 c 1
 191.06 96.9223 191.775 175.912 192.566 256.497 c 1
 161.192 282.342 132.158 311.578 108.908 351.001 c 1
 74.6737 418.722 49.8524 507.924 32.7314 578.805 c 1
EndSplineSet
Validated: 1
Layer: 3
SplineSet
-31.1367 610.943 m 1
 13.3584 616.141 l 2
 48.792 620.28 85.6777 622.004 122.663 622.004 c 0
 150.413 622.004 178.224 621.029 205.48 619.334 c 0
 220.182 618.421 246.777 610.769 256.28 581.93 c 0
 264.883 555.825 274.1 525.839 282.34 498.025 c 1
 291.003 527.291 299.589 555.149 308.414 581.93 c 0
 317.916 610.766 344.516 618.421 359.211 619.334 c 0
 386.475 621.029 414.282 622.004 442.031 622.004 c 0
 479.018 622.004 515.903 620.28 551.335 616.141 c 2
 595.83 610.943 l 1
 585.646 567.318 l 2
 567.739 490.596 541.238 386.431 499.013 303.296 c 2
 498.471 302.231 l 1
 497.867 301.199 l 2
 476.166 264.138 448.394 232.432 422.774 209.191 c 1
 423.688 130.053 424.614 57.2129 425 -19.7998 c 2
 425.191 -58.1455 l 1
 386.888 -59.9551 l 2
 354.825 -61.4707 329.479 -62.25 295.625 -62.25 c 0
 261.249 -62.25 222.86 -61.123 190.311 -60 c 0
 163.814 -60 141 -37.6719 141 -10 c 0
 141 61.2646 141.6 136.474 142.295 208.971 c 1
 114.28 234.286 88.7051 263.835 66.8281 301.199 c 2
 66.2246 302.231 l 1
 65.6836 303.296 l 2
 23.543 386.258 -3.12695 491.03 -20.8662 566.947 c 2
 -31.1367 610.943 l 1
EndSplineSet
Layer: 4
SplineSet
8 596.41 m 1
 41.52 600.33 76.93 602 112.66 602 c 0
 139.47 602 166.47 601.06 193 599.41 c 0
 198.63 599.06 206.33 595.37 208.29 589.41 c 4
 230.41 522.28 253.7 439.06 272.34 371.38 c 5
 290.98 439.06 314.28 522.28 336.4 589.41 c 0
 338.36 595.37 346.06 599.06 351.69 599.41 c 0
 378.22 601.06 405.22 602 432.03 602 c 0
 467.77 602 503.17 600.33 536.69 596.41 c 5
 519 520.61 492.62 418.71 453.35 341.41 c 5
 430.51 302.39 402.31 271.78 372.56 247.31 c 5
 373.49 164.87 374.59 82.44 375 0 c 5
 343.25 -1.5 318.87 -2.25 285.62 -2.25 c 4
 251.66 -2.25 214.95 -1.17 181 0 c 4
 175.48 0 171 4.48 171 10 c 0
 171 87.32 171.67 166 172.47 247.14 c 1
 142.69 271.67 114.36 302.11 91.35 341.41 c 1
 52.08 418.71 25.69 520.61 8 596.41 c 1
EndSplineSet
Validated: 1
EndChar

StartChar: K
Encoding: 75 75 16
Width: 533
VWidth: 0
Flags: MW
AnchorPoint: "gs" 288 580 basechar 0
LayerCount: 5
Fore
SplineSet
46 300 m 0,0,1
 46 440 46 440 50 600 c 1,2,3
 97.6245 602.25 97.6245 602.25 137.38 602.25 c 0,4,5
 174.711 602.25 174.711 602.25 240 600 c 0,6,7
 250 600 250 600 250 590 c 0,8,9
 250.36 573.08 250.36 573.08 250.36 554.65 c 0,10,11
 250.36 526.279 250.36 526.279 246.48 389.65 c 1,12,13
 247.28 389.659 247.28 389.659 255.621 389.768 c 128,-1,14
 263.963 389.877 263.963 389.877 268.41 389.93 c 1,15,16
 277.951 418.632 277.951 418.632 301.846 487.829 c 128,-1,17
 325.74 557.026 325.74 557.026 337.4 592.41 c 0,18,19
 340.438 601.648 340.438 601.648 352.69 602.41 c 0,20,21
 394.334 605 394.334 605 433.03 605 c 0,22,23
 484.89 605 484.89 605 532.69 599.41 c 1,24,25
 502.047 468.109 502.047 468.109 448.35 362.41 c 1,26,27
 418.97 312.247 418.97 312.247 370.35 309.41 c 1,28,-1
 370.35 308 l 1,29,30
 422.076 304.982 422.076 304.982 451.35 255 c 1,31,32
 495.427 168.237 495.427 168.237 534.69 0 c 1,33,34
 486.89 -5.59 486.89 -5.59 430.03 -5.59 c 0,35,36
 391.334 -5.59 391.334 -5.59 349.69 -3 c 0,37,38
 337.438 -2.23834 337.438 -2.23834 334.4 7 c 0,39,40
 309.318 83.1132 309.318 83.1132 264.91 244.82 c 1,41,-1
 245.65 244.78 l 1,42,43
 245.94 231.426 245.94 231.426 248.225 156.945 c 128,-1,44
 250.51 82.4635 250.51 82.4635 250.51 42.86 c 0,45,46
 250.51 20.2439 250.51 20.2439 250 0 c 1,47,48
 202.375 -2.25 202.375 -2.25 162.62 -2.25 c 0,49,50
 125.288 -2.25 125.288 -2.25 60 0 c 0,51,52
 50 0 50 0 50 10 c 0,53,54
 46 198 46 198 46 300 c 0,0,1
EndSplineSet
Layer: 2
SplineSet
66 300 m 0
 66 393.368 67.3505 488.546 69.5393 580.853 c 1
 93.9659 581.854 110.933 582.25 137.375 582.25 c 0
 167.86 582.25 199.525 581.351 230.172 580.324 c 1
 230.317 570.41 230.359 563.463 230.359 554.652 c 0
 230.359 494.642 227.659 431.637 225.895 369.389 c 1
 244.867 369.63 266.725 369.876 282.896 370.108 c 1
 287.389 383.621 l 2
 307.526 444.181 333.865 517.994 355.203 582.524 c 1
 382.466 584.181 406.705 585 433.031 585 c 0
 459.958 585 483.689 583.999 507.838 581.871 c 1
 490.384 513.185 464.71 438.985 430.792 372.008 c 1
 414.525 344.614 395.778 330.923 369.185 329.373 c 2
 350.348 328.276 l 1
 350.348 289.131 l 1
 369.185 288.034 l 2
 396.504 286.443 418.588 270.932 433.793 245.397 c 1
 468.012 177.705 492.843 88.479 509.963 17.6061 c 1
 483.097 15.3255 457.475 14.4074 430.031 14.4074 c 0
 404.093 14.4074 377.544 15.343 352.209 16.8827 c 1
 327.903 91.2478 303.352 180.347 284.194 250.112 c 2
 280.148 264.844 l 1
 225.216 264.744 l 1
 225.658 244.348 l 2
 227.125 176.656 230.51 109.492 230.51 42.8571 c 0
 230.51 35.109 230.447 26.0314 230.359 19.1426 c 1
 206.173 18.1518 188.994 17.75 162.625 17.75 c 0
 132.122 17.75 100.512 18.6471 69.7988 19.6774 c 1
 67.8464 111.678 66 203.379 66 300 c 0
EndSplineSet
Layer: 3
SplineSet
16 280 m 0
 16 392.741 18.1445 506.274 20.9424 618.199 c 1
 61.0957 620.238 102.242 622.25 147.375 622.25 c 0
 181.739 622.25 218.229 621.12 250.689 620 c 0
 277.224 620 300 597.419 300 570.426 c 0
 300.075 566.884 300.188 559.867 300.219 557.345 c 1
 303.735 567.79 306.359 575.657 309.414 584.926 c 0
 318.916 613.762 345.516 621.417 360.211 622.33 c 0
 387.474 624.025 415.282 625 443.031 625 c 0
 495.537 625 544.037 619.521 591.83 613.938 c 1
 568.21 512.753 543.646 422.008 494.011 324.292 c 2
 493.47 323.227 l 1
 492.865 322.195 l 2
 486.131 310.693 477.02 298.642 468.817 289.98 c 1
 480.135 279.14 488.297 268.139 495.865 255.212 c 2
 496.47 254.181 l 1
 497.011 253.115 l 2
 539.129 170.198 565.847 65.2725 583.539 -10.4453 c 2
 593.83 -54.5312 l 1
 549.336 -59.7295 l 2
 513.902 -63.8701 477.016 -65.5928 440.031 -65.5928 c 0
 412.279 -65.5928 384.477 -64.6182 357.209 -62.9229 c 0
 342.515 -62.0078 315.918 -54.3594 306.414 -25.5195 c 0
 304.404 -19.4219 302.232 -12.7061 300.282 -6.59863 c 1
 300.207 -11.2402 300.089 -16.8379 300 -20.4824 c 2
 299.058 -58.1992 l 1
 261.888 -59.9551 l 2
 229.922 -61.4658 206.48 -62.25 172.625 -62.25 c 0
 138.077 -62.25 102.143 -61.1377 69.0234 -59.998 c 0
 40.8955 -59.0938 20 -36.9609 20 -10.4453 c 0
 18.0205 82.5732 16 179.749 16 280 c 0
EndSplineSet
Validated: 1
Layer: 4
SplineSet
46 300 m 0
 46 400 47.5 500 50 600 c 1
 81.75 601.5 104.13 602.25 137.38 602.25 c 0
 171.34 602.25 206.05 601.17 240 600 c 0
 245.52 600 250 595.52 250 590 c 0
 250.25 578.25 250.36 566.47 250.36 554.65 c 0
 250.36 500.51 248.07 445.64 246.48 389.65 c 1
 253.55 389.74 260.92 389.84 268.41 389.93 c 1
 289.11 452.2 315.39 525.62 337.4 592.41 c 0
 339.36 598.37 347.06 602.06 352.69 602.41 c 0
 379.22 604.06 406.22 605 433.03 605 c 0
 468.76 605 499.17 603.33 532.69 599.41 c 5
 515 523.61 487.62 439.71 448.35 362.41 c 5
 430.17 331.37 405.14 311.44 370.35 309.41 c 5
 370.35 308 l 5
 405.14 305.97 433.17 286.04 451.35 255 c 5
 490.62 177.7 517 75.8 534.69 0 c 5
 501.17 -3.92 465.76 -5.59 430.03 -5.59 c 4
 403.22 -5.59 376.22 -4.65 349.69 -3 c 4
 344.06 -2.65 336.36 1.04 334.4 7 c 0
 310.07 80.83 284.32 174.14 264.91 244.82 c 1
 245.65 244.78 l 1
 247.11 177.47 250.51 110.17 250.51 42.86 c 0
 250.51 28.57 250.36 14.29 250 0 c 1
 218.25 -1.5 195.87 -2.25 162.62 -2.25 c 0
 128.66 -2.25 93.95 -1.17 60 0 c 0
 54.48 0 50 4.48 50 10 c 0
 48 104 46 200 46 300 c 0
EndSplineSet
Validated: 1
EndChar

StartChar: R
Encoding: 82 82 17
Width: 526
VWidth: 0
Flags: MW
AnchorPoint: "gs" 262 580 basechar 0
LayerCount: 5
Fore
SplineSet
48 313 m 0,0,1
 48 363 48 363 49 451.5 c 128,-1,2
 50 540 50 540 50 590 c 1,3,4
 160 607 160 607 255 607 c 0,5,6
 291.456 607 291.456 607 316.19 605.918 c 128,-1,7
 340.924 604.836 340.924 604.836 369.551 600.905 c 128,-1,8
 398.177 596.974 398.177 596.974 416.715 589.731 c 128,-1,9
 435.252 582.488 435.252 582.488 453.755 569.73 c 128,-1,10
 472.258 556.971 472.258 556.971 482.674 538.7 c 128,-1,11
 493.09 520.429 493.09 520.429 499.545 493.977 c 128,-1,12
 506 467.525 506 467.525 506 433.33 c 0,13,14
 506 379.093 506 379.093 478.027 337.818 c 128,-1,15
 450.054 296.542 450.054 296.542 399.94 272.95 c 1,16,17
 434.288 260.979 434.288 260.979 455.35 225 c 1,18,19
 504.979 127.309 504.979 127.309 534.69 0 c 1,20,21
 486.89 -5.59 486.89 -5.59 430.03 -5.59 c 0,22,23
 391.334 -5.59 391.334 -5.59 349.69 -3 c 0,24,25
 337.438 -2.23834 337.438 -2.23834 334.4 7 c 0,26,27
 286.831 151.353 286.831 151.353 258.67 246 c 1,28,29
 254.39 246 254.39 246 245.55 246.06 c 1,30,31
 245.959 218.672 245.959 218.672 247.868 131.667 c 128,-1,32
 249.777 44.6628 249.777 44.6628 250 0 c 1,33,34
 208.695 -1.77 208.695 -1.77 162.34 -1.77 c 0,35,36
 116.491 -1.77 116.491 -1.77 60 0 c 0,37,38
 50 0 50 0 50 10 c 0,39,40
 50 56 50 56 49 159 c 128,-1,41
 48 262 48 262 48 313 c 0,0,1
245.1 369 m 1,42,-1
 262 369 l 2,43,44
 285.856 369 285.856 369 300.433 380.919 c 128,-1,45
 315.01 392.839 315.01 392.839 315.01 412.34 c 0,46,47
 315.01 436.861 315.01 436.861 304.976 448.666 c 128,-1,48
 294.943 460.47 294.943 460.47 269.42 460.47 c 0,49,50
 259.185 460.47 259.185 460.47 245.61 459.64 c 1,51,52
 245.171 388.3 245.171 388.3 245.1 369 c 1,42,-1
EndSplineSet
Layer: 2
SplineSet
68 313 m 0
 68 406.865 69.7634 480.921 69.9805 572.725 c 1
 133.635 581.614 204.847 587 255 587 c 0
 405.25 587 486 578.589 486 433.333 c 0
 486 367.916 451.147 319.158 391.425 291.043 c 0
 368.417 280.211 l 1
 368.417 271.5 368.583 266.5 369.417 262.412 c 1
 393.359 254.063 l 0
 411.282 247.814 426.548 234.272 437.794 215.395 c 1
 472.472 146.918 493.581 82.8602 509.876 17.5987 c 1
 483.23 15.3368 457.39 14.4074 430.031 14.4074 c 0
 404.092 14.4074 377.546 15.3428 352.206 16.8829 c 1
 324.325 101.57 297.797 184.647 277.845 251.711 c 0
 273.599 265.98 l 1
 257.46 265.989 241.334 266.072 225.251 266.172 c 1
 225.555 245.759 l 0
 226.675 170.639 229.15 91.4037 229.857 19.2595 c 1
 206.155 18.5074 185.128 18.2287 162.335 18.2287 c 0
 131.76 18.2287 100.128 18.8295 69.9805 19.7066 c 1
 69.8431 113.024 68 216.461 68 313 c 0
225.031 349 m 1
 262 349 l 0
 300.854 349 335.013 372.684 335.013 412.34 c 0
 335.013 449.444 316.214 480.474 269.418 480.474 c 0
 253.679 480.474 237.318 479.359 225.727 478.473 c 1
 225.465 439.257 225.165 393.828 225.031 349 c 1
EndSplineSet
Validated: 1
Layer: 3
SplineSet
18 293 m 0
 18 404.071 20 493.232 20 604.296 c 1
 94.3613 615.782 195.547 627 265 627 c 0
 411.733 627 556 609.629 556 413.333 c 0
 556 346.525 526.733 289.871 481.212 251.256 c 1
 489.422 241.945 494.257 234.79 499.865 225.213 c 2
 500.47 224.181 l 1
 501.011 223.115 l 2
 550.199 126.279 570.652 44.7578 593.83 -54.5312 c 1
 545.398 -60.1895 493.302 -65.5928 440.031 -65.5928 c 0
 412.279 -65.5928 384.477 -64.6182 357.209 -62.9229 c 0
 342.515 -62.0078 315.918 -54.3594 306.414 -25.5195 c 0
 304.317 -19.1582 301.655 -11.0557 299.905 -5.71875 c 1
 299.951 -11.2852 299.976 -14.9785 300 -19.7998 c 2
 300.192 -58.3115 l 1
 258.618 -60.0957 215.035 -61.7715 172.335 -61.7715 c 0
 138.122 -61.7715 102.367 -61.0322 69.374 -60 c 0
 42.0762 -60 20 -36.9014 20 -10 c 0
 20 83.4912 18 192.494 18 293 c 0
EndSplineSet
Validated: 1
Layer: 4
SplineSet
48 313 m 0
 48 413 50 490.03 50 590 c 1
 116.84 600.33 199 607 255 607 c 4
 404 607 506 595.48 506 433.33 c 4
 506 359.72 465.47 303.8 399.94 272.95 c 5
 422.98 264.92 441.88 248.01 455.35 225 c 5
 494.62 147.7 517 75.8 534.69 0 c 5
 501.17 -3.92 465.76 -5.59 430.03 -5.59 c 4
 403.22 -5.59 376.22 -4.65 349.69 -3 c 4
 344.06 -2.65 336.36 1.04 334.4 7 c 0
 306.36 92.09 278.95 177.84 258.67 246 c 1
 254.34 246 249.97 246.03 245.55 246.06 c 1
 246.77 164.38 249.61 78.21 250 0 c 1
 220.83 -1.25 191.61 -1.77 162.34 -1.77 c 0
 128.27 -1.77 94.15 -1.07 60 0 c 0
 54.21 0 50 4.48 50 10 c 0
 50 104.03 48 213 48 313 c 0
245.1 369 m 1
 262 369 l 2
 293.81 369 315.01 386.34 315.01 412.34 c 0
 315.01 443.2 305.01 460.47 269.42 460.47 c 0
 261.38 460.47 252.97 460.09 245.61 459.64 c 1
 245.43 430.36 245.22 401.43 245.1 369 c 1
EndSplineSet
Validated: 1
EndChar

StartChar: J
Encoding: 74 74 18
Width: 434
VWidth: 0
Flags: MW
AnchorPoint: "gs" 228 580 basechar 0
LayerCount: 5
Fore
SplineSet
32 -4 m 1,0,-1
 39.38 160.08 l 1,1,-1
 138.81 151.95 l 2,2,3
 155.776 150.458 155.776 150.458 166.641 153.18 c 128,-1,4
 177.505 155.903 177.505 155.903 187.235 166.093 c 128,-1,5
 196.965 176.282 196.965 176.282 201.482 198.725 c 128,-1,6
 206 221.168 206 221.168 206 257 c 0,7,8
 206 334.465 206 334.465 207.07 428.3 c 1,9,10
 112.504 430.025 112.504 430.025 55 432 c 0,11,12
 45 432 45 432 45 442 c 0,13,14
 44.04 487.435 44.04 487.435 44.04 524.08 c 0,15,16
 44.04 561.815 44.04 561.815 45 600 c 1,17,18
 92.6248 602.25 92.6248 602.25 264.38 602.25 c 0,19,20
 334.711 602.25 334.711 602.25 400 600 c 0,21,22
 410 600 410 600 410 590 c 0,23,24
 414 402 414 402 414 262.33 c 0,25,26
 414 178.149 414 178.149 395.417 121.991 c 128,-1,27
 376.834 65.8333 376.834 65.8333 338.739 36.0615 c 128,-1,28
 300.645 6.28961 300.645 6.28961 253.604 -5.35519 c 128,-1,29
 206.564 -17 206.564 -17 139 -17 c 0,30,31
 102 -17 102 -17 32 -4 c 1,0,-1
EndSplineSet
Layer: 2
SplineSet
52.7594 12.4654 m 1
 58.4231 138.458 l 1
 137.123 132.022 l 1
 141.402 131.645 145.958 131.372 150.397 131.372 c 0
 199.077 131.372 226 166.444 226 257 c 0
 226 312.259 226.558 383.401 227.299 447.931 c 1
 178.053 448.828 100.017 450.623 64.8059 451.695 c 1
 64.3075 477.168 64.035 500.411 64.035 524.076 c 0
 64.035 542.549 64.2166 561.468 64.5758 580.575 c 1
 117.039 581.693 235.752 582.25 264.375 582.25 c 0
 295.046 582.25 355.318 581.315 390.199 580.301 c 1
 392.142 486.28 394 358.628 394 262.333 c 0
 394 43.204 300.78 3 139 3 c 0
 105.552 3 82.3745 6.93925 52.7594 12.4654 c 1
EndSplineSet
Validated: 1
Layer: 3
SplineSet
0.476562 -56.9775 m 1
 11.2783 183.332 l 1
 152.197 171.807 l 2
 173.874 170.034 176 181.108 176 237 c 0
 176 275.815 176.258 324.578 176.666 369.105 c 1
 131.16 370.099 82.7725 371.363 64.3105 372 c 0
 37.7773 372 15 394.58 15 421.574 c 0
 14.4023 449.648 14.0352 477.354 14.0352 504.076 c 0
 14.0352 540.4 15.0146 581.089 15.9424 618.199 c 1
 66.998 620.611 217.242 622.25 274.375 622.25 c 0
 308.643 622.25 377.483 621.146 410.689 620 c 0
 437.227 620 460 597.416 460 570.426 c 0
 461.984 477.168 464 342.223 464 242.333 c 0
 464 -9.73828 329.722 -77 149 -77 c 0
 92.5742 -77 47.0586 -67.1787 0.476562 -56.9775 c 1
EndSplineSet
Validated: 33
Layer: 4
SplineSet
32 -4 m 5
 39.38 160.08 l 1
 138.81 151.95 l 2
 179.17 148.4 206 158.6 206 257 c 0
 206 307.22 206.38 367.79 207.07 428.3 c 1
 155.54 429.24 80.04 431.14 55 432 c 0
 49.48 432 45 436.48 45 442 c 0
 44.39 470.87 44.04 497.43 44.04 524.08 c 0
 44.04 548.68 44.33 573.35 45 600 c 1
 76.75 601.5 231.13 602.25 264.38 602.25 c 0
 298.34 602.25 366.05 601.17 400 600 c 0
 405.52 600 410 595.52 410 590 c 4
 412 496 414 362 414 262.33 c 4
 414 32.31 307 -17 139 -17 c 4
 97.65 -17 72.67 -11.55 32 -4 c 5
EndSplineSet
Validated: 33
EndChar

StartChar: V
Encoding: 86 86 19
Width: 505
VWidth: 0
Flags: MW
AnchorPoint: "gs" 274 580 basechar 0
LayerCount: 5
Fore
SplineSet
5.87 600 m 1,0,1
 53.1048 602.25 53.1048 602.25 96.84 602.25 c 0,2,3
 159.44 602.25 159.44 602.25 194.86 600 c 0,4,5
 204.773 599.37 204.773 599.37 206.63 590 c 0,6,7
 229.65 473.521 229.65 473.521 266.01 211.54 c 1,8,9
 303.912 486.985 303.912 486.985 326.66 600 c 1,10,11
 374.674 602.25 374.674 602.25 404.43 602.25 c 0,12,13
 445.774 602.25 445.774 602.25 510.66 600 c 0,14,15
 519.05 600 519.05 600 519.05 591.75 c 0,16,17
 519.05 590.488 519.05 590.488 514.21 560.35 c 0,18,19
 476.223 324.537 476.223 324.537 400.86 0 c 1,20,21
 352.719 -2.25 352.719 -2.25 273.39 -2.25 c 0,22,23
 201.095 -2.25 201.095 -2.25 135.66 0 c 0,24,25
 126.189 0 126.189 0 123.9 10 c 0,26,27
 39.073 380.564 39.073 380.564 5.87 600 c 1,0,1
EndSplineSet
Layer: 2
SplineSet
29.0295 580.983 m 1
 52.4989 581.872 71.7459 582.25 96.8428 582.25 c 0
 128.831 582.25 157.631 582.114 188.138 580.372 c 1
 212.123 457.769 228.866 333.665 246.2 208.793 c 0
 250.243 178.667 l 1
 261 178.667 270.667 179 281.813 179.667 c 1
 285.823 208.793 l 0
 302.872 332.716 319.324 458.529 343.229 580.745 c 1
 366.476 581.79 380.494 582.25 404.434 582.25 c 0
 433.716 582.25 467.308 581.411 497.161 580.443 c 1
 468.199 396.919 427.512 204.122 384.816 19.3392 c 1
 347.265 17.9324 312.652 17.75 273.389 17.75 c 0
 228.974 17.75 184.213 18.4213 142.174 19.7931 c 1
 100.299 202.879 57.7682 397.545 29.0295 580.983 c 1
EndSplineSet
Validated: 1
Layer: 3
SplineSet
-30.3174 617.846 m 1
 15.6943 620.037 l 2
 47.5928 621.558 72.9922 622.25 106.843 622.25 c 0
 140.829 622.25 171.792 622.183 207.408 619.919 c 0
 229.742 618.496 250.936 602.706 255.865 577.755 c 0
 263.021 541.543 269.866 503.282 275.696 468.334 c 1
 282.282 508.245 289.404 547.941 297.448 587.895 c 2
 303.608 618.495 l 1
 337.737 620.282 377.526 622.25 414.434 622.25 c 0
 448.816 622.25 488.938 621.125 521.355 620 c 1
 548.135 620 569.064 596.927 569.064 571.486 c 0
 569.064 562.292 564.325 537.705 561.637 521.3 c 0
 530.54 331.536 486.526 128.972 442.979 -58.5391 c 1
 390.567 -60.9951 338.283 -62.25 283.389 -62.25 c 0
 236.582 -62.25 189.862 -61.5391 144.976 -60 c 0
 119.009 -60 99.7734 -40.1787 94.9072 -18.9268 c 0
 51.0117 172.81 5.97266 378.021 -23.6846 574.016 c 2
 -30.3174 617.846 l 1
EndSplineSet
Layer: 4
SplineSet
5.87 600 m 1
 37.36 601.5 63.59 602.25 96.84 602.25 c 0
 130.8 602.25 160.7 602.17 194.86 600 c 0
 200.37 599.65 205.54 595.5 206.63 590 c 0
 231.35 464.92 248.42 338.28 266.01 211.54 c 1
 283.78 340.68 300.63 470.68 326.66 600 c 1
 358.67 601.5 375.18 602.25 404.43 602.25 c 0
 438.39 602.25 476.92 601.17 510.66 600 c 0
 515.58 600 519.05 596.44 519.05 591.75 c 0
 519.05 587.39 515.84 570.5 514.21 560.35 c 4
 484.76 377.53 443.63 184.18 400.86 0 c 5
 358.71 -1.97 317.93 -2.25 273.39 -2.25 c 4
 226.54 -2.25 181.61 -1.58 135.66 0 c 4
 130.14 0 125.15 4.54 123.9 10 c 0
 80.07 201.47 35.25 405.83 5.87 600 c 1
EndSplineSet
Validated: 1
EndChar

StartChar: S
Encoding: 83 83 20
Width: 492
VWidth: 0
Flags: MW
AnchorPoint: "gs" 256 580 basechar 0
LayerCount: 5
Fore
SplineSet
34 6 m 5,0,-1
 58.5 186.8 l 1,1,2
 169.386 151.95 169.386 151.95 235.81 151.95 c 0,3,4
 261.658 151.95 261.658 151.95 275.334 162.838 c 128,-1,5
 289.01 173.726 289.01 173.726 289.01 187.34 c 0,6,7
 289.01 194.601 289.01 194.601 284.61 200.174 c 128,-1,8
 280.21 205.747 280.21 205.747 269.121 210.627 c 128,-1,9
 258.032 215.508 258.032 215.508 249.265 218.351 c 128,-1,10
 240.498 221.193 240.498 221.193 221.96 226.44 c 0,11,12
 199.741 232.731 199.741 232.731 187.417 236.602 c 128,-1,13
 175.093 240.473 175.093 240.473 152.472 249.786 c 128,-1,14
 129.851 259.099 129.851 259.099 116.289 268.425 c 128,-1,15
 102.728 277.752 102.728 277.752 85.3775 293.932 c 128,-1,16
 68.0275 310.111 68.0275 310.111 58.4103 328.807 c 128,-1,17
 48.7931 347.502 48.7931 347.502 41.8966 374.461 c 128,-1,18
 35 401.421 35 401.421 35 433.33 c 0,19,20
 35 467.463 35 467.463 41.2837 493.972 c 128,-1,21
 47.5674 520.481 47.5674 520.481 57.6755 538.705 c 128,-1,22
 67.7836 556.93 67.7836 556.93 85.4878 569.724 c 128,-1,23
 103.192 582.519 103.192 582.519 120.859 589.736 c 128,-1,24
 138.526 596.953 138.526 596.953 165.447 600.9 c 128,-1,25
 192.368 604.847 192.368 604.847 215.39 605.923 c 128,-1,26
 238.412 607 238.412 607 272 607 c 0,27,28
 355 607 355 607 465 585 c 1,29,-1
 442.5 418.8 l 1,30,31
 352.337 459.38 352.337 459.38 262.19 459.38 c 0,32,33
 211.99 459.38 211.99 459.38 211.99 431.34 c 0,34,35
 211.99 419.589 211.99 419.589 228.697 411.727 c 128,-1,36
 245.404 403.864 245.404 403.864 283.8 392.35 c 0,37,38
 308.318 384.994 308.318 384.994 321.71 380.647 c 128,-1,39
 335.102 376.299 335.102 376.299 360.149 366.173 c 128,-1,40
 385.196 356.046 385.196 356.046 400.091 346.639 c 128,-1,41
 414.986 337.233 414.986 337.233 434.226 321.281 c 128,-1,42
 453.467 305.329 453.467 305.329 464.082 287.707 c 128,-1,43
 474.697 270.086 474.697 270.086 482.348 245.153 c 128,-1,44
 490 220.221 490 220.221 490 191.33 c 0,45,46
 490 133.652 490 133.652 471.359 93.8028 c 128,-1,47
 452.717 53.9535 452.717 53.9535 417.47 33.0974 c 128,-1,48
 382.222 12.2412 382.222 12.2412 340.89 3.6206 c 128,-1,49
 299.557 -5.00001 299.557 -5.00001 245 -5.00002 c 0,50,51
 141 -5 141 -5 34 6 c 5,0,-1
EndSplineSet
Layer: 2
SplineSet
55 433.333 m 0
 55 579.099 134.352 587 272 587 c 0
 322.804 587 382.909 579.97 442.643 568.936 c 1
 426.153 447.133 l 1
 378.958 464.888 318.263 479.383 262.186 479.383 c 0
 231.731 479.383 191.987 469.606 191.987 431.34 c 0
 191.987 391.167 244.62 383.224 278.05 373.197 c 0
 362.669 347.816 470 314.642 470 191.333 c 0
 470 47.4134 377.317 15 245 15 c 0
 184.579 15 118.019 18.2261 56.6064 23.8918 c 1
 75.164 160.833 l 1
 138.001 142.44 191.949 131.95 235.814 131.95 c 0
 279.776 131.95 309.013 156.925 309.013 187.34 c 0
 309.013 228.926 258.778 236.799 227.411 245.68 c 0
 151.432 267.192 55 293.615 55 433.333 c 0
EndSplineSet
Layer: 3
SplineSet
-1.1875 -49.5752 m 1
 35.2334 219.185 l 1
 80.4932 204.96 l 2
 119.73 192.628 157.788 183.15 187.607 177.904 c 1
 111.28 202.486 5 256.167 5 413.333 c 0
 5 608.638 125.034 627 281 627 c 0
 342.894 627 414.123 617.922 482.82 604.229 c 2
 519.681 596.88 l 1
 484.949 340.327 l 1
 436.08 362.325 l 2
 426.833 366.488 414.107 371.438 403.74 374.997 c 1
 472.053 342.106 540 283.067 540 171.333 c 0
 540 -18.8955 395.528 -65 255 -65 c 0
 185.506 -65 111.23 -61.1055 39.918 -53.791 c 2
 -1.1875 -49.5752 l 1
EndSplineSet
Validated: 1
Layer: 4
SplineSet
34 6 m 5
 58.5 186.8 l 1
 128.5 164.8 190.5 151.95 235.81 151.95 c 0
 273.19 151.95 289.01 171.51 289.01 187.34 c 0
 289.01 207.47 260.19 215.62 221.96 226.44 c 1
 146.7 247.75 35 279.43 35 433.33 c 0
 35 595.48 135 607 272 607 c 0
 330 607 398.16 598.33 465 585 c 5
 442.5 418.8 l 5
 395.73 439.85 324.5 459.38 262.19 459.38 c 4
 231.93 459.38 211.99 449.84 211.99 431.34 c 4
 211.99 413.94 242.75 404.66 283.8 392.35 c 5
 366.17 367.64 490 330.7 490 191.33 c 4
 490 32.06 380 -5 245 -5 c 4
 177 -5 103.94 -1.17 34 6 c 5
EndSplineSet
Validated: 1
EndChar

StartChar: W
Encoding: 87 87 21
Width: 682
VWidth: 0
Flags: MW
AnchorPoint: "gs" 355 580 basechar 0
LayerCount: 5
Fore
SplineSet
5.87 600 m 1,0,1
 53.1048 602.25 53.1048 602.25 96.84 602.25 c 0,2,3
 159.44 602.25 159.44 602.25 194.86 600 c 0,4,5
 204.773 599.37 204.773 599.37 206.63 590 c 0,6,7
 225.497 494.541 225.497 494.541 245.38 338.37 c 1,8,9
 284.118 496.813 284.118 496.813 309 569 c 1,10,-1
 356 571 l 1,11,-1
 402 569 l 1,12,13
 427.597 497.39 427.597 497.39 465.14 342.35 c 1,14,15
 486.752 507.923 486.752 507.923 501.66 600 c 1,16,17
 549.675 602.25 549.675 602.25 581.43 602.25 c 0,18,19
 622.774 602.25 622.774 602.25 687.66 600 c 0,20,21
 696 600 696 600 696 591.52 c 0,22,23
 696 589.998 696 589.998 691.61 559.97 c 0,24,25
 651.423 285.172 651.423 285.172 577.86 0 c 1,26,27
 513.84 -3 513.84 -3 431 -3 c 1,28,29
 420.74 32.5791 420.74 32.5791 394.137 113.919 c 128,-1,30
 367.534 195.26 367.534 195.26 355.36 239.88 c 1,31,32
 343.598 198.603 343.598 198.603 315.56 117.997 c 128,-1,33
 287.523 37.3921 287.523 37.3921 276 -3 c 1,34,35
 223.25 -3 223.25 -3 135.66 0 c 0,36,37
 126.441 0 126.441 0 123.9 10 c 0,38,39
 42.8497 327.811 42.8497 327.811 5.87 600 c 1,0,1
EndSplineSet
Layer: 2
SplineSet
28.6971 580.97 m 1
 51.0231 581.827 71.8392 582.25 96.8428 582.25 c 0
 128.829 582.25 157.635 582.113 188.136 580.372 c 1
 206.199 487.631 217.974 395.238 230.098 300 c 1
 239.917 299.5 244.417 299 256.339 299 c 1
 275.853 378.808 300.909 480.001 323.591 549.603 c 1
 356 550.982 l 1
 387.557 549.603 l 1
 411.187 479.474 435.686 378.995 455.18 298.5 c 1
 479.736 299.596 l 1
 479.804 300.167 l 1
 492.065 394.125 504.172 488.108 518.832 580.744 c 1
 542.998 581.753 562.655 582.25 581.434 582.25 c 0
 610.839 582.25 644.058 581.419 674.354 580.437 c 1
 648.455 398.335 608.918 202.603 562.194 19.3999 c 1
 528.896 18.2814 476.537 17.3254 445.956 17.072 c 1
 445.958 17.0856 l 1
 445.955 17.0723 l 1
 435.574 54.9902 387.234 206.368 374.653 245.15 c 1
 366.349 275.583 l 1
 356.042 277.583 353.042 278.083 345.446 278.083 c 1
 336.124 245.365 l 2
 314.482 169.408 284.221 94.3638 261.036 17.072 c 1
 225.085 17.4492 172.388 18.8162 142.041 19.7984 c 5
 95.3125 203.707 54.8153 396.673 28.6971 580.97 c 1
EndSplineSet
Layer: 3
SplineSet
-29.6484 617.877 m 1
 15.9756 620.051 l 2
 47.875 621.571 72.9922 622.25 106.843 622.25 c 0
 140.829 622.25 171.792 622.183 207.408 619.919 c 0
 229.742 618.496 250.94 602.706 255.869 577.754 c 0
 259.793 557.896 263.701 536.487 266.95 517.591 c 1
 272.259 535.19 276.369 548.064 281.183 562.033 c 2
 290.064 587.794 l 1
 366 591.037 l 1
 440.61 587.794 l 1
 449.665 562.466 l 2
 453.75 551.039 458.702 535.943 462.459 523.888 c 1
 465.769 546.017 468.761 565.309 472.176 586.395 c 2
 477.364 618.438 l 1
 509.789 619.956 l 2
 542.12 621.472 567.3 622.25 591.434 622.25 c 0
 625.816 622.25 665.938 621.125 698.355 620 c 1
 726.525 620 745.958 595.699 745.958 570.909 c 0
 745.958 557.344 740.335 528.062 737.147 507.133 c 0
 710.323 331.028 671.937 145.886 626.711 -29.5498 c 2
 619.223 -58.5742 l 1
 589.737 -59.9561 l 2
 541.871 -62.1992 458.245 -63 410.903 -63 c 1
 396.271 -12.25 381.004 35.9697 364.21 87.3447 c 1
 346.215 35.5869 330.984 -11.124 316.184 -63 c 1
 268.468 -63 191.984 -61.6113 144.976 -60 c 0
 118.372 -60 100.146 -39.5156 95.1387 -19.8857 c 0
 46.0039 172.764 2.88281 378.444 -23.7705 574.614 c 2
 -29.6484 617.877 l 1
EndSplineSet
Layer: 4
SplineSet
5.87 600 m 5
 37.36 601.5 63.59 602.25 96.84 602.25 c 4
 130.8 602.25 160.7 602.17 194.86 600 c 4
 200.37 599.65 205.54 595.5 206.63 590 c 4
 223.1 506.67 234.65 422.65 245.38 338.37 c 5
 263.69 413.26 288.66 509.99 309 569 c 5
 356 571 l 5
 402 569 l 5
 422.8 510.81 447.17 416.56 465.14 342.35 c 5
 476.35 428.23 487.78 514.27 501.66 600 c 5
 533.67 601.5 558.18 602.25 581.43 602.25 c 4
 615.39 602.25 653.92 601.17 687.66 600 c 4
 692.67 600 696 596.34 696 591.52 c 4
 696 588.08 693.11 570.23 691.61 559.97 c 4
 664.89 377.26 625.34 184.06 577.86 0 c 5
 545.85 -1.5 464 -3 431 -3 c 5
 407.89 77.14 377.96 157.05 355.36 239.88 c 5
 331.94 157.69 299.15 78.15 276 -3 c 5
 242 -3 169.82 -1.17 135.66 0 c 4
 130.14 0 125.28 4.57 123.9 10 c 4
 75.07 201.47 32.25 405.83 5.87 600 c 5
EndSplineSet
Validated: 1
EndChar

StartChar: M
Encoding: 77 77 22
Width: 696
VWidth: 0
Flags: MW
AnchorPoint: "gs" 364 580 basechar 0
LayerCount: 5
Fore
SplineSet
46 300 m 0,0,1
 46 440 46 440 50 600 c 1,2,3
 97.6245 602.25 97.6245 602.25 132.38 602.25 c 0,4,5
 176.635 602.25 176.635 602.25 219 600 c 0,6,7
 226 600 226 600 230 590 c 2,8,-1
 355.5 333.98 l 1,9,-1
 481 590 l 1,10,11
 488.007 599.27 488.007 599.27 493.25 599.69 c 0,12,13
 525.614 602.25 525.614 602.25 563.38 602.25 c 0,14,15
 602.153 602.25 602.153 602.25 656 600 c 0,16,17
 666 600 666 600 666 590 c 0,18,19
 670 402 670 402 670 300 c 0,20,21
 670 160 670 160 666 0 c 1,22,23
 622.875 -2.25 622.875 -2.25 588.62 -2.25 c 0,24,25
 561.288 -2.25 561.288 -2.25 496 0 c 0,26,27
 486 0 486 0 486 10 c 0,28,29
 485.359 40.2096 485.359 40.2096 483.816 94.3622 c 128,-1,30
 482.274 148.515 482.274 148.515 481.25 194.798 c 128,-1,31
 480.226 241.081 480.226 241.081 480.04 282.64 c 1,32,-1
 366 50 l 1,33,-1
 355 48 l 1,34,-1
 345 50 l 1,35,-1
 236.38 271.59 l 1,36,-1
 240 0 l 1,37,38
 192.375 -2.25 192.375 -2.25 157.62 -2.25 c 0,39,40
 125.288 -2.25 125.288 -2.25 60 0 c 0,41,42
 50 0 50 0 50 10 c 0,43,44
 46 198 46 198 46 300 c 0,0,1
EndSplineSet
Layer: 2
SplineSet
66 300 m 0
 66 393.384 67.3498 488.514 69.5399 580.877 c 1
 91.5046 581.833 106.319 582.25 132.375 582.25 c 0
 163.877 582.25 186.302 581.632 212.475 580.312 c 1
 355.5 288.542 l 1
 498.383 580.024 l 1
 516.865 581.372 537.875 582.25 563.375 582.25 c 0
 593.158 582.25 622.239 581.336 646.2 580.383 c 1
 648.158 488.24 650 396.663 650 300 c 0
 650 206.56 648.651 111.599 646.458 19.0381 c 1
 626.887 18.1182 613.954 17.75 588.625 17.75 c 0
 567.427 17.75 536.165 18.655 505.793 19.6774 c 1
 503.824 106.603 500.441 192.488 500.039 282.727 c 2
 499.658 368.099 l 1
 355.5 74.0182 l 1
 215.195 360.239 l 1
 219.744 19.0913 l 1
 197.658 18.1385 183.449 17.75 157.625 17.75 c 0
 136.552 17.75 100.081 18.6816 69.7988 19.6774 c 1
 67.8465 111.67 66 203.381 66 300 c 0
EndSplineSet
Layer: 3
SplineSet
16 280 m 0
 16 392.741 18.1445 506.274 20.9424 618.199 c 1
 57.3389 620.202 98.1846 622.25 142.375 622.25 c 0
 176.834 622.25 200.889 621.553 231.124 619.943 c 0
 261.646 618.32 273.841 592.407 276.48 586.457 c 2
 365.5 404.856 l 1
 456.773 591.055 l 1
 459.065 594.088 l 2
 460.806 596.498 473.383 617.456 500.103 619.566 c 0
 519.918 621.13 544.644 622.25 573.375 622.25 c 0
 608.188 622.25 639.479 621.118 667.667 619.943 c 0
 692.624 618.902 716 598.567 716 570.427 c 0
 717.982 477.405 720 380.251 720 280 c 0
 720 167.317 717.859 53.8555 715.062 -58.0166 c 1
 679.628 -60.1777 643.945 -62.25 598.625 -62.25 c 0
 573.993 -62.25 537.817 -61.1211 505.311 -60 c 0
 478.775 -60 456 -37.417 456 -10.4268 c 0
 455.271 23.8203 454.191 61.3096 453.213 96.6377 c 1
 403.027 -5.74219 l 1
 364.643 -12.7207 l 1
 327.78 -5.34863 l 1
 288.746 74.2803 l 1
 290.512 -58.1309 l 1
 252.648 -60.1553 212.268 -62.25 167.625 -62.25 c 0
 142.868 -62.25 102.312 -61.1416 69.0518 -60 c 0
 40.8721 -59.0938 20 -36.9414 20 -10.4268 c 0
 18.0205 82.5928 16 179.749 16 280 c 0
EndSplineSet
Validated: 1
Layer: 4
SplineSet
46 300 m 0
 46 400 47.5 500 50 600 c 1
 81.75 601.5 99.13 602.25 132.38 602.25 c 0
 166.34 602.25 189.25 601.58 219 600 c 0
 224.51 599.71 228.08 594.92 230 590 c 2
 355.5 333.98 l 1
 481 590 l 1
 484.25 594.3 488.38 599.3 493.25 599.69 c 0
 511.96 601.17 535.7 602.25 563.38 602.25 c 0
 597.34 602.25 628 601.17 656 600 c 0
 661.52 599.77 666 595.52 666 590 c 0
 668 496 670 400 670 300 c 0
 670 200 668.5 100 666 0 c 1
 637.25 -1.5 621.87 -2.25 588.62 -2.25 c 0
 564.66 -2.25 529.95 -1.17 496 0 c 0
 490.48 0 486 4.48 486 10 c 0
 484.12 98.55 480.46 188.87 480.04 282.64 c 5
 366 50 l 5
 355 48 l 5
 345 50 l 1
 236.38 271.59 l 1
 240 0 l 1
 208.25 -1.5 190.87 -2.25 157.62 -2.25 c 0
 133.66 -2.25 93.95 -1.17 60 0 c 0
 54.48 0 50 4.48 50 10 c 0
 48 104 46 200 46 300 c 0
EndSplineSet
Validated: 1
EndChar

StartChar: Z
Encoding: 90 90 23
Width: 444
VWidth: 0
Flags: MW
AnchorPoint: "gs" 238 580 basechar 0
LayerCount: 5
Fore
SplineSet
29.04 524.08 m 0,0,1
 29.04 561.815 29.04 561.815 30 600 c 1,2,3
 77.6245 602.25 77.6245 602.25 247.38 602.25 c 0,4,5
 356.711 602.25 356.711 602.25 422 600 c 0,6,7
 432 600 432 600 432 590 c 2,8,9
 432 490 l 1,10,11
 332.84 295.724 332.84 295.724 255.32 170.24 c 1,12,13
 369.648 169.873 369.648 169.873 424 168 c 0,14,15
 434 168 434 168 434 158 c 0,16,17
 434.91 107.631 434.91 107.631 434.91 71.91 c 0,18,19
 434.91 34.6552 434.91 34.6552 434 -2 c 1,20,21
 386.375 -4.25 386.375 -4.25 262.62 -4.25 c 0,22,23
 163.323 -4.25 163.323 -4.25 40 0 c 0,24,25
 30 0 30 0 30 10 c 0,26,27
 29.28 43.7461 29.28 43.7461 29.28 71.3 c 0,28,29
 29.28 99.344 29.28 99.344 30 128 c 1,30,31
 53.1379 173.58 53.1379 173.58 79.3793 219.311 c 128,-1,32
 105.621 265.041 105.621 265.041 148.884 336.206 c 128,-1,33
 192.148 407.371 192.148 407.371 204.77 428.59 c 1,34,35
 79.9214 430.624 79.9214 430.624 40 432 c 0,36,37
 30 432 30 432 30 442 c 0,38,39
 29.04 487.435 29.04 487.435 29.04 524.08 c 0,0,1
EndSplineSet
Layer: 2
SplineSet
49.035 524.076 m 0
 49.035 542.55 49.2166 561.465 49.5759 580.577 c 1
 102.045 581.698 218.709 582.25 247.375 582.25 c 0
 278.027 582.25 373.335 581.28 412 580.286 c 1
 412 494.814 l 1
 375.221 422.934 301.887 283.658 238.308 180.747 c 0
 219.531 150.352 l 1
 255.257 150.235 l 0
 292.122 150.114 376.654 149.231 414.168 148.281 c 1
 414.648 119.901 414.908 97.5753 414.908 71.9072 c 0
 414.908 54.0972 414.748 35.6752 414.416 17.3629 c 1
 371.411 16.2909 290.642 15.75 262.625 15.75 c 0
 231.798 15.75 95.7173 18.4176 49.8056 19.7078 c 1
 49.4623 37.8408 49.2793 54.4087 49.2793 71.297 c 0
 49.2793 88.0041 49.4869 105.565 49.8846 122.973 c 1
 100.402 221.746 161.523 316.783 221.957 418.366 c 0
 239.603 448.028 l 1
 205.094 448.589 l 0
 150.408 449.479 79.0022 450.908 49.8056 451.712 c 1
 49.3081 477.144 49.035 500.424 49.035 524.076 c 0
EndSplineSet
Validated: 1
Layer: 3
SplineSet
-0.964844 504.076 m 0
 -0.964844 529.001 -0.673828 554.037 0 581 c 2
 0.942383 618.199 l 1
 38.1123 619.955 l 2
 72.4863 621.579 223.355 622.25 257.375 622.25 c 0
 291.609 622.25 398.986 621.163 432.689 620 c 0
 459.185 620 482 597.673 482 570 c 2
 482 460.383 l 1
 477.628 451.816 l 2
 448.426 394.598 390.528 284.277 335.521 189.682 c 1
 375.119 189.252 416.228 188.637 434.689 188 c 0
 461.724 188 483.507 165.232 483.987 138.724 c 0
 484.531 108.708 484.908 80.5127 484.908 51.9072 c 0
 484.908 27.6641 484.642 3.13379 483.987 -23 c 2
 483.057 -60.1992 l 1
 445.888 -61.9551 l 2
 411.938 -63.5596 306.58 -64.25 272.625 -64.25 c 0
 237.406 -64.25 83.4502 -61.166 48.7617 -59.9893 c 0
 21.0898 -59.0996 0 -36.9395 0 -10.4258 c 0
 -0.442383 10.3408 -0.720703 31.3223 -0.720703 51.2969 c 0
 -0.720703 69.9941 -0.505859 88.7832 0 109 c 2
 0.238281 118.042 l 1
 4.33301 126.108 l 2
 46.3818 208.929 96.5488 290.349 144.761 369.835 c 1
 100.611 370.686 64.4961 371.478 48.7617 372.011 c 0
 21.1172 372.899 0 395.06 0 421.574 c 0
 -0.597656 449.649 -0.964844 477.354 -0.964844 504.076 c 0
EndSplineSet
Validated: 1
Layer: 4
SplineSet
29.04 524.08 m 0
 29.04 548.68 29.33 573.35 30 600 c 1
 61.75 601.5 214.13 602.25 247.38 602.25 c 0
 281.34 602.25 388.05 601.17 422 600 c 0
 427.52 600 432 595.52 432 590 c 0
 432 556.85 432 523.33 432 490 c 1
 396.45 420.35 320.76 276.17 255.32 170.24 c 1
 295.82 170.11 392.37 169.09 424 168 c 0
 429.52 168 433.9 163.52 434 158 c 0
 434.54 128.11 434.91 100.17 434.91 71.91 c 0
 434.91 47.96 434.64 23.78 434 -2 c 1
 402.25 -3.5 295.87 -4.25 262.62 -4.25 c 0
 228.66 -4.25 73.95 -1.17 40 0 c 0
 34.48 0 30 4.48 30 10 c 0
 29.54 31.56 29.28 51.4 29.28 71.3 c 0
 29.28 89.67 29.5 108.1 30 128 c 1
 81.21 228.88 143.8 326.1 204.77 428.59 c 5
 143.39 429.59 62.63 431.22 40 432 c 4
 34.48 432 30 436.48 30 442 c 0
 29.39 470.87 29.04 497.43 29.04 524.08 c 0
EndSplineSet
Validated: 1
EndChar

StartChar: U
Encoding: 85 85 24
Width: 528
VWidth: 0
Flags: MW
AnchorPoint: "gs" 274 580 basechar 0
LayerCount: 5
Fore
SplineSet
27 296.33 m 0,0,1
 27 440 27 440 31 600 c 1,2,3
 78.6244 602.25 78.6244 602.25 118.38 602.25 c 0,4,5
 155.711 602.25 155.711 602.25 221 600 c 0,6,7
 231 600 231 600 231 590 c 0,8,9
 235 402 235 402 235 266 c 0,10,11
 235 203 235 203 244 183.5 c 128,-1,12
 253 164 253 164 275 164 c 0,13,14
 296.602 164 296.602 164 304.801 183.328 c 128,-1,15
 313 202.655 313 202.655 313 266.33 c 0,16,17
 313 440 313 440 317 600 c 1,18,19
 364.625 602.25 364.625 602.25 404.38 602.25 c 0,20,21
 441.711 602.25 441.711 602.25 507 600 c 0,22,23
 517 600 517 600 517 590 c 0,24,25
 521 401.999 521 401.999 521 296.33 c 0,26,27
 521 139.427 521 139.427 464.594 67.4486 c 128,-1,28
 408.187 -4.52973 408.187 -4.52973 298 -10 c 1,29,30
 226.327 -10 226.327 -10 179.002 2.68866 c 128,-1,31
 131.676 15.3773 131.676 15.3773 95.6693 48.6556 c 128,-1,32
 59.6621 81.9338 59.6621 81.9338 43.331 142.553 c 128,-1,33
 27 203.173 27 203.173 27 296.33 c 0,0,1
EndSplineSet
Layer: 2
SplineSet
47 296.333 m 0
 47 389.406 48.348 488.426 50.5393 580.853 c 1
 74.9659 581.854 91.9333 582.25 118.375 582.25 c 0
 148.877 582.25 180.491 581.352 211.199 580.323 c 1
 213.153 486.326 215 362.679 215 266 c 0
 215 179.487 230.219 144 275 144 c 0
 320.419 144 333 180.496 333 266.333 c 4
 333 359.676 334.334 484.21 336.547 580.853 c 5
 360.955 581.854 377.939 582.25 404.375 582.25 c 4
 434.878 582.25 466.488 581.352 497.201 580.323 c 5
 499.154 488.255 501 392.642 501 296.333 c 4
 501 85.6504 425.822 16.6553 297.501 10 c 1
 125.424 10.1797 47 53.6045 47 296.333 c 0
EndSplineSet
Validated: 1
Layer: 3
SplineSet
-3 276.333 m 0
 -3 376.401 -1.49414 480.733 1.0127 581 c 2
 1.94238 618.199 l 1
 39.1123 619.955 l 2
 71.0781 621.465 94.5195 622.25 128.375 622.25 c 0
 162.739 622.25 199.229 621.12 231.689 620 c 0
 258.224 620 281 597.419 281 570.426 c 1
 286.271 569.083 l 1
 287.013 581 l 1
 287.942 618.199 l 1
 325.112 619.955 l 2
 357.078 621.465 380.52 622.25 414.375 622.25 c 0
 448.739 622.25 485.229 621.12 517.689 620 c 0
 544.224 620 567 597.416 567 570.426 c 0
 568.982 477.403 571 376.253 571 276.333 c 0
 571 47.1307 474.566 -61.8436 308.992 -70 c 1
 111.724 -70 -3 7.15657 -3 276.333 c 0
EndSplineSet
Validated: 1
Layer: 4
SplineSet
27 296.33 m 4
 27 396 28.5 500 31 600 c 1
 62.75 601.5 85.13 602.25 118.38 602.25 c 0
 152.34 602.25 187.05 601.17 221 600 c 0
 226.52 600 231 595.52 231 590 c 4
 233 496 235 366 235 266 c 4
 235 177.18 248 164 275 164 c 4
 302 164 313 177.18 313 266.33 c 0
 313 366 314.5 500 317 600 c 1
 348.75 601.5 371.13 602.25 404.38 602.25 c 0
 438.34 602.25 473.05 601.17 507 600 c 0
 512.52 600 517 595.52 517 590 c 4
 519 496 521 396 521 296.33 c 4
 521 79.87 439 -3 298 -10 c 5
 117.94 -10 27 44.82 27 296.33 c 4
EndSplineSet
Validated: 1
EndChar

StartChar: Q
Encoding: 81 81 25
Width: 532
VWidth: 0
Flags: MW
LayerCount: 5
Fore
SplineSet
234.99 310.33 m 0,0,1
 234.99 253.158 234.99 253.158 240.547 225.738 c 128,-1,2
 246.104 198.318 246.104 198.318 253.443 193.159 c 128,-1,3
 260.782 188 260.782 188 277 188 c 0,4,5
 293.017 188 293.017 188 300.007 193.266 c 128,-1,6
 306.997 198.531 306.997 198.531 312.003 225.631 c 128,-1,7
 317.01 252.731 317.01 252.731 317.01 310.33 c 0,8,9
 317.01 362.695 317.01 362.695 311.447 390.105 c 128,-1,10
 305.883 417.516 305.883 417.516 297.563 424.758 c 128,-1,11
 289.244 432 289.244 432 274 432 c 0,12,13
 259.058 432 259.058 432 251.512 424.544 c 128,-1,14
 243.966 417.088 243.966 417.088 239.478 390.319 c 128,-1,15
 234.99 363.55 234.99 363.55 234.99 310.33 c 0,0,1
26 310.33 m 0,16,17
 26 448.831 26 448.831 84.6516 525.267 c 128,-1,18
 143.303 601.703 143.303 601.703 250 607 c 1,19,20
 391.434 607 391.434 607 458.717 539.244 c 128,-1,21
 526 471.488 526 471.488 526 310.33 c 0,22,23
 526 166.859 526 166.859 467.68 93.3874 c 128,-1,24
 409.359 19.9156 409.359 19.9156 301.5 14.08 c 1,25,26
 301.19 12.9777 301.19 12.9777 301.19 12.17 c 0,27,28
 301.19 3.49481 301.19 3.49481 317.762 -2.82259 c 128,-1,29
 334.335 -9.14 334.335 -9.14 362 -9.14 c 0,30,31
 373.29 -9.14 373.29 -9.14 385.18 -8.05 c 2,32,-1
 473 0 l 1,33,-1
 493 -154 l 1,34,35
 423 -167 423 -167 356 -167 c 0,36,37
 277.476 -167 277.476 -167 217.843 -125.492 c 128,-1,38
 158.21 -83.9835 158.21 -83.9835 158.21 -30.29 c 0,39,40
 158.21 0.288691 158.21 0.288691 180.24 27.79 c 1,41,42
 101.437 50.1623 101.437 50.1623 63.7187 116.549 c 128,-1,43
 26 182.935 26 182.935 26 310.33 c 0,16,17
EndSplineSet
Layer: 2
SplineSet
214.987 310.333 m 0
 214.987 193.539 234.097 168 277 168 c 0
 336.395 168 337.013 216.769 337.013 310.333 c 0
 337.013 416.324 319.358 452 274 452 c 0
 227.553 452 214.987 414.594 214.987 310.333 c 0
46 310.333 m 0
 46 490.708 123.265 580.312 250.5 587 c 1
 424.082 586.746 506 522.311 506 310.333 c 0
 506 121.091 428.555 40.9846 300.42 34.0487 c 0
 286.219 33.28 l 1
 284.303 26.6268 281 20 281 12 c 0
 281 -26.4167 328.695 -29.1431 362 -29.1431 c 0
 369.864 -29.1431 378.14 -28.7795 387.011 -27.9663 c 0
 455.647 -21.6746 l 1
 470.688 -137.491 l 1
 433.627 -143.197 389.763 -147 355.999 -147 c 0
 255.93 -147 178.211 -84.008 178.211 -30.2902 c 0
 178.211 -4.71534 200.16 21.6647 214.687 38.7975 c 1
 185.701 47.026 l 0
 94.0265 73.0498 46 140.503 46 310.333 c 0
EndSplineSet
Layer: 3
SplineSet
-4 290.333 m 0
 -4 488.949 91.1387 618.67 258.02 626.951 c 1
 474.783 626.951 576 517.63 576 290.333 c 0
 576 169.434 544.565 77.7168 482.701 20.1406 c 1
 517.706 23.3496 l 1
 547.546 -206.416 l 1
 510.299 -213.328 l 2
 466.787 -221.403 410.685 -227 365.999 -227 c 0
 250.8 -227 128.211 -156.508 128.211 -50.29 c 0
 128.211 -37.916 130.549 -24.6514 133.967 -13.4824 c 1
 37.9434 33.8691 -4 134.417 -4 290.333 c 0
EndSplineSet
Layer: 4
SplineSet
234.99 310.33 m 0
 234.99 191.18 250 188 277 188 c 0
 304 188 317.01 191.18 317.01 310.33 c 0
 317.01 419.13 301 432 274 432 c 0
 247 432 234.99 419.13 234.99 310.33 c 0
26 310.33 m 0
 26 496.58 109 600 250 607 c 5
 432.38 607 526 531.45 526 310.33 c 4
 526 114.56 441.6 21.66 301.5 14.08 c 5
 301.32 13.44 301.19 12.81 301.19 12.17 c 1
 301.19 11.91 l 0
 301.19 1.4 323.25 -9.14 362 -9.14 c 1
 369.25 -9.14 376.89 -8.81 385.18 -8.05 c 2
 473 0 l 5
 493 -154 l 5
 452.33 -161.55 397.35 -167 356 -167 c 4
 250.84 -167 158.21 -101.56 158.21 -30.29 c 4
 158.21 -10.96 165.02 8.79 180.24 27.79 c 1
 77.67 56.91 26 136.78 26 310.33 c 0
EndSplineSet
Validated: 1
EndChar

StartChar: hyphen
Encoding: 45 45 26
Width: 418
VWidth: 0
Flags: MW
LayerCount: 5
Fore
SplineSet
28.88 301.3 m 4,0,1
 28.88 328.993 28.88 328.993 30 374 c 1,2,3
 77.6251 376.25 77.6251 376.25 251.38 376.25 c 0,4,5
 332.712 376.25 332.712 376.25 398 374 c 0,6,7
 408 374 408 374 408 364 c 0,8,9
 409 333 409 333 409 279 c 0,10,11
 409 256 409 256 408 216 c 1,12,13
 360.466 213.75 360.466 213.75 236.62 213.75 c 0,14,15
 163.323 213.75 163.323 213.75 40 218 c 0,16,17
 30 218 30 218 30 228 c 0,18,19
 28.88 274.805 28.88 274.805 28.88 301.3 c 4,0,1
EndSplineSet
Layer: 2
SplineSet
48.876 301.295 m 0
 48.876 316.119 49.0747 332.447 49.5493 354.572 c 1
 102.067 355.688 222.777 356.25 251.375 356.25 c 0
 281.966 356.25 353.187 355.283 388.293 354.292 c 1
 388.822 336.266 389 322.042 389 279 c 0
 389 265.28 388.751 249.413 388.452 235.446 c 1
 347.679 234.579 263.824 233.75 236.625 233.75 c 0
 206.1 233.75 91.5113 236.433 49.778 237.697 c 1
 49.2558 260.344 48.876 280.08 48.876 301.295 c 0
EndSplineSet
Layer: 3
SplineSet
-1.12402 281.295 m 0
 -1.12402 300.733 -0.806641 322.293 0.0117188 355 c 2
 0.942383 392.199 l 1
 38.1123 393.955 l 2
 72.5146 395.58 227.352 396.25 261.375 396.25 c 0
 295.656 396.25 375.277 395.153 408.69 394 c 0
 436.139 394 457.148 370.877 457.979 345.299 c 0
 458.737 321.962 459 308.966 459 259 c 0
 459 238.395 458.524 216.788 457.979 194.999 c 2
 457.057 157.801 l 1
 419.888 156.045 l 2
 395.721 154.902 280.879 153.75 246.625 153.75 c 0
 211.582 153.75 82.6035 156.852 49.3105 158 c 0
 22.1133 158 0.631836 180.905 0.0117188 207.051 c 0
 -0.604492 232.994 -1.12402 256.421 -1.12402 281.295 c 0
EndSplineSet
Layer: 4
SplineSet
28.88 301.3 m 4
 28.88 320.28 29.19 341.45 30 374 c 5
 61.75 375.5 218.13 376.25 251.38 376.25 c 4
 285.34 376.25 364.05 375.17 398 374 c 4
 403.52 374 407.82 369.52 408 364 c 4
 408.75 340.92 409 329 409 279 c 4
 409 259 408.54 237.69 408 216 c 5
 386.24 214.97 269.87 213.75 236.62 213.75 c 4
 202.66 213.75 73.95 216.83 40 218 c 4
 34.48 218 30.13 222.48 30 228 c 4
 29.38 253.91 28.88 276.99 28.88 301.3 c 4
EndSplineSet
Validated: 1
EndChar

StartChar: period
Encoding: 46 46 27
Width: 210
VWidth: 0
Flags: MW
LayerCount: 5
Fore
SplineSet
29.13 86.28 m 128,-1,1
 29.13 120.026 29.13 120.026 30 155 c 1,2,3
 66.4849 156.73 66.4849 156.73 104.03 156.73 c 0,4,5
 139.663 156.73 139.663 156.73 190 155 c 0,6,7
 200 155 200 155 200 145 c 0,8,9
 200.86 101.188 200.86 101.188 200.86 68.28 c 0,10,11
 200.86 34.328 200.86 34.328 200 0 c 1,12,13
 174.03 -1.32 174.03 -1.32 145.68 -1.32 c 0,14,15
 103.46 -1.32 103.46 -1.32 40 2 c 0,16,17
 30 3 30 3 30 12 c 0,18,0
 29.13 52.5949 29.13 52.5949 29.13 86.28 c 128,-1,1
EndSplineSet
Layer: 2
SplineSet
49.127 86.2812 m 0
 49.127 102.515 49.2788 118.854 49.586 135.791 c 1
 69.7701 136.491 85.9088 136.732 104.03 136.732 c 0
 128.843 136.732 154.531 136.15 180.179 135.318 c 1
 180.609 111.596 180.855 90.2299 180.855 68.2832 c 0
 180.855 52.2362 180.708 35.7329 180.412 19.212 c 1
 168.617 18.8423 157.362 18.6846 145.675 18.6846 c 0
 114.843 18.6846 82.2608 19.8975 49.8102 21.5231 c 1
 49.3619 44.6809 49.127 65.0398 49.127 86.2812 c 0
EndSplineSet
Validated: 1
Layer: 3
SplineSet
-0.873047 66.2812 m 0
 -0.873047 88.8711 -0.610352 111.565 0 135.999 c 2
 0.941406 173.198 l 1
 38.6367 174.98 l 2
 66.1328 176.262 89.3691 176.732 114.03 176.732 c 0
 142.189 176.732 171.795 175.978 200.689 174.98 c 0
 227.765 174.98 249.476 152.196 249.992 125.785 c 0
 250.525 98.6279 250.855 73.5566 250.855 48.2832 c 0
 250.855 26.1113 250.563 2.70898 249.992 -20.4658 c 2
 249.061 -58.0645 l 1
 212.032 -59.9482 l 2
 193.163 -60.9082 174.44 -61.3154 155.675 -61.3154 c 0
 120.36 -61.3154 84.9102 -59.8789 47.9121 -57.9453 c 0
 23.6426 -56.6768 0 -36.8643 0 -8.42578 c 0
 -0.538086 16.8633 -0.873047 42.1582 -0.873047 66.2812 c 0
EndSplineSet
Validated: 1
Layer: 4
SplineSet
29.13 86.28 m 0
 29.13 108.55 29.4 130.88 30 155 c 1
 55.94 156.23 80.05 156.73 104.03 156.73 c 0
 131.98 156.73 159.74 156.04 190 155 c 0
 195.52 155 199.89 150.52 200 145 c 0
 200.53 118 200.86 93.2 200.86 68.28 c 0
 200.86 46.16 200.6 23.95 200 0 c 1
 181.9 -0.92 163.87 -1.32 145.68 -1.32 c 0
 111.46 -1.32 76.7 0.08 40 2 c 0
 34.49 2.29 30 6.48 30 12 c 0
 29.44 38.13 29.13 62.16 29.13 86.28 c 0
EndSplineSet
Validated: 1
EndChar

StartChar: three
Encoding: 51 51 29
Width: 436
VWidth: 0
Flags: MW
LayerCount: 5
Fore
SplineSet
24 590 m 1,0,1
 91 607 91 607 186 607 c 0,2,3
 296.446 607 296.446 607 351.223 568.607 c 128,-1,4
 406 530.214 406 530.214 406 433.33 c 0,5,6
 406 354.512 406 354.512 348.1 304.01 c 1,7,8
 389.996 281.147 389.996 281.147 412.998 249.17 c 128,-1,9
 436 217.194 436 217.194 436 181.33 c 0,10,11
 436 134.866 436 134.866 423.265 100.904 c 128,-1,12
 410.53 66.9419 410.53 66.9419 389.767 46.8251 c 128,-1,13
 369.004 26.7084 369.004 26.7084 336.433 14.8305 c 128,-1,14
 303.861 2.95262 303.861 2.95262 270.535 -1.0237 c 128,-1,15
 237.209 -5.00001 237.209 -5.00001 193 -5.00002 c 0,16,17
 113 -5 113 -5 25 9 c 1,18,-1
 43 162 l 1,19,-1
 184 162 l 2,20,21
 211.423 162 211.423 162 223.216 170.861 c 128,-1,22
 235.01 179.721 235.01 179.721 235.01 199.34 c 0,23,24
 235.01 216.743 235.01 216.743 223.234 226.372 c 128,-1,25
 211.457 236 211.457 236 191 236 c 2,26,-1
 87 236 l 1,27,-1
 87 375 l 1,28,-1
 172 375 l 2,29,30
 229.01 375 229.01 375 229.01 411.34 c 0,31,32
 229.01 448 229.01 448 175 448 c 2,33,-1
 42 448 l 1,34,-1
 24 590 l 1,0,1
EndSplineSet
Layer: 2
SplineSet
46.0996 574.574 m 1
 91.5252 584.062 138.945 587 186 587 c 0
 320.508 587 386 554.861 386 433.333 c 0
 386 370.21 352.211 332.138 313.319 300.212 c 5
 368.111 273.309 416 232.047 416 181.333 c 0
 416 38.0585 326.729 15 193 15 c 0
 132.798 15 98.2503 18.0901 47.1587 25.7955 c 1
 61.1158 142.066 l 1
 183.814 141.95 l 0
 225.812 141.911 255.013 160.555 255.013 199.34 c 0
 255.013 236.042 224.361 256.506 190.74 256.383 c 0
 107 256.074 l 1
 107 354.988 l 1
 171.814 354.95 l 0
 202.878 354.933 249.013 365.295 249.013 411.34 c 0
 249.013 456.528 208.653 468.736 174.606 468.382 c 0
 59.6171 467.185 l 1
 46.0996 574.574 l 1
EndSplineSet
Validated: 33
Layer: 3
SplineSet
-10.1074 600.124 m 1
 24.9248 608.964 l 2
 81.6172 623.271 140.11 627 196 627 c 0
 341.214 627 456 577.62 456 413.333 c 0
 456 367.128 441.758 325.038 418.418 291.546 c 1
 460.33 256.999 486 212.613 486 161.333 c 0
 486 -30.2266 340.728 -65 203 -65 c 0
 133.535 -65 93.2529 -60.7715 28.7139 -50.5029 c 2
 -9.30371 -44.4541 l 1
 17.8936 182.116 l 1
 57 182.079 l 1
 57 387.05 l 1
 16.7656 386.631 l 1
 -10.1074 600.124 l 1
EndSplineSet
Layer: 4
SplineSet
24 590 m 1
 75.93 603.1 132 607 186 607 c 0
 324 607 406 569 406 433.33 c 0
 406 380.01 384.73 335.96 348.1 304.01 c 1
 403.77 273.63 436 229.31 436 181.33 c 0
 436 22.06 328 -5 193 -5 c 0
 125 -5 88.94 -1.17 25 9 c 1
 43 162 l 1
 184 162 l 2
 221 162 235.01 173.51 235.01 199.34 c 0
 235.01 222.77 218 236 191 236 c 2
 87 236 l 1
 87 375 l 1
 172 375 l 2
 203 375 229.01 384.11 229.01 411.34 c 0
 229.01 439.84 207 448 175 448 c 2
 42 448 l 1
 24 590 l 1
EndSplineSet
Validated: 1
EndChar

StartChar: eight
Encoding: 56 56 30
Width: 524
VWidth: 0
Flags: MW
LayerCount: 5
Fore
SplineSet
20 173 m 4,0,1
 20 209.873 20 209.873 43.5011 245.747 c 128,-1,2
 67.0022 281.621 67.0022 281.621 108 304.02 c 1,3,4
 50 354.505 50 354.505 50 433 c 0,5,6
 50 531 50 531 105 569 c 128,-1,7
 160 607 160 607 272 607 c 128,-1,8
 384 607 384 607 439 569 c 128,-1,9
 494 531 494 531 494 433 c 0,10,11
 494 354.505 494 354.505 436 304.02 c 1,12,13
 476.998 281.621 476.998 281.621 500.499 245.747 c 128,-1,14
 524 209.873 524 209.873 524 173 c 0,15,16
 524 125 524 125 510.5 91.5 c 128,-1,17
 497 58 497 58 476.5 38.5 c 128,-1,18
 456 19 456 19 421 8.5 c 128,-1,19
 386 -2 386 -2 353 -5 c 128,-1,20
 320 -8 320 -8 272.5 -8 c 128,-1,21
 225 -8 225 -8 192 -5 c 128,-1,22
 159 -2 159 -2 124 8.5 c 128,-1,23
 89 19 89 19 68 38.5 c 128,-1,24
 47 58 47 58 33.5 91.5 c 128,-1,25
 20 125 20 125 20 173 c 4,0,1
218 189 m 0,26,27
 218 146 218 146 272 146 c 128,-1,28
 326 146 326 146 326 189 c 0,29,30
 326 209 326 209 311.5 219.5 c 128,-1,31
 297 230 297 230 272.5 230 c 128,-1,32
 248 230 248 230 233 219.5 c 128,-1,33
 218 209 218 209 218 189 c 0,26,27
225 420 m 0,34,35
 225 402.774 225 402.774 238.793 392.112 c 128,-1,36
 252.587 381.45 252.587 381.45 272.5 381.45 c 128,-1,37
 292.303 381.45 292.303 381.45 305.652 392.075 c 128,-1,38
 319 402.7 319 402.7 319 420 c 0,39,40
 319 439 319 439 306 449.5 c 128,-1,41
 293 460 293 460 272 460 c 128,-1,42
 251 460 251 460 238 449.5 c 128,-1,43
 225 439 225 439 225 420 c 0,34,35
EndSplineSet
Layer: 2
SplineSet
40 173 m 4
 40 211.403 65.7555 258.149 117.591 286.465 c 0
 142.806 300.239 l 1
 121.134 319.103 l 0
 88.5788 347.44 70 385.485 70 433 c 0
 70 555.944 136.247 587 272 587 c 0
 407.753 587 474 555.937 474 433 c 0
 474 385.481 455.419 347.439 422.866 319.103 c 0
 401.194 300.239 l 1
 426.409 286.465 l 0
 478.245 258.149 504 211.403 504 173 c 4
 504 26.1631 412.227 12 272.5 12 c 0
 132.706 12 40 26.2734 40 173 c 4
198 189 m 0
 198 150.341 228.075 126 272 126 c 0
 315.925 126 346 150.339 346 189 c 0
 346 231.19 308.696 250 272.5 250 c 0
 236.662 250 198 231.697 198 189 c 0
205 420 m 0
 205 381.558 240.496 361.452 272.5 361.452 c 0
 305.086 361.452 339 381.774 339 420 c 0
 339 459.992 305.545 480 272 480 c 0
 238.455 480 205 459.992 205 420 c 0
EndSplineSet
Validated: 1
Layer: 3
SplineSet
-10 153 m 0
 -10 204.899 17.2871 257.803 57.6299 291.45 c 1
 32.1445 327.817 20 367.284 20 413 c 0
 20 579.126 126.275 627 282 627 c 0
 427.723 627 544 579.144 544 413 c 0
 544 366.911 529.798 325.049 506.348 291.502 c 1
 548.12 257.069 574 204.352 574 153 c 0
 574 -43.6934 423.462 -68 282.5 -68 c 0
 141.67 -68 -10 -43.916 -10 153 c 0
EndSplineSet
Validated: 1
Layer: 4
SplineSet
20 173 m 4
 20 221.06 52.21 273.54 108 304.02 c 1
 71.34 335.93 50 379.88 50 433 c 0
 50 570.22 133 607 272 607 c 0
 411 607 494 570.22 494 433 c 0
 494 379.88 472.66 335.93 436 304.02 c 1
 491.79 273.54 524 221.06 524 173 c 4
 524 9.64 412.58 -8 272.5 -8 c 0
 132.42 -8 20 9.64 20 173 c 4
218 189 m 0
 218 162.74 235 146 272 146 c 0
 309 146 326 162.73 326 189 c 0
 326 216.1 303.81 230 272.5 230 c 0
 241.19 230 218 216.12 218 189 c 0
225 420 m 0
 225 396.42 246.74 381.45 272.5 381.45 c 0
 298.26 381.45 319 396.42 319 420 c 0
 319 446.35 299 460 272 460 c 0
 245 460 225 446.35 225 420 c 0
EndSplineSet
Validated: 1
EndChar

StartChar: one
Encoding: 49 49 31
Width: 288
VWidth: 0
Flags: MW
LayerCount: 5
Fore
SplineSet
20 441 m 1,0,1
 20 514 20 514 23 582 c 1,2,3
 98.2141 598.453 98.2141 598.453 151.38 603.25 c 1,4,5
 186.557 603.25 186.557 603.25 248 601 c 0,6,7
 258 601 258 601 258 591 c 0,8,9
 262 403 262 403 262 300 c 0,10,11
 262 160 262 160 258 0 c 1,12,13
 210.375 -2.25 210.375 -2.25 170.62 -2.25 c 0,14,15
 133.288 -2.25 133.288 -2.25 68 0 c 0,16,17
 58 0 58 0 58 10 c 0,18,19
 54 198 54 198 54 300 c 0,20,21
 54 363.394 54 363.394 55.12 442.3 c 1,22,-1
 20 441 l 1,0,1
EndSplineSet
Layer: 2
SplineSet
40.0688 461.757 m 1
 40.3038 496.843 41.0594 531.933 42.3394 565.607 c 1
 76.3399 572.42 125.356 580.688 152.282 583.25 c 1
 182.513 583.229 209.996 582.358 238.201 581.344 c 1
 240.152 489.299 242 396.618 242 300 c 0
 242 206.632 240.65 111.454 238.461 19.1467 c 1
 214.034 18.1461 197.067 17.75 170.625 17.75 c 0
 140.122 17.75 108.512 18.6471 77.7988 19.6774 c 1
 75.8464 111.678 74 203.379 74 300 c 0
 74 351.33 74.395 390.62 75.1201 442.018 c 0
 75.417 463.065 l 1
 40.0688 461.757 l 1
EndSplineSet
Validated: 1
Layer: 3
SplineSet
-10 379.492 m 1
 -10 421 l 2
 -10 466.592 -8.99316 518.036 -6.96094 563.776 c 2
 -5.59473 594.503 l 1
 24.4521 601.076 l 2
 58.3301 608.486 120.89 619.76 157.781 623.088 c 2
 159.574 623.25 l 1
 161.375 623.25 l 2
 196.193 623.25 227.491 622.145 259.465 620.973 c 0
 284.751 620.047 308 599.425 308 571.426 c 0
 309.979 478.397 312 380.251 312 280 c 0
 312 179.993 310.466 78.4697 308 -20.3857 c 2
 307.058 -58.1992 l 1
 269.888 -59.9551 l 2
 237.922 -61.4658 214.48 -62.25 180.625 -62.25 c 0
 146.26 -62.25 109.772 -61.1191 77.3105 -60 c 0
 50.7764 -60 28 -37.4189 28 -10.4258 c 0
 26.0205 82.5938 24 179.749 24 280 c 0
 24 316.23 24.2256 348.962 24.583 380.772 c 1
 -10 379.492 l 1
EndSplineSet
Layer: 4
SplineSet
20 441 m 1
 20 486 21 537 23 582 c 1
 55 589 118.13 600.25 151.38 603.25 c 1
 185.34 603.25 216.05 602.17 248 601 c 0
 253.52 600.8 258 596.52 258 591 c 0
 260 497 262 400 262 300 c 0
 262 200 260.5 100 258 0 c 1
 226.25 -1.5 203.87 -2.25 170.62 -2.25 c 0
 136.66 -2.25 101.95 -1.17 68 0 c 0
 62.48 0 58 4.48 58 10 c 0
 56 104 54 200 54 300 c 0
 54 351.43 54.39 390.87 55.12 442.3 c 1
 20 441 l 1
EndSplineSet
Validated: 1
EndChar

StartChar: zero
Encoding: 48 48 32
Width: 530
VWidth: 0
Flags: MW
LayerCount: 5
Fore
SplineSet
26 300.33 m 0,0,1
 26 445.352 26 445.352 85.2717 523.509 c 128,-1,2
 144.543 601.665 144.543 601.665 252 607 c 1,3,4
 397.716 607 397.716 607 460.858 538.751 c 128,-1,5
 524 470.502 524 470.502 524 300.33 c 0,6,7
 524 154.615 524 154.615 466.502 76.9636 c 128,-1,8
 409.003 -0.687807 409.003 -0.687807 302 -6 c 1,9,10
 204.153 -6 204.153 -6 145.185 22.1654 c 128,-1,11
 86.2167 50.3308 86.2167 50.3308 56.1083 117.825 c 128,-1,12
 26 185.318 26 185.318 26 300.33 c 0,0,1
232.99 300.33 m 0,13,14
 232.99 242.813 232.99 242.813 238.301 213.152 c 128,-1,15
 243.613 183.49 243.613 183.49 251.689 175.745 c 128,-1,16
 259.764 168 259.764 168 275 168 c 128,-1,17
 290.236 168 290.236 168 298.311 175.745 c 128,-1,18
 306.387 183.49 306.387 183.49 311.699 213.152 c 128,-1,19
 317.01 242.813 317.01 242.813 317.01 300.33 c 0,20,21
 317.01 357.118 317.01 357.118 310.885 387.045 c 128,-1,22
 304.76 416.971 304.76 416.971 296.125 424.485 c 128,-1,23
 287.489 432 287.489 432 272 432 c 0,24,25
 256.976 432 256.976 432 249.491 424.167 c 128,-1,26
 242.007 416.333 242.007 416.333 237.499 387.363 c 128,-1,27
 232.99 358.394 232.99 358.394 232.99 300.33 c 0,13,14
EndSplineSet
Layer: 2
SplineSet
46 300.333 m 0
 46 490.923 125.388 580.326 252.501 587 c 1
 433.345 586.757 504 523.663 504 300.333 c 0
 504 109.101 428.356 20.6577 301.499 14 c 1
 120.647 14.2449 46 77.0528 46 300.333 c 0
212.987 300.333 m 0
 212.987 185.325 228.581 148 275 148 c 0
 321.417 148 337.013 185.326 337.013 300.333 c 0
 337.013 416.273 317.513 452 272 452 c 0
 224.915 452 212.987 413.828 212.987 300.333 c 0
EndSplineSet
Validated: 1
Layer: 3
SplineSet
-4 280.333 m 0
 -4 488.505 82.9049 618.163 260.02 626.951 c 1
 483.2 626.951 574 516.101 574 280.333 c 0
 574 72.793 481.625 -57.6289 313.983 -65.9512 c 2
 312.992 -66 l 1
 312 -66 l 2
 103.011 -66 -4 32.8262 -4 280.333 c 0
EndSplineSet
Layer: 4
SplineSet
26 300.33 m 0
 26 496.58 111 600 252 607 c 1
 442.38 607 524 531.45 524 300.33 c 0
 524 103.87 443 1 302 -6 c 1
 111.94 -6 26 68.82 26 300.33 c 0
232.99 300.33 m 0
 232.99 181.18 248 168 275 168 c 0
 302 168 317.01 181.18 317.01 300.33 c 0
 317.01 419.13 299 432 272 432 c 0
 245 432 232.99 419.13 232.99 300.33 c 0
EndSplineSet
Validated: 1
EndChar

StartChar: two
Encoding: 50 50 33
Width: 464
VWidth: 0
Flags: MW
LayerCount: 5
Fore
SplineSet
40 165.33 m 0,0,1
 40 194.061 40 194.061 46.3378 219.57 c 128,-1,2
 52.6756 245.078 52.6756 245.078 61.6194 263.689 c 128,-1,3
 70.5632 282.3 70.5632 282.3 86.4439 299.927 c 128,-1,4
 102.325 317.554 102.325 317.554 115 328.478 c 128,-1,5
 127.675 339.402 127.675 339.402 148.314 351.717 c 128,-1,6
 168.952 364.032 168.952 364.032 180.574 369.838 c 128,-1,7
 192.196 375.644 192.196 375.644 212.38 385.08 c 0,8,9
 229.675 393.164 229.675 393.164 237.524 397.127 c 128,-1,10
 245.373 401.09 245.373 401.09 255.691 407.409 c 128,-1,11
 266.008 413.727 266.008 413.727 270.009 419.36 c 128,-1,12
 274.01 424.993 274.01 424.993 274.01 431.34 c 0,13,14
 274.01 444.747 274.01 444.747 258.018 452.064 c 128,-1,15
 242.027 459.38 242.027 459.38 216.81 459.38 c 0,16,17
 154.515 459.38 154.515 459.38 76.5 418.8 c 1,18,-1
 54 585 l 1,19,20
 145 607 145 607 207 607 c 0,21,22
 240.654 607 240.654 607 263.947 605.928 c 128,-1,23
 287.239 604.856 287.239 604.856 314.738 600.896 c 128,-1,24
 342.238 596.936 342.238 596.936 360.506 589.741 c 128,-1,25
 378.775 582.545 378.775 582.545 397.147 569.72 c 128,-1,26
 415.518 556.895 415.518 556.895 426.139 538.71 c 128,-1,27
 436.76 520.525 436.76 520.525 443.38 493.968 c 128,-1,28
 450 467.41 450 467.41 450 433.33 c 0,29,30
 450 400.863 450 400.863 440.449 373.042 c 128,-1,31
 430.897 345.22 430.897 345.22 418.362 327.229 c 128,-1,32
 405.827 309.238 405.827 309.238 383.85 291.645 c 128,-1,33
 361.873 274.051 361.873 274.051 347.099 265.344 c 128,-1,34
 332.325 256.638 332.325 256.638 308.22 244.08 c 0,35,36
 282.914 230.901 282.914 230.901 272.672 224.994 c 128,-1,37
 262.429 219.088 262.429 219.088 251.715 208.426 c 128,-1,38
 241 197.764 241 197.764 241 187 c 2,39,-1
 241 170.25 l 1,40,-1
 251.38 170.25 l 2,41,42
 368.711 170.25 368.711 170.25 434 168 c 0,43,44
 444 168 444 168 444 158 c 0,45,46
 444.91 107.631 444.91 107.631 444.91 71.91 c 0,47,48
 444.91 34.6552 444.91 34.6552 444 -2 c 1,49,50
 396.375 -4.25 396.375 -4.25 266.62 -4.25 c 0,51,52
 177.323 -4.25 177.323 -4.25 54 0 c 0,53,54
 44 0 44 0 44 10 c 0,55,56
 40 101.386 40 101.386 40 165.33 c 0,0,1
EndSplineSet
Layer: 2
SplineSet
59.999 165.333 m 0
 59.999 362.273 294.012 340.863 294.012 431.34 c 0
 294.012 471.807 245.994 479.383 216.813 479.383 c 0
 166.567 479.383 121.873 462.662 92.5806 449.093 c 1
 76.2515 569.716 l 1
 118.891 579.533 160.024 587 206.999 587 c 0
 345.056 587 429.999 578.525 429.999 433.333 c 0
 429.999 264.832 220.987 282.987 220.987 187 c 0
 220.987 150.186 l 5
 230.614 150.21 242.042 150.25 251.375 150.25 c 4
 282.345 150.25 382.954 149.304 424.168 148.278 c 1
 424.648 119.905 424.908 97.5731 424.908 71.9074 c 0
 424.908 54.1032 424.748 35.6638 424.417 17.3719 c 1
 379.049 16.2761 294.929 15.75 266.625 15.75 c 0
 235.82 15.75 107.894 18.427 63.596 19.7096 c 1
 61.1585 75.9507 59.999 108.132 59.999 165.333 c 0
EndSplineSet
Validated: 1
Layer: 3
SplineSet
9.99902 145.333 m 0
 9.99902 289.981 113.641 359.37 183.915 394.321 c 1
 150.619 386.6 124.475 373.468 104.96 363.315 c 2
 54.4922 337.059 l 1
 19.5195 595.401 l 1
 54.6025 603.881 l 2
 102.527 615.463 155.921 627 216.999 627 c 0
 352.113 627 499.999 609.749 499.999 413.333 c 0
 499.999 287.18 408.883 223.181 347.146 189.629 c 1
 387.181 189.197 426.851 188.615 444.689 188 c 0
 471.723 188 493.507 165.232 493.987 138.724 c 0
 494.531 108.708 494.908 80.5127 494.908 51.9072 c 0
 494.908 27.6641 494.642 3.13379 493.987 -23 c 2
 493.057 -60.1992 l 1
 455.888 -61.9551 l 2
 421.869 -63.5625 310.589 -64.25 276.625 -64.25 c 0
 241.362 -64.25 97.3926 -61.166 62.7559 -59.9893 c 0
 33.8613 -59.0469 15.1064 -36.1748 14.0381 -11.7471 c 0
 11.373 49.2168 9.99902 84.3867 9.99902 145.333 c 0
EndSplineSet
Validated: 1
Layer: 4
SplineSet
40 165.33 m 0
 40 303.9 143.05 352.67 212.38 385.08 c 5
 247.53 401.51 274.01 413.74 274.01 431.34 c 0
 274.01 449.84 249.07 459.38 216.81 459.38 c 0
 156.5 459.38 105.03 433.64 76.5 418.8 c 1
 54 585 l 1
 101.23 596.41 151 607 207 607 c 0
 344 607 450 595.48 450 433.33 c 0
 450 320.2 369.32 275.91 308.22 244.08 c 1
 270.97 224.68 241 209.91 241 187 c 0
 241 170.25 l 1
 245.13 170.25 248.63 170.25 251.38 170.25 c 0
 285.34 170.25 400.05 169.17 434 168 c 0
 439.52 168 443.9 163.52 444 158 c 0
 444.54 128.11 444.91 100.17 444.91 71.91 c 0
 444.91 47.96 444.64 23.78 444 -2 c 1
 412.25 -3.5 299.87 -4.25 266.62 -4.25 c 0
 232.66 -4.25 87.95 -1.17 54 0 c 0
 48.48 0 44.24 4.49 44 10 c 0
 41.33 71 40 105 40 165.33 c 0
EndSplineSet
Validated: 1
EndChar

StartChar: five
Encoding: 53 53 34
Width: 456
VWidth: 0
Flags: MW
LayerCount: 5
Fore
SplineSet
40 9 m 1,0,-1
 58 162 l 1,1,-1
 204 162 l 2,2,3
 255.01 162 255.01 162 255.01 202.34 c 0,4,5
 255.01 220.075 255.01 220.075 243.041 231.038 c 128,-1,6
 231.073 242 231.073 242 211 242 c 2,7,-1
 54 242 l 2,8,9
 44 242 44 242 44 248 c 0,10,11
 42 277 42 277 42 306 c 0,12,13
 42 440 42 440 46 600 c 1,14,15
 93.6248 602.25 93.6248 602.25 237.38 602.25 c 0,16,17
 354.711 602.25 354.711 602.25 420 600 c 0,18,19
 430 600 430 600 430 590 c 0,20,21
 430.91 538.72 430.91 538.72 430.91 503.56 c 0,22,23
 430.91 466.655 430.91 466.655 430 430 c 1,24,25
 386.676 427.958 386.676 427.958 226 427.75 c 1,26,-1
 226 376.07 l 1,27,28
 238.041 376.86 238.041 376.86 249.97 376.86 c 0,29,30
 352.39 376.86 352.39 376.86 404.195 321.692 c 128,-1,31
 456 266.524 456 266.524 456 183.33 c 0,32,33
 456 136.856 456 136.856 443.298 102.697 c 128,-1,34
 430.595 68.538 430.595 68.538 409.734 48.1205 c 128,-1,35
 388.874 27.703 388.874 27.703 356.466 15.5351 c 128,-1,36
 324.058 3.36732 324.058 3.36732 290.502 -0.816346 c 128,-1,37
 256.947 -5.00001 256.947 -5.00001 213 -5.00002 c 0,38,39
 128 -5 128 -5 40 9 c 1,0,-1
EndSplineSet
Layer: 2
SplineSet
62 306 m 4
 62 399.334 63.3428 488.846 65.5322 580.607 c 5
 113.413 581.712 208.931 582.25 237.375 582.25 c 4
 268.343 582.25 368.958 581.305 410.165 580.278 c 5
 410.618 553.318 410.908 528.649 410.908 503.565 c 4
 410.908 485.907 410.746 467.473 410.418 449.411 c 5
 360.91 448.329 259.072 447.768 226 447.73 c 4
 206 447.73 l 5
 206 354.721 l 5
 227.3 356.108 l 4
 235.115 356.617 242.671 356.864 249.969 356.864 c 4
 383.626 356.864 436 276.496 436 183.333 c 4
 436 39.8896 346.412 15 213 15 c 4
 152.681 15 114.955 17.999 62.1611 25.8174 c 5
 76.1162 142.067 l 5
 203.814 141.95 l 4
 247.801 141.91 275.013 164.853 275.013 202.34 c 4
 275.013 237.655 246.496 262.47 210.765 262.383 c 4
 63.1592 262.022 l 5
 62.2764 278.011 62 289.496 62 306 c 4
EndSplineSet
Layer: 3
SplineSet
5.69629 -44.4541 m 1
 32.8936 182.09 l 1
 61.3564 182.09 l 2
 53.9053 182.646 16.667 187.766 14.0938 225.26 c 0
 12.5996 247.026 12 264.224 12 286 c 0
 12 398.432 14.1475 506.415 16.9424 618.199 c 1
 66.96 620.562 191.811 622.25 247.375 622.25 c 0
 281.61 622.25 396.907 621.166 430.689 620 c 0
 457.713 620 479.522 597.24 479.994 570.711 c 0
 480.536 540.166 480.908 512.018 480.908 483.565 c 0
 480.908 448.016 479.965 408.086 479.057 371.801 c 1
 446.896 370.188 430.478 369.423 388.055 368.848 c 1
 468.973 327.532 506 246.482 506 163.333 c 0
 506 -27.8828 361.36 -65 223 -65 c 0
 153.536 -65 108.661 -60.8369 43.7139 -50.5029 c 2
 5.69629 -44.4541 l 1
EndSplineSet
Layer: 4
SplineSet
40 9 m 1
 58 162 l 1
 204 162 l 2
 241 162 255.01 176.51 255.01 202.34 c 0
 255.01 225.77 238 242 211 242 c 2
 54 242 l 2
 48 242 44.38 242.49 44 248 c 0
 42.55 269.11 42 284.91 42 306 c 0
 42 406 43.5 500 46 600 c 1
 77.75 601.5 204.13 602.25 237.38 602.25 c 0
 271.34 602.25 386.05 601.17 420 600 c 0
 425.52 600 429.9 595.52 430 590 c 0
 430.54 559.57 430.91 531.66 430.91 503.56 c 0
 430.91 479.74 430.64 455.78 430 430 c 1
 399.23 428.55 264.54 427.8 226 427.75 c 1
 226 376.07 l 1
 234.23 376.61 242.22 376.86 249.97 376.86 c 0
 394.63 376.86 456 285.63 456 183.33 c 0
 456 24.06 348 -5 213 -5 c 0
 145 -5 103.94 -1.17 40 9 c 1
EndSplineSet
Validated: 1
EndChar

StartChar: six
Encoding: 54 54 35
Width: 500
VWidth: 0
Flags: MW
LayerCount: 5
Fore
SplineSet
232.57 208.18 m 0,0,1
 232.57 188.431 232.57 188.431 244.158 174.285 c 128,-1,2
 255.746 160.14 255.746 160.14 277.78 160.14 c 0,3,4
 294.085 160.14 294.085 160.14 304.047 173.395 c 128,-1,5
 314.01 186.65 314.01 186.65 314.01 208.34 c 0,6,7
 314.01 227.118 314.01 227.118 301.967 241.249 c 128,-1,8
 289.925 255.38 289.925 255.38 269.81 255.38 c 0,9,10
 252.885 255.38 252.885 255.38 242.727 241.238 c 128,-1,11
 232.57 227.095 232.57 227.095 232.57 208.18 c 0,0,1
26 300.33 m 0,12,13
 26 386.466 26 386.466 44.6047 447.11 c 128,-1,14
 63.2094 507.755 63.2094 507.755 99.3172 542.187 c 128,-1,15
 135.425 576.62 135.425 576.62 182.073 591.81 c 128,-1,16
 228.722 607 228.722 607 291 607 c 0,17,18
 363 607 363 607 468 590 c 1,19,-1
 447 432 l 1,20,-1
 271 432 l 2,21,22
 255.277 432 255.277 432 245.502 422.758 c 128,-1,23
 235.727 413.516 235.727 413.516 230.54 385.34 c 1,24,25
 262.989 392 262.989 392 304 392 c 0,26,27
 398.297 392 398.297 392 446.148 340.678 c 128,-1,28
 494 289.357 494 289.357 494 210.33 c 0,29,30
 494 101.533 494 101.533 441.499 47.7666 c 128,-1,31
 388.997 -6 388.997 -6 280 -6 c 0,32,33
 235.764 -6 235.764 -6 200.284 1.66016 c 128,-1,34
 164.805 9.32033 164.805 9.32033 131.284 30.0186 c 128,-1,35
 97.7618 50.7169 97.7618 50.7169 75.3564 84.297 c 128,-1,36
 52.9511 117.877 52.9511 117.877 39.4756 172.66 c 128,-1,37
 26 227.443 26 227.443 26 300.33 c 0,12,13
EndSplineSet
Layer: 2
SplineSet
212.568 208.181 m 0
 212.568 177.047 232.999 140.139 277.783 140.139 c 0
 314.504 140.139 334.013 173.847 334.013 208.34 c 0
 334.013 239.978 311.312 275.383 269.814 275.383 c 0
 230.046 275.383 212.568 236.869 212.568 208.181 c 0
46 300.333 m 0
 46 526.643 141.352 587 291 587 c 0
 339.794 587 390.387 581.685 445.553 573.286 c 1
 429.154 452.263 l 1
 271.186 452.383 l 0
 243.617 452.402 219.498 435.838 210.868 388.958 c 0
 205.497 359.78 l 1
 234.559 365.745 l 0
 249.209 368.752 290.049 372 304 372 c 0
 425.507 372 474 299.356 474 210.333 c 0
 474 75.14 416.588 14 280 14 c 0
 150.626 14 46 59.7096 46 300.333 c 0
EndSplineSet
Validated: 33
Layer: 3
SplineSet
-4 280.333 m 0
 -4 533.347 113.051 627 301 627 c 0
 360.203 627 419.547 619.975 484.386 609.487 c 2
 522.873 603.263 l 1
 491.567 372.224 l 1
 455.84 372.224 l 1
 516.842 329.82 544 261.718 544 190.333 c 0
 544 28.1172 455.833 -66 290 -66 c 0
 134.47 -66 -4 11.3301 -4 280.333 c 0
EndSplineSet
Validated: 1
Layer: 4
SplineSet
232.57 208.18 m 0
 232.57 184.23 246.45 160.14 277.78 160.14 c 0
 299.52 160.14 314.01 179.42 314.01 208.34 c 0
 314.01 231.77 298 255.38 269.81 255.38 c 0
 246.13 255.38 232.57 231.85 232.57 208.18 c 0
26 300.33 m 0
 26 535.48 132 607 291 607 c 0
 347 607 404.16 600.33 468 590 c 1
 447 432 l 5
 271 432 l 6
 253 432 238.08 426.3 230.54 385.34 c 1
 248.08 388.94 287.98 392 304 392 c 0
 436.6 392 494 308.33 494 210.33 c 0
 494 66.21 426.25 -6 280 -6 c 0
 142 -6 26 50.31 26 300.33 c 0
EndSplineSet
Validated: 1
EndChar

StartChar: seven
Encoding: 55 55 36
Width: 450
VWidth: 0
Flags: MW
LayerCount: 5
Fore
SplineSet
13.04 524.07 m 0,0,1
 13.04 561.815 13.04 561.815 14 600 c 1,2,3
 61.6254 602.25 61.6254 602.25 273.38 602.25 c 0,4,5
 382.711 602.25 382.711 602.25 448 600 c 0,6,7
 458 600 458 600 458 590 c 0,8,9
 458.7 565.209 458.7 565.209 458.7 541.57 c 0,10,11
 458.7 518.202 458.7 518.202 458 490 c 0,12,13
 457 487 457 487 428 434.5 c 128,-1,14
 399 382 399 382 376.5 339 c 128,-1,15
 354 296 354 296 333 241.5 c 128,-1,16
 312 187 312 187 312 158 c 2,17,-1
 311 83 l 2,18,19
 311 36 311 36 312 0 c 1,20,21
 262.926 -2.32 262.926 -2.32 212.99 -2.32 c 0,22,23
 165.065 -2.32 165.065 -2.32 98 0 c 0,24,25
 88 0 88 0 88 10 c 2,26,-1
 88 125 l 1,27,28
 109.091 198.616 109.091 198.616 145.604 269.647 c 128,-1,29
 182.117 340.678 182.117 340.678 237.63 428.36 c 1,30,31
 64.8297 430.584 64.8297 430.584 24 432 c 0,32,33
 14 432 14 432 14 442 c 0,34,35
 13.04 487.435 13.04 487.435 13.04 524.07 c 0,0,1
EndSplineSet
Layer: 2
SplineSet
33.035 524.072 m 0
 33.035 542.524 33.2175 561.51 33.5751 580.537 c 1
 92.925 581.682 244.405 582.25 273.375 582.25 c 0
 304.19 582.25 399.008 581.288 438.246 580.279 c 1
 438.567 566.534 438.705 554.288 438.705 541.567 c 0
 438.705 526.609 438.475 510.526 438.119 495.142 c 1
 412.173 446.546 292 251.404 292 158.134 c 1
 291 83.1339 l 1
 291 64.8574 291.112 41.7384 291.545 19.147 c 1
 264.412 18.1201 238.697 17.6827 212.987 17.6827 c 0
 179.055 17.6827 143.047 18.5172 108 19.6737 c 1
 108 122.17 l 1
 138.085 225.498 192.456 319.628 254.525 417.658 c 0
 273.67 447.896 l 1
 237.884 448.355 l 0
 170.449 449.222 69.7798 450.83 33.8052 451.728 c 1
 33.3084 477.119 33.035 500.434 33.035 524.072 c 0
EndSplineSet
Validated: 1
Layer: 3
SplineSet
-16.9648 504.072 m 0
 -16.9648 540.396 -15.9854 581.088 -15.0576 618.199 c 1
 37.1123 620.664 224.509 622.25 283.375 622.25 c 0
 317.609 622.25 425.002 621.163 458.705 620 c 0
 486.038 620 507.248 596.979 507.983 571.138 c 0
 508.478 553.779 508.705 537.637 508.705 521.567 c 0
 508.705 501.764 508.279 480.666 507.761 459.913 c 1
 484.536 414.407 362 203.039 362 137.732 c 2
 361 62.7324 l 2
 361 30.2402 362.046 -21.1035 363.072 -58.1045 c 1
 317.859 -60.2402 267.483 -62.3174 222.987 -62.3174 c 0
 185.248 -62.3174 146.626 -61.3564 107.311 -60 c 0
 80.8154 -60 58 -37.6729 58 -10 c 2
 58 110.617 l 1
 84.7139 203.85 128.065 288.771 176.457 369.353 c 1
 112.589 370.315 50.9619 371.392 33.3105 372 c 0
 6.77734 372 -16 394.58 -16 421.574 c 0
 -16.5977 449.647 -16.9648 477.351 -16.9648 504.072 c 0
EndSplineSet
Validated: 1
Layer: 4
SplineSet
13.04 524.07 m 0
 13.04 548.67 13.33 573.35 14 600 c 1
 45.75 601.5 240.13 602.25 273.38 602.25 c 0
 307.34 602.25 414.05 601.17 448 600 c 0
 453.52 600 457.84 595.52 458 590 c 0
 458.48 573 458.7 557.26 458.7 541.57 c 0
 458.7 524.83 458.45 508.13 458 490 c 1
 437.41 449.65 312 242.6 312 158 c 1
 311 83 l 1
 311 60 311.14 31.1 312 0 c 1
 277.31 -1.64 245.06 -2.32 212.99 -2.32 c 0
 175.61 -2.32 138.47 -1.4 98 0 c 0
 92.48 0 88 4.48 88 10 c 0
 83.93 201.47 83.15 -69.17 88 125 c 1
 118.77 232.4 174.8 329.12 237.63 428.36 c 1
 163.04 429.32 48.51 431.15 24 432 c 0
 18.48 432 14 436.48 14 442 c 0
 13.39 470.87 13.04 497.42 13.04 524.07 c 0
EndSplineSet
Validated: 1
EndChar

StartChar: question
Encoding: 63 63 37
Width: 398
VWidth: 0
Flags: MW
LayerCount: 5
Fore
SplineSet
96.13 86.28 m 128,-1,1
 96.13 120.026 96.13 120.026 97 155 c 1,2,3
 133.485 156.73 133.485 156.73 171.03 156.73 c 0,4,5
 206.663 156.73 206.663 156.73 257 155 c 0,6,7
 267 155 267 155 267 145 c 0,8,9
 267.86 101.189 267.86 101.189 267.86 68.28 c 0,10,11
 267.86 34.3274 267.86 34.3274 267 0 c 1,12,13
 241.03 -1.32 241.03 -1.32 212.68 -1.32 c 0,14,15
 170.46 -1.32 170.46 -1.32 107 2 c 0,16,17
 97 3 97 3 97 12 c 0,18,0
 96.13 52.595 96.13 52.595 96.13 86.28 c 128,-1,1
14 585 m 1,19,20
 102.568 606.4 102.568 606.4 197.43 606.4 c 0,21,22
 294.501 606.4 294.501 606.4 347.25 573.461 c 128,-1,23
 400 540.523 400 540.523 400 460 c 0,24,25
 400 392.829 400 392.829 338.63 328.75 c 0,26,27
 316.667 305.814 316.667 305.814 305.465 292.147 c 128,-1,28
 294.263 278.479 294.263 278.479 282.865 252.997 c 128,-1,29
 271.466 227.514 271.466 227.514 271 200 c 1,30,31
 238.873 197.97 238.873 197.97 195.61 197.97 c 0,32,33
 151.384 197.97 151.384 197.97 103 200 c 0,34,35
 93 200 93 200 93 210 c 0,36,37
 93 249.712 93 249.712 106.494 282.65 c 128,-1,38
 119.988 315.588 119.988 315.588 139.247 336.304 c 128,-1,39
 158.505 357.02 158.505 357.02 177.763 373.636 c 128,-1,40
 197.022 390.252 197.022 390.252 210.516 405.423 c 128,-1,41
 224.01 420.595 224.01 420.595 224.01 434.34 c 0,42,43
 224.01 463.82 224.01 463.82 182.87 463.82 c 0,44,45
 149.245 463.82 149.245 463.82 100.294 446.686 c 128,-1,46
 51.3434 429.553 51.3434 429.553 36.5 418.8 c 1,47,-1
 14 585 l 1,19,20
EndSplineSet
Layer: 2
SplineSet
116.127 86.2812 m 0
 116.127 102.515 116.279 118.854 116.586 135.791 c 1
 136.771 136.491 152.909 136.732 171.03 136.732 c 0
 195.843 136.732 221.531 136.15 247.179 135.318 c 1
 247.609 111.596 247.855 90.2299 247.855 68.2832 c 0
 247.855 52.2362 247.708 35.7329 247.412 19.212 c 1
 235.617 18.8423 224.362 18.6846 212.675 18.6846 c 0
 181.843 18.6846 149.261 19.8975 116.81 21.5231 c 1
 116.362 44.6809 116.127 65.0398 116.127 86.2812 c 0
36.2732 569.549 m 1
 88.6118 580.631 144.279 586.404 197.43 586.404 c 0
 314.23 586.404 380 557.839 380 460 c 0
 380 413.343 356.419 376.248 324.182 342.582 c 0
 294.534 311.622 260.073 275.937 252.339 219.05 c 1
 234.402 218.291 215.304 217.97 195.61 217.97 c 0
 168.136 217.97 137.495 218.69 113.219 219.609 c 1
 119.704 343.038 244.012 364.851 244.012 434.34 c 4
 244.012 472.346 209.383 483.82 182.87 483.82 c 0
 139.838 483.82 84.1423 463.536 52.5198 449.54 c 1
 36.2732 569.549 l 1
EndSplineSet
Validated: 1
Layer: 3
SplineSet
-20.4814 595.401 m 1
 15.0488 603.988 l 2
 76.3789 618.718 143.391 626.404 207.43 626.404 c 0
 330.383 626.404 450 586.605 450 440 c 0
 450 371.281 414.303 319.5 377.518 281.085 c 0
 343.796 245.87 321.708 221.467 320.994 179.322 c 2
 320.368 142.409 l 1
 313.925 142.002 l 1
 315.809 136.884 316.882 131.417 316.992 125.785 c 0
 317.525 98.6279 317.855 73.5566 317.855 48.2832 c 0
 317.855 26.0918 317.565 2.75 316.992 -20.5049 c 2
 316.061 -58.0645 l 1
 279.032 -59.9482 l 2
 260.163 -60.9082 241.44 -61.3154 222.675 -61.3154 c 0
 187.36 -61.3154 151.91 -59.8789 114.912 -57.9453 c 0
 90.6416 -56.6768 67 -36.8633 67 -8.4248 c 0
 66.4619 16.8633 66.127 42.1582 66.127 66.2812 c 0
 66.127 88.8711 66.3896 111.565 67 135.999 c 2
 67.8242 168.481 l 1
 64.7588 174.857 63 182.101 63 190 c 0
 63 308.679 136.911 370.971 174.913 402.059 c 1
 133.575 394.865 76.9385 370.585 69.7637 366.26 c 2
 15.8311 327.175 l 1
 -20.4814 595.401 l 1
EndSplineSet
Layer: 4
SplineSet
96.13 86.28 m 0
 96.13 108.55 96.4 130.88 97 155 c 1
 122.94 156.23 147.05 156.73 171.03 156.73 c 0
 198.98 156.73 226.74 156.04 257 155 c 0
 262.52 155 266.89 150.52 267 145 c 0
 267.53 118 267.86 93.2 267.86 68.28 c 0
 267.86 46.16 267.6 23.95 267 0 c 1
 248.9 -0.92 230.87 -1.32 212.68 -1.32 c 0
 178.46 -1.32 143.7 0.08 107 2 c 0
 101.49 2.29 97 6.48 97 12 c 0
 96.44 38.13 96.13 62.16 96.13 86.28 c 0
14 585 m 1
 70.99 598.77 136.63 606.4 197.43 606.4 c 0
 316.23 606.4 400 574 400 460 c 0
 400 406 372.38 363.99 338.63 328.75 c 0
 305.68 294.34 272 259 271 200 c 1
 248.21 198.56 222.21 197.97 195.61 197.97 c 0
 164.15 197.97 131.84 198.79 103 200 c 0
 97.48 200.23 93 204.48 93 210 c 0
 93 352.75 224.01 382.7 224.01 434.34 c 0
 224.01 456.07 206.86 463.82 182.87 463.82 c 0
 132.12 463.82 50.76 429.13 36.5 418.8 c 1
 14 585 l 1
EndSplineSet
Validated: 1
EndChar

StartChar: exclam
Encoding: 33 33 38
Width: 256
VWidth: 0
Flags: MW
LayerCount: 5
Fore
SplineSet
51.13 86.28 m 132,-1,1
 51.13 120.026 51.13 120.026 52 155 c 1,2,3
 88.4848 156.73 88.4848 156.73 126.03 156.73 c 0,4,5
 161.663 156.73 161.663 156.73 212 155 c 0,6,7
 222 155 222 155 222 145 c 0,8,9
 222.86 101.188 222.86 101.188 222.86 68.28 c 0,10,11
 222.86 34.328 222.86 34.328 222 0 c 1,12,13
 196.03 -1.32 196.03 -1.32 167.68 -1.32 c 0,14,15
 125.46 -1.32 125.46 -1.32 62 2 c 0,16,17
 52 3 52 3 52 12 c 0,18,0
 51.13 52.5946 51.13 52.5946 51.13 86.28 c 132,-1,1
44 400 m 0,19,20
 44 498 44 498 48 600 c 1,21,22
 95.6247 602.25 95.6247 602.25 135.38 602.25 c 0,23,24
 166.172 602.25 166.172 602.25 218 600 c 0,25,26
 228 600 228 600 228 590 c 0,27,28
 232 480 232 480 232 400 c 0,29,30
 232 312 232 312 226 200 c 1,31,32
 190.375 197.75 190.375 197.75 155.62 197.75 c 0,33,34
 93.2016 197.75 93.2016 197.75 58 200 c 0,35,36
 48 201 48 201 48 210 c 0,37,38
 44 320 44 320 44 400 c 0,19,20
EndSplineSet
Layer: 2
SplineSet
71.1266 86.2812 m 0
 71.1266 102.515 71.2785 118.854 71.5858 135.791 c 1
 91.7707 136.491 107.909 136.732 126.03 136.732 c 0
 150.844 136.732 176.531 136.15 202.179 135.318 c 1
 202.609 111.596 202.856 90.2291 202.856 68.2833 c 0
 202.856 52.2363 202.708 35.734 202.412 19.212 c 1
 190.618 18.8424 179.362 18.6846 167.675 18.6846 c 0
 136.843 18.6846 104.261 19.8973 71.8101 21.5231 c 1
 71.3616 44.681 71.1266 65.0395 71.1266 86.2812 c 0
64 400 m 0
 64 463.627 65.08 519.97 67.2898 580.843 c 1
 90.4106 581.8 109.076 582.25 135.375 582.25 c 0
 161.647 582.25 186.035 581.348 208.332 580.398 c 1
 210.601 516.536 212 463.658 212 400 c 0
 212 336.205 210.115 281.03 206.961 218.916 c 1
 190.318 218.064 178.317 217.75 155.625 217.75 c 0
 124.64 217.75 97.0053 217.871 67.673 219.46 c 1
 65.3922 283.653 64 336.247 64 400 c 0
EndSplineSet
Validated: 1
Layer: 3
SplineSet
14 380 m 0
 14 450.76 15.2529 510.881 18.0264 581.568 c 2
 19.4688 618.225 l 1
 56.1123 619.955 l 2
 88.0781 621.465 111.52 622.25 145.375 622.25 c 0
 176.312 622.25 202.767 621.127 229.738 619.955 c 0
 255.649 618.828 277.01 598.032 277.974 571.449 c 0
 280.402 504.51 282 447.416 282 380 c 0
 282 308.846 279.717 248.476 275.943 177.865 c 2
 274.043 142.323 l 1
 268.925 142 l 1
 270.809 136.883 271.882 131.416 271.992 125.785 c 0
 272.525 98.6289 272.856 73.5566 272.856 48.2832 c 0
 272.856 26.1299 272.561 2.66211 271.992 -20.4238 c 2
 271.061 -58.0645 l 1
 234.032 -59.9482 l 2
 215.164 -60.9082 196.44 -61.3154 177.675 -61.3154 c 0
 142.36 -61.3154 106.91 -59.8789 69.9121 -57.9453 c 0
 45.6426 -56.6768 22 -36.8643 22 -8.42578 c 0
 21.4619 16.8623 21.127 42.1582 21.127 66.2812 c 0
 21.127 88.8711 21.3896 111.566 22 136 c 2
 22.832 168.788 l 1
 19.999 174.726 18.2861 181.379 18.0264 188.551 c 0
 15.5996 255.491 14 312.584 14 380 c 0
EndSplineSet
Validated: 1
Layer: 4
SplineSet
51.13 86.28 m 4
 51.13 108.55 51.4 130.88 52 155 c 5
 77.94 156.23 102.05 156.73 126.03 156.73 c 4
 153.98 156.73 181.74 156.04 212 155 c 4
 217.52 155 221.89 150.52 222 145 c 4
 222.53 118 222.86 93.2 222.86 68.28 c 4
 222.86 46.16 222.6 23.95 222 0 c 5
 203.9 -0.92 185.87 -1.32 167.68 -1.32 c 4
 133.46 -1.32 98.7 0.08 62 2 c 4
 56.49 2.29 52 6.48 52 12 c 4
 51.44 38.13 51.13 62.16 51.13 86.28 c 4
44 400 m 0
 44 470.29 45.24 529.72 48 600 c 1
 79.75 601.5 102.13 602.25 135.38 602.25 c 0
 165.34 602.25 191.05 601.17 218 600 c 0
 223.51 599.76 227.8 595.52 228 590 c 0
 230.42 523.23 232 466.77 232 400 c 0
 232 329.71 229.76 270.28 226 200 c 1
 202.25 198.5 186.87 197.75 155.62 197.75 c 0
 121.66 197.75 91.95 197.83 58 200 c 0
 52.49 200.35 48.2 204.48 48 210 c 0
 45.58 276.77 44 333.23 44 400 c 0
EndSplineSet
Validated: 1
EndChar

StartChar: equal
Encoding: 61 61 39
Width: 444
VWidth: 0
Flags: MW
LayerCount: 5
Fore
SplineSet
34.88 409.64 m 0,0,1
 34.88 430.993 34.88 430.993 36 476 c 1,2,3
 83.6247 478.25 83.6247 478.25 261.38 478.25 c 0,4,5
 352.712 478.25 352.712 478.25 418 476 c 0,6,7
 427 476 427 476 428 466 c 0,8,9
 429 448 429 448 429 395 c 0,10,11
 429 376 429 376 428 336 c 1,12,13
 380.466 333.75 380.466 333.75 246.62 333.75 c 0,14,15
 169.321 333.75 169.321 333.75 46 338 c 0,16,17
 36 338 36 338 36 348 c 0,18,19
 34.88 400.225 34.88 400.225 34.88 409.64 c 0,0,1
34.88 197.64 m 0,20,21
 34.88 219.007 34.88 219.007 36 264 c 1,22,23
 83.6247 266.25 83.6247 266.25 261.38 266.25 c 0,24,25
 352.712 266.25 352.712 266.25 418 264 c 0,26,27
 427 264 427 264 428 254 c 0,28,29
 429 236.25 429 236.25 429 198.9 c 0,30,31
 429 164.097 429 164.097 428 124 c 1,32,33
 380.466 121.75 380.466 121.75 246.62 121.75 c 0,34,35
 169.323 121.75 169.323 121.75 46 126 c 0,36,37
 36 126 36 126 36 136 c 0,38,39
 34.88 188.225 34.88 188.225 34.88 197.64 c 0,20,21
EndSplineSet
Layer: 2
SplineSet
54.8766 410.002 m 0
 54.8766 421.774 55.0707 435.534 55.5422 456.568 c 1
 110.436 457.707 232.445 458.25 261.375 458.25 c 0
 292.021 458.25 371.325 457.29 408.088 456.292 c 1
 408.288 442.276 408.715 421.377 408.715 394.653 c 0
 408.715 382.719 408.63 369.624 408.402 355.462 c 1
 365.286 354.585 274.04 353.75 246.625 353.75 c 0
 216.13 353.75 97.4981 356.448 55.7909 357.698 c 1
 55.2577 380.92 54.8766 393.509 54.8766 410.002 c 0
54.8766 198.003 m 0
 54.8766 209.774 55.0707 223.534 55.5422 244.568 c 1
 110.436 245.707 232.445 246.25 261.375 246.25 c 0
 292.021 246.25 371.325 245.291 408.088 244.292 c 1
 408.288 230.276 408.715 209.377 408.715 182.653 c 0
 408.715 170.719 408.63 157.624 408.402 143.462 c 1
 365.286 142.585 274.04 141.75 246.625 141.75 c 0
 216.13 141.75 97.4981 144.447 55.7909 145.698 c 1
 55.2577 168.92 54.8766 181.509 54.8766 198.003 c 0
EndSplineSet
Layer: 3
SplineSet
6 115.574 m 0
 4.94141 165.307 4.15039 171.032 6 245 c 2
 6.94238 282.199 l 1
 33.1035 283.436 l 1
 16.8711 291.579 6 308.067 6 327.574 c 0
 4.94238 377.307 4.15039 383.032 6 457 c 2
 6.94238 494.199 l 1
 44.1123 495.955 l 2
 78.543 497.582 237.346 498.25 271.375 498.25 c 0
 305.722 498.25 395.04 497.161 428.69 496 c 0
 455.185 496 478 473.673 478 446 c 0
 478 429.747 479.653 381.125 478 315 c 2
 477.058 277.801 l 1
 454.032 276.713 l 1
 468.221 267.943 478 252.117 478 234 c 0
 478 218.254 479.565 168.104 478 103.775 c 2
 477.058 65.8008 l 1
 439.888 64.0449 l 2
 415.613 62.8975 290.885 61.75 256.625 61.75 c 0
 221.299 61.75 89.2715 64.835 54.8076 66.0088 c 0
 27.3105 66.8682 6 88.2637 6 115.574 c 0
EndSplineSet
Validated: 33
Layer: 4
SplineSet
34.88 409.64 m 0
 34.88 424.74 35.19 443.45 36 476 c 1
 67.75 477.5 228.13 478.25 261.38 478.25 c 0
 295.34 478.25 384.05 477.17 418 476 c 0
 423.52 476 427.69 471.51 428 466 c 0
 429 448.17 429 429 429 395 c 1
 429 378 428.55 357.97 428 336 c 1
 406.24 334.97 279.87 333.75 246.62 333.75 c 0
 212.66 333.75 79.95 336.83 46 338 c 0
 40.48 338 36 342.48 36 348 c 0
 35.38 376.91 34.88 390.31 34.88 409.64 c 0
34.88 197.64 m 0
 34.88 212.74 35.19 231.46 36 264 c 1
 67.75 265.5 228.13 266.25 261.38 266.25 c 0
 295.34 266.25 384.05 265.17 418 264 c 0
 423.52 264 427.69 259.51 428 254 c 4
 428.56 244.06 429 225.07 429 198.9 c 0
 429 178.14 428.72 152.87 428 124 c 5
 406.24 122.97 279.87 121.75 246.62 121.75 c 0
 212.66 121.75 79.95 124.83 46 126 c 0
 40.48 126 36 130.48 36 136 c 0
 35.38 164.91 34.88 178.31 34.88 197.64 c 0
EndSplineSet
Validated: 1
EndChar

StartChar: parenleft
Encoding: 40 40 40
Width: 290
VWidth: 0
Flags: MW
LayerCount: 5
Fore
SplineSet
35.96 300.49 m 128,-1,1
 35.96 405.45 35.96 405.45 58.1305 502.108 c 128,-1,2
 80.3011 598.766 80.3011 598.766 125 727.9 c 1,3,-1
 283.08 707.52 l 1,4,5
 243.51 484.062 243.51 484.062 243.51 300.49 c 128,-1,6
 243.51 116.938 243.51 116.938 283.08 -106.52 c 1,7,-1
 125 -126.9 l 1,8,9
 80.3023 2.22178 80.3023 2.22178 58.1311 98.8787 c 128,-1,0
 35.96 195.536 35.96 195.536 35.96 300.49 c 128,-1,1
EndSplineSet
Layer: 2
SplineSet
55.96 300.49 m 0
 55.96 444.646 91.0683 567.326 138.601 705.982 c 1
 259.784 690.362 l 1
 236.757 556.494 223.508 438.577 223.508 300.49 c 0
 223.508 162.668 237.085 42.6174 259.784 -89.3617 c 1
 138.601 -104.981 l 1
 90.4715 35.41 55.96 156.128 55.96 300.49 c 0
EndSplineSet
Validated: 1
Layer: 3
SplineSet
5.95996 280.49 m 0
 5.95996 440.466 46.2637 573.828 97.2002 720.984 c 2
 107.844 751.731 l 1
 339.782 721.836 l 1
 332.47 680.548 l 2
 307.568 539.954 293.508 421.533 293.508 280.49 c 0
 293.508 139.446 307.571 21.0488 332.47 -119.549 c 2
 339.782 -160.836 l 1
 107.844 -190.731 l 1
 97.2002 -159.984 l 2
 46.2646 -12.8359 5.95996 120.522 5.95996 280.49 c 0
EndSplineSet
Validated: 1
Layer: 4
SplineSet
35.96 300.49 m 0
 35.96 453.51 74.29 581.4 125 727.9 c 1
 283.08 707.52 l 1
 257.97 565.72 243.51 444.26 243.51 300.49 c 0
 243.51 156.72 257.97 35.28 283.08 -106.52 c 1
 125 -126.9 l 1
 74.29 19.59 35.96 147.48 35.96 300.49 c 0
EndSplineSet
Validated: 1
EndChar

StartChar: parenright
Encoding: 41 41 41
Width: 290
VWidth: 0
Flags: MW
LayerCount: 5
Fore
SplineSet
26.96 -106.52 m 1,0,1
 66.54 116.994 66.54 116.994 66.54 300.49 c 128,-1,2
 66.54 484.021 66.54 484.021 26.96 707.52 c 1,3,-1
 185.04 727.9 l 1,4,5
 229.739 598.766 229.739 598.766 251.909 502.108 c 128,-1,6
 274.08 405.45 274.08 405.45 274.08 300.49 c 128,-1,7
 274.08 195.536 274.08 195.536 251.909 98.8788 c 128,-1,8
 229.738 2.22186 229.738 2.22186 185.04 -126.9 c 1,9,-1
 26.96 -106.52 l 1,0,1
EndSplineSet
Layer: 2
SplineSet
50.2592 -89.3617 m 1
 73.2843 44.5058 86.5352 162.402 86.5352 300.49 c 0
 86.5352 438.31 72.9597 558.383 50.2592 690.362 c 1
 171.442 705.982 l 1
 219.573 565.582 254.083 444.862 254.083 300.49 c 0
 254.083 156.343 218.973 33.666 171.442 -104.981 c 1
 50.2592 -89.3617 l 1
EndSplineSet
Validated: 1
Layer: 3
SplineSet
-9.73926 -160.836 m 1
 -2.42676 -119.548 l 2
 22.4736 21.0479 36.5352 139.446 36.5352 280.49 c 0
 36.5352 421.533 22.4736 539.955 -2.42676 680.548 c 2
 -9.73926 721.836 l 1
 222.199 751.731 l 1
 232.843 720.984 l 2
 283.781 573.829 324.083 440.465 324.083 280.49 c 0
 324.083 120.521 283.777 -12.835 232.843 -159.984 c 2
 222.199 -190.731 l 1
 -9.73926 -160.836 l 1
EndSplineSet
Layer: 4
SplineSet
26.96 -106.52 m 1
 52.07 35.28 66.54 156.72 66.54 300.49 c 0
 66.54 444.26 52.07 565.73 26.96 707.52 c 1
 185.04 727.9 l 1
 235.75 581.4 274.08 453.51 274.08 300.49 c 0
 274.08 147.48 235.75 19.59 185.04 -126.9 c 1
 26.96 -106.52 l 1
EndSplineSet
Validated: 1
EndChar

StartChar: plus
Encoding: 43 43 42
Width: 498
VWidth: 0
Flags: MW
LayerCount: 5
Fore
SplineSet
28.52 290.78 m 4,0,1
 28.52 311.062 28.52 311.062 30 370 c 1,2,3
 52.2525 371.047 52.2525 371.047 174.53 371.78 c 1,4,5
 175.356 431.124 175.356 431.124 178 530 c 1,6,7
 210.959 531.56 210.959 531.56 248.14 531.56 c 0,8,9
 284.958 531.56 284.958 531.56 330 530 c 0,10,11
 340 530 340 530 340 520 c 0,12,13
 340.238 508.883 340.238 508.883 341.553 455.982 c 128,-1,14
 342.868 403.08 342.868 403.08 343.37 371.96 c 1,15,16
 445.623 371.114 445.623 371.114 478 370 c 0,17,18
 487 370 487 370 488 360 c 0,19,20
 488.8 345.862 488.8 345.862 488.8 297.77 c 0,21,22
 488.8 251.898 488.8 251.898 488 220 c 1,23,24
 468.549 219.078 468.549 219.078 343.32 218.12 c 1,25,26
 342.525 166.613 342.525 166.613 340 70 c 1,27,28
 307.041 68.44 307.041 68.44 269.86 68.44 c 0,29,30
 233.043 68.44 233.043 68.44 188 70 c 0,31,32
 178 70 178 70 178 80 c 0,33,34
 176.645 114.308 176.645 114.308 174.78 219.14 c 1,35,36
 70.0082 220.964 70.0082 220.964 40 222 c 0,37,38
 30 222 30 222 30 232 c 0,39,40
 28.52 268.231 28.52 268.231 28.52 290.78 c 4,0,1
EndSplineSet
Layer: 2
SplineSet
48.5169 290.782 m 0
 48.5169 306.188 48.8743 323.814 49.5237 350.534 c 1
 82.0026 351.155 145.617 351.604 194.259 351.898 c 1
 194.994 404.61 196.288 464.509 197.499 510.764 c 1
 214.504 511.321 231.124 511.557 248.142 511.557 c 0
 271.983 511.557 296.047 511.071 320.208 510.313 c 1
 321.326 461.171 322.804 406.901 323.692 352.122 c 1
 368.935 351.748 437.583 351.042 468.338 350.272 c 1
 468.635 338.375 468.8 319.011 468.8 297.768 c 0
 468.8 278.719 468.642 256.223 468.383 239.503 c 1
 433.697 238.875 370.275 238.327 323.622 237.97 c 1
 322.855 188.415 321.646 133.707 320.494 89.2363 c 1
 303.503 88.6793 286.87 88.4429 269.855 88.4429 c 0
 245.998 88.4429 220.509 88.967 197.647 89.6914 c 1
 195.783 141.021 195.358 186.592 194.433 238.803 c 1
 146.276 239.644 76.7293 240.982 49.6298 241.718 c 5
 48.8081 263.201 48.5169 274.922 48.5169 290.782 c 0
EndSplineSet
Layer: 3
SplineSet
-1.4834 270.782 m 0
 -1.4834 290.739 -0.943359 312.785 0.0126953 351 c 2
 0.942383 388.199 l 1
 38.1123 389.955 l 2
 53.0811 390.662 98.7305 391.16 145.187 391.513 c 1
 146.046 436.806 147.055 475.04 148.015 511.065 c 2
 149.003 548.202 l 1
 186.112 549.955 l 2
 210.09 551.088 234.107 551.557 258.142 551.557 c 0
 285.425 551.557 314.536 550.902 340.688 550 c 0
 367.224 550 389.986 527.419 389.986 500.427 c 0
 390.673 468.146 391.762 430.213 392.613 391.589 c 1
 434.404 391.141 470.828 390.616 488.689 390 c 0
 516.804 390 536.59 366.283 537.938 342.238 c 0
 538.579 330.785 538.8 306.415 538.8 277.768 c 0
 538.8 251.035 538.551 221.485 537.987 198.999 c 2
 537.057 161.802 l 1
 499.889 160.045 l 2
 487.515 159.46 438.006 158.873 392.613 158.45 c 1
 391.78 117.161 390.866 82.6084 389.986 48.9551 c 2
 389.016 11.7988 l 1
 351.888 10.0449 l 2
 327.909 8.91211 303.892 8.44336 279.855 8.44336 c 0
 252.572 8.44336 223.464 9.09766 197.311 10 c 0
 169.659 10 149.007 33.2979 148.015 58.4229 c 0
 146.612 93.9541 145.969 128.161 145.435 159.853 c 1
 100.786 160.696 64.5391 161.477 48.7412 162.011 c 0
 19.9434 162.95 1.01465 185.772 0.0126953 210.384 c 0
 -1.00977 235.491 -1.4834 251.982 -1.4834 270.782 c 0
EndSplineSet
Layer: 4
SplineSet
28.52 290.78 m 4
 28.52 309.97 29.04 331.77 30 370 c 5
 47.21 370.81 112.78 371.41 174.53 371.78 c 5
 175.3 427.13 176.77 484.01 178 530 c 5
 201.24 531.1 224.63 531.56 248.14 531.56 c 4
 275.27 531.56 302.57 530.95 330 530 c 4
 335.52 530 340 525.52 340 520 c 4
 340.95 475.54 342.51 425.31 343.37 371.96 c 5
 391.69 371.56 454.74 370.8 478 370 c 4
 483.52 370 487.69 365.51 488 360 c 4
 488.52 350.81 488.8 325.93 488.8 297.77 c 4
 488.8 271.3 488.55 241.93 488 220 c 5
 473.65 219.32 400.82 218.56 343.32 218.12 c 5
 342.52 166.32 341.15 114.01 340 70 c 5
 316.76 68.9 293.38 68.44 269.86 68.44 c 4
 242.73 68.44 215.43 69.05 188 70 c 4
 182.48 70 178.22 74.48 178 80 c 4
 176.07 128.87 175.65 170.24 174.78 219.14 c 5
 119.05 220.11 58.82 221.35 40 222 c 4
 34.48 222 30.22 226.49 30 232 c 4
 28.98 256.97 28.52 272.72 28.52 290.78 c 4
EndSplineSet
Validated: 1
EndChar

StartChar: comma
Encoding: 44 44 43
Width: 210
VWidth: 0
Flags: MW
LayerCount: 5
Fore
SplineSet
29.13 86.29 m 128,-1,1
 29.13 120.04 29.13 120.04 30 155 c 1,2,3
 66.4849 156.73 66.4849 156.73 104.03 156.73 c 0,4,5
 139.663 156.73 139.663 156.73 190 155 c 0,6,7
 200 155 200 155 200 145 c 0,8,9
 200 127.723 200 127.723 200.285 96.0825 c 128,-1,10
 200.57 64.4425 200.57 64.4425 200.57 48.92 c 1,11,12
 196.93 18.9724 196.93 18.9724 181.715 -41.4269 c 128,-1,13
 166.499 -101.826 166.499 -101.826 160 -120 c 1,14,15
 120.157 -121.88 120.157 -121.88 69.72 -121.88 c 1,16,17
 69.72 -85.8908 69.72 -85.8908 73.68 1.14999 c 1,18,19
 56.3363 1.15 56.3363 1.15 40 2 c 0,20,21
 30 3 30 3 30 12 c 0,22,0
 29.13 52.5949 29.13 52.5949 29.13 86.29 c 128,-1,1
EndSplineSet
Layer: 2
SplineSet
49.5858 135.791 m 1
 95.3983 137.378 135.855 136.756 180.014 135.323 c 1
 180.115 103.748 180.545 77.9389 180.566 50.1564 c 1
 175.838 13.5919 154.779 -67.6836 145.115 -100.618 c 1
 125.51 -101.36 106.854 -101.686 90.2354 -101.808 c 1
 91.185 -69.2629 92.9211 -15.9834 93.659 0.240528 c 0
 94.6102 21.1494 l 1
 73.6797 21.1494 l 0
 65.9286 21.1494 57.5544 21.2693 49.8092 21.5683 c 1
 49.0287 61.8555 48.8783 96.941 49.5858 135.791 c 1
EndSplineSet
Layer: 3
SplineSet
0 -8.42578 m 0
 -1.05566 41.2012 -1.26562 85.3711 0 136 c 2
 0.942383 173.199 l 1
 38.6377 174.98 l 2
 96.7695 177.687 145.411 176.887 200.689 174.98 c 0
 227.185 174.98 250 152.673 250 125 c 0
 250 91.4902 250.566 61.04 250.566 28.917 c 2
 250.566 26.4941 l 1
 250.273 24.0898 l 2
 243.94 -28.0098 216.001 -130.138 207.668 -153.459 c 2
 198.651 -178.691 l 1
 171.888 -179.955 l 2
 139.275 -181.496 109.961 -181.877 79.7217 -181.877 c 2
 39.7217 -181.877 l 1
 39.7217 -141.877 l 2
 39.7217 -135.565 41.1016 -91.2129 42.2402 -57.3447 c 1
 18.5293 -52.7402 0 -34.873 0 -8.42578 c 0
EndSplineSet
Validated: 33
Layer: 4
SplineSet
29.13 86.29 m 0
 29.13 108.55 29.4 130.89 30 155 c 1
 55.94 156.23 80.05 156.73 104.03 156.73 c 0
 131.98 156.73 159.74 156.04 190 155 c 0
 195.52 155 200 150.52 200 145 c 0
 200 111.03 200.57 80.55 200.57 48.92 c 1
 195.1 3.92 166.43 -102.02 160 -120 c 1
 128.21 -121.5 99.63 -121.88 69.72 -121.88 c 1
 69.72 -114.8 72.68 -20.83 73.68 1.15 c 1
 63.14 1.15 54.03 1.27 40 2 c 0
 34.49 2.29 30 6.48 30 12 c 0
 29.44 38.13 29.13 62.17 29.13 86.29 c 0
EndSplineSet
Validated: 1
EndChar

StartChar: quotesingle
Encoding: 39 39 44
Width: 208
VWidth: 0
Flags: MW
LayerCount: 5
Fore
SplineSet
29.63 496.92 m 1,0,1
 29.63 512.443 29.63 512.443 29.91 546.083 c 128,-1,2
 30.19 579.723 30.19 579.723 30.19 597 c 0,3,4
 30.19 607 30.19 607 39.19 607 c 0,5,6
 56.7017 607.61 56.7017 607.61 109.54 607.61 c 128,-1,7
 162.503 607.61 162.503 607.61 180 607 c 0,8,9
 190 607 190 607 190 597 c 0,10,11
 190 579.723 190 579.723 190.285 548.083 c 128,-1,12
 190.57 516.443 190.57 516.443 190.57 500.92 c 1,13,14
 186.979 471.381 186.979 471.381 171.098 411.78 c 128,-1,15
 155.217 352.179 155.217 352.179 148 332 c 1,16,17
 129.776 331.14 129.776 331.14 106.3 331.14 c 0,18,19
 85.1412 331.14 85.1412 331.14 50.19 332 c 1,20,21
 40.3485 386.617 40.3485 386.617 29.63 496.92 c 1,0,1
EndSplineSet
Layer: 2
SplineSet
49.626 497.888 m 5
 49.6465 527.748 50.1025 557.364 50.1924 587.233 c 5
 81.2852 587.729 143.095 587.696 170.015 587.233 c 5
 170.114 555.874 170.545 529.872 170.566 502.161 c 5
 165.838 465.87 143.453 384.763 133.266 351.473 c 5
 110.153 350.874 87.3965 351.186 67.4238 351.605 c 5
 62.25 388.201 53.3213 460.435 49.626 497.888 c 5
EndSplineSet
Validated: 33
Layer: 3
SplineSet
-0.374023 474.979 m 1
 -0.374023 476.917 l 2
 -0.374023 509.015 0.192383 543.467 0.192383 577 c 0
 0.192383 599.262 17.5361 627 48.5029 627 c 0
 72.3418 627.821 166.913 627.819 190.689 627 c 0
 217.185 627 240 604.673 240 577 c 0
 240 543.49 240.566 513.04 240.566 480.917 c 2
 240.566 478.495 l 1
 234.083 425.155 203.921 321.64 195.668 298.541 c 2
 186.651 273.309 l 1
 163.674 272.224 140.299 271.131 116.188 271.131 c 0
 83.4844 271.131 51.0264 272.066 26.6162 272.818 c 1
 20.8281 304.897 l 2
 16.79 327.276 4.46191 425.212 -0.186523 473.049 c 2
 -0.374023 474.979 l 1
EndSplineSet
Layer: 4
SplineSet
29.63 496.92 m 1
 29.63 528.55 30.19 563.03 30.19 597 c 0
 30.19 602.52 33.67 607 39.19 607 c 0
 50.96 607.41 80.25 607.61 109.54 607.61 c 0
 138.89 607.61 168.24 607.41 180 607 c 0
 185.52 607 190 602.52 190 597 c 0
 190 563.03 190.57 532.55 190.57 500.92 c 1
 185.1 455.92 154.43 349.98 148 332 c 5
 134.65 331.37 120.46 331.14 106.3 331.14 c 0
 86.74 331.14 67.26 331.58 50.19 332 c 5
 46.77 350.98 34.1 450.92 29.63 496.92 c 1
EndSplineSet
Validated: 1
EndChar

StartChar: numbersign
Encoding: 35 35 45
Width: 522
VWidth: 0
Flags: MW
LayerCount: 5
Fore
SplineSet
27.34 192.3 m 0,0,1
 27.34 205.565 27.34 205.565 29 250 c 1,2,3
 44.6609 250.746 44.6609 250.746 112.14 251.36 c 1,4,5
 112 271.723 112 271.723 112 290 c 0,6,7
 112 316.61 112 316.61 112.27 350.36 c 1,8,9
 61.6747 351.431 61.6747 351.431 45 352 c 0,10,11
 35 352 35 352 35 362 c 0,12,13
 34.34 386.988 34.34 386.988 34.34 394.31 c 0,14,15
 34.34 407.565 34.34 407.565 36 452 c 1,16,17
 50.9615 452.71 50.9615 452.71 113.51 453.3 c 1,18,19
 114.622 525.247 114.622 525.247 116 580 c 1,20,21
 154.102 581.04 154.102 581.04 173.8 581.04 c 0,22,23
 193.707 581.04 193.707 581.04 224 580 c 0,24,25
 234 580 234 580 234 570 c 0,26,27
 235.069 519.698 235.069 519.698 236.14 454.1 c 1,28,29
 271.809 454.25 271.809 454.25 287.38 454.25 c 0,30,31
 292.856 454.25 292.856 454.25 305.52 454.2 c 1,32,33
 306.619 524.761 306.619 524.761 308 580 c 1,34,35
 346.102 581.04 346.102 581.04 365.8 581.04 c 0,36,37
 385.707 581.04 385.707 581.04 416 580 c 0,38,39
 426 580 426 580 426 570 c 0,40,41
 427.044 520.607 427.044 520.607 428.15 453.24 c 1,42,43
 486.428 452.613 486.428 452.613 504 452 c 0,44,45
 514 452 514 452 514 442 c 0,46,47
 514 389 514 389 513 350 c 1,48,49
 501.583 349.456 501.583 349.456 429.61 348.78 c 1,50,51
 430 312.123 430 312.123 430 290 c 0,52,53
 430 273.115 430 273.115 429.83 251.14 c 1,54,55
 481.042 250.556 481.042 250.556 497 250 c 0,56,57
 507 250 507 250 507 240 c 0,58,59
 507 187 507 187 506 148 c 1,60,61
 495.116 147.481 495.116 147.481 428.53 146.83 c 1,62,63
 427.365 74.4446 427.365 74.4446 426 20 c 1,64,65
 401.317 18.83 401.317 18.83 376.03 18.83 c 0,66,67
 352.131 18.83 352.131 18.83 318 20 c 0,68,69
 308 20 308 20 308 30 c 0,70,71
 305.812 132.723 305.812 132.723 305.57 145.91 c 1,72,73
 275.443 145.75 275.443 145.75 264.62 145.75 c 0,74,75
 256.531 145.75 256.531 145.75 236.51 146.01 c 1,76,77
 235.341 73.8211 235.341 73.8211 234 20 c 1,78,79
 209.317 18.83 209.317 18.83 184.03 18.83 c 0,80,81
 160.147 18.83 160.147 18.83 126 20 c 0,82,83
 116 20 116 20 116 30 c 0,84,85
 113.643 140.867 113.643 140.867 113.51 148.18 c 1,86,87
 56.4993 149.362 56.4993 149.362 38 150 c 0,88,89
 28 150 28 150 28 159.99 c 0,90,91
 27.34 184.978 27.34 184.978 27.34 192.3 c 0,0,1
237.62 348.09 m 1,92,93
 238 312.814 238 312.814 238 290 c 0,94,95
 238 274.283 238 274.283 237.84 252.14 c 1,96,97
 264.846 252.25 264.846 252.25 280.38 252.25 c 0,98,99
 287.853 252.25 287.853 252.25 304.14 252.17 c 1,100,101
 304 272.093 304 272.093 304 290 c 0,102,103
 304 316.074 304 316.074 304.25 347.87 c 1,104,105
 281.992 347.75 281.992 347.75 271.62 347.75 c 0,106,107
 262.036 347.75 262.036 347.75 237.62 348.09 c 1,92,93
EndSplineSet
Layer: 2
SplineSet
47.3105 192.302 m 0
 47.3105 197.326 47.7243 213.323 48.3102 230.536 c 1
 68.9899 230.945 104.983 231.291 132.286 231.539 c 1
 132.149 250.803 132 270.959 132 290 c 0
 132 314.302 132.215 343.762 132.424 369.937 c 1
 108.446 370.442 70.3736 371.275 54.7572 371.711 c 1
 54.4551 384.027 54.3441 390.145 54.3441 394.309 c 0
 54.3441 399.331 54.7287 415.338 55.3141 432.539 c 1
 74.19 432.911 108.191 433.254 133.172 433.492 c 1
 133.83 475.78 134.794 527.832 135.54 560.498 c 1
 151.521 560.876 162.45 561.045 173.796 561.045 c 0
 186.158 561.045 200.29 560.752 214.198 560.314 c 1
 214.788 531.483 215.762 476.988 216.466 434.015 c 1
 236 434.828 272.5 435 285 435 c 0
 295 435 314.135 434.161 325.202 434.113 c 1
 325.858 476.145 326.796 527.918 327.54 560.498 c 1
 343.522 560.876 354.451 561.045 365.797 561.045 c 0
 378.158 561.045 392.29 560.752 406.198 560.314 c 1
 406.789 531.452 407.768 476.689 408.475 433.454 c 1
 435.006 433.165 477.943 432.637 493.988 432.268 c 1
 493.948 415.494 493.785 391.054 493.41 369.536 c 1
 473.986 369.213 436.24 368.84 409.399 368.588 c 1
 409.666 343.569 410 310.025 410 290 c 0
 410 273.06 409.821 250.005 409.678 231.375 c 1
 433.387 231.102 471.525 230.622 486.988 230.268 c 1
 486.944 212.881 486.802 190.368 486.412 167.535 c 1
 466.386 167.207 434.246 166.889 408.844 166.644 c 1
 408.161 124.248 407.25 74.1041 406.454 39.2657 c 1
 394.331 38.9232 386.36 38.8308 376.032 38.8308 c 0
 360.561 38.8308 343.071 39.2092 327.796 39.6875 c 1
 327.02 75.3973 326.001 122.642 325.202 166.022 c 1
 308.358 165.929 273.796 165.75 264.625 165.75 c 0
 254.86 165.75 230.014 166.096 216.838 166.27 c 1
 216.157 124.142 215.243 73.7508 214.455 39.2657 c 1
 202.331 38.9232 194.36 38.8308 184.032 38.8308 c 0
 168.561 38.8308 151.071 39.2092 135.796 39.6875 c 1
 135.015 75.6012 133.977 123.754 133.172 167.783 c 1
 106.494 168.335 63.7318 169.264 47.753 169.711 c 1
 47.4513 182.008 47.3105 188.144 47.3105 192.302 c 0
217.404 368.375 m 1
 217.668 343.495 218 310.027 218 290 c 0
 218 273.183 217.824 250.456 217.684 232.056 c 1
 235.112 232.124 271.084 232.25 280.375 232.25 c 0
 290.536 232.25 311.817 232.117 324.279 232.056 c 1
 324.147 251.143 324 271.123 324 290 c 0
 324 313.776 324.206 342.484 324.403 367.972 c 1
 309.991 367.899 280.949 367.75 271.625 367.75 c 0
 261.53 367.75 232.363 368.165 217.404 368.375 c 1
EndSplineSet
Layer: 3
SplineSet
-2.66016 172.302 m 0
 -2.66016 181.78 -2.11133 201.219 -0.975586 231.492 c 2
 0.401367 268.188 l 1
 37.082 269.946 l 2
 45.1699 270.334 62.9229 270.665 82 270.922 c 1
 82.001 277.218 82.0186 284.799 82.04 291.245 c 1
 69.1191 291.555 59.8223 291.81 54.3096 292 c 0
 27.0352 292 5.70215 314.973 5.01367 340.94 c 0
 4.57812 357.38 4.34375 368.084 4.34375 374.309 c 0
 4.34375 383.788 4.89258 403.218 6.02832 433.492 c 2
 7.40527 470.22 l 1
 44.1113 471.955 l 2
 51.3633 472.298 68.0439 472.629 84.1631 472.856 c 1
 84.8057 508.797 85.3818 536.287 86 561 c 2
 86.9619 598.951 l 1
 124.911 599.985 l 2
 150.281 600.676 167.436 601.045 183.796 601.045 c 0
 199.402 601.045 215.683 600.64 234.688 599.985 c 0
 253.901 599.985 270.872 587.094 278.314 573.079 c 1
 278.962 598.951 l 1
 316.911 599.985 l 2
 342.281 600.676 359.438 601.045 375.797 601.045 c 0
 391.402 601.045 407.683 600.64 426.688 599.985 c 0
 453.224 599.985 475.987 577.419 475.987 550.425 c 0
 476.326 534.541 476.941 503.412 477.486 472.752 c 1
 495.838 472.479 507.271 472.256 514.689 472 c 0
 541.185 472 564 449.673 564 422 c 0
 564 403.969 563.874 363.902 562.987 328.984 c 2
 562.043 291.802 l 1
 524.89 290.045 l 2
 518.049 289.721 501.069 289.456 479.944 289.2 c 1
 479.979 282.555 479.998 275.223 480 270.604 c 1
 493.524 270.383 501.811 270.203 507.689 270 c 0
 534.185 270 557 247.673 557 220 c 0
 557 201.952 556.861 160.923 555.986 126.969 c 2
 555.028 89.8008 l 1
 517.89 88.0449 l 2
 511.869 87.7598 496.231 87.501 477.853 87.2637 c 1
 477.231 53.1787 476.6 23.4756 475.987 -0.999023 c 2
 475.058 -38.2002 l 1
 437.887 -39.9551 l 2
 419.732 -40.8125 402.782 -41.1689 386.032 -41.1689 c 0
 366.877 -41.1689 346.478 -40.6611 327.311 -40 c 0
 308.098 -40 291.128 -27.0928 283.686 -13.0791 c 1
 283.057 -38.2002 l 1
 245.887 -39.9551 l 2
 227.732 -40.8125 210.782 -41.1689 194.032 -41.1689 c 0
 174.877 -41.1689 154.478 -40.6611 135.311 -40 c 0
 108.775 -40 86 -17.418 86 9.57422 c 0
 85.5625 30.1104 84.8604 61.168 84.2842 89.0293 c 1
 66.748 89.4346 54.1709 89.7637 47.3105 90 c 0
 20.7832 90 -1.98438 112.608 -2.00391 139.448 c 0
 -2.4082 154.7 -2.66016 166.403 -2.66016 172.302 c 0
EndSplineSet
Validated: 1
Layer: 4
SplineSet
27.34 192.3 m 0
 27.34 200.41 27.88 220.02 29 250 c 1
 40.75 250.56 73.65 251.01 112.14 251.36 c 1
 112.05 264.45 112 277.38 112 290 c 0
 112 308.69 112.1 329.11 112.27 350.36 c 1
 82.05 351 56.44 351.61 45 352 c 0
 39.48 352 35.15 356.48 35 362 c 0
 34.57 378.28 34.34 389.04 34.34 394.31 c 0
 34.34 402.42 34.88 422.02 36 452 c 1
 47.17 452.53 77.47 452.96 113.51 453.3 c 1
 114.26 501.81 115.18 547.41 116 580 c 1
 141.28 580.69 158.07 581.04 173.8 581.04 c 0
 189.21 581.04 203.61 580.7 224 580 c 0
 229.52 580 234 575.52 234 570 c 0
 234.51 546 235.36 501.87 236.14 454.1 c 1
 259.92 454.2 278.78 454.25 287.38 454.25 c 0
 291.72 454.25 297.92 454.23 305.52 454.2 c 1
 306.27 502.37 307.19 547.61 308 580 c 1
 333.28 580.69 350.07 581.04 365.8 581.04 c 0
 381.21 581.04 395.61 580.7 416 580 c 0
 421.52 580 426 575.52 426 570 c 0
 426.51 545.86 427.36 501.34 428.15 453.24 c 1
 461.61 452.88 491.1 452.45 504 452 c 0
 509.52 452 514 447.52 514 442 c 0
 514 424.17 513.87 384.27 513 350 c 1
 504.39 349.59 470.05 349.16 429.61 348.78 c 1
 429.85 326.22 430 305.89 430 290 c 0
 430 278.49 429.94 265.36 429.83 251.14 c 1
 459.64 250.8 485.23 250.41 497 250 c 0
 502.52 250 507 245.52 507 240 c 0
 507 222.17 506.86 181.27 506 148 c 1
 497.82 147.61 466.37 147.2 428.53 146.83 c 1
 427.77 99.6 426.83 53.1 426 20 c 1
 408.49 19.17 392.21 18.83 376.03 18.83 c 0
 357.16 18.83 338.42 19.3 318 20 c 0
 312.48 20 308 24.48 308 30 c 0
 307.34 60.99 306.38 101.82 305.57 145.91 c 1
 286.74 145.81 271.95 145.75 264.62 145.75 c 0
 258.65 145.75 248.83 145.85 236.51 146.01 c 1
 235.75 99.06 234.82 52.9 234 20 c 1
 216.49 19.17 200.21 18.83 184.03 18.83 c 0
 165.17 18.83 146.43 19.3 126 20 c 0
 120.48 20 116 24.48 116 30 c 0
 115.33 61.52 114.33 103.22 113.51 148.18 c 1
 79.75 148.88 50.47 149.57 38 150 c 0
 32.48 150 28 154.48 28 159.99 c 0
 27.57 176.27 27.34 187.03 27.34 192.3 c 0
237.62 348.09 m 1
 237.86 325.81 238 305.73 238 290 c 0
 238 278.76 237.94 265.98 237.84 252.14 c 1
 257.48 252.22 272.86 252.25 280.38 252.25 c 0
 285.74 252.25 293.96 252.22 304.14 252.17 c 1
 304.05 264.98 304 277.64 304 290 c 0
 304 307.96 304.09 327.52 304.25 347.87 c 1
 289.41 347.79 277.83 347.75 271.62 347.75 c 0
 264.73 347.75 252.7 347.88 237.62 348.09 c 1
EndSplineSet
Validated: 1
EndChar

StartChar: four
Encoding: 52 52 46
Width: 488
VWidth: 0
Flags: MW
LayerCount: 5
Fore
SplineSet
13.37 145.15 m 128,-1,1
 13.37 166.77 13.37 166.77 14 192.25 c 1,2,3
 44.2907 289.091 44.2907 289.091 90.8633 421.978 c 128,-1,4
 137.436 554.865 137.436 554.865 160 602.25 c 1,5,6
 218.856 603.47 218.856 603.47 295.08 603.47 c 0,7,8
 347.334 603.47 347.334 603.47 448 600 c 0,9,10
 458 600 458 600 458 590 c 0,11,12
 462 402 462 402 462 300 c 0,13,14
 462 160 462 160 458 0 c 1,15,16
 420.643 -1.76 420.643 -1.76 377.73 -1.76 c 0,17,18
 335.172 -1.76 335.172 -1.76 284 0 c 0,19,20
 274 0 274 0 274 10 c 0,21,22
 273.202 47.7222 273.202 47.7222 273.12 94.28 c 1,23,24
 223.133 94 223.133 94 198.62 94 c 0,25,26
 89.2886 94 89.2886 94 24 96.25 c 0,27,28
 14.3623 96.25 14.3623 96.25 14 106.25 c 0,29,0
 13.37 123.442 13.37 123.442 13.37 145.15 c 128,-1,1
197.6 250.31 m 1,30,31
 226.529 249.986 226.529 249.986 273.86 249.24 c 1,32,33
 274 275.382 274 275.382 274 300 c 0,34,35
 274 357.417 274 357.417 278.21 471.27 c 1,36,37
 236.576 343.853 236.576 343.853 197.6 250.31 c 1,30,31
EndSplineSet
Layer: 2
SplineSet
33.3703 145.152 m 0
 33.3703 160.148 33.6068 175.283 33.9254 188.952 c 1
 66.6492 293.213 139.292 505.97 172.964 582.483 c 1
 202.537 582.963 252.58 583.469 295.082 583.469 c 0
 341.435 583.469 387.128 582.072 438.201 580.325 c 1
 440.153 488.319 442 396.623 442 300 c 0
 442 206.682 440.648 111.355 438.462 19.2213 c 1
 416.481 18.4813 398.537 18.236 377.731 18.236 c 0
 349.919 18.236 321.498 18.8081 293.811 19.685 c 1
 293.212 52.3419 293.139 81.9322 293.086 114.388 c 1
 263.594 114.226 210.219 114 198.625 114 c 0
 167.78 114 73.0522 114.96 33.709 115.972 c 1
 33.445 126.683 33.3703 135.029 33.3703 145.152 c 0
167.746 230.643 m 1
 197.382 230.312 l 2
 220.889 230.05 262.553 229.413 293.752 228.917 c 1
 293.873 252.599 294 276.074 294 300 c 0
 294 335.965 295.658 402.031 298.193 470.534 c 0
 298.489 499.5 l 1
 267.185 501 l 1
 259.196 477.485 l 0
 231.027 391.263 204.177 318.097 179.143 258.002 c 0
 167.746 230.643 l 1
EndSplineSet
Layer: 3
SplineSet
-16.6299 125.152 m 0
 -16.6299 144.042 -16.2734 161.818 -15.8477 178.848 c 1
 23.5645 304.846 102.939 534.459 144.495 621.729 c 1
 188.589 622.645 238.643 623.469 305.082 623.469 c 0
 355.174 623.469 404.443 621.872 458.689 620 c 0
 485.224 620 508 597.418 508 570.426 c 0
 509.979 477.405 512 380.252 512 280 c 0
 512 167.149 509.833 52.8184 507.058 -58.1992 c 1
 468.239 -60.0332 428.175 -61.7637 387.731 -61.7637 c 0
 356.396 -61.7637 323.178 -61.0303 293.311 -60 c 0
 266.775 -60 244 -37.418 244 -10.4258 c 0
 243.709 3.24219 243.475 20.0049 243.336 34.0898 c 1
 226.346 34.0234 216.238 34 208.625 34 c 0
 174.39 34 67.0146 35.0879 33.3105 36.25 c 0
 5.74023 36.25 -15.0439 59.4775 -15.9727 84.7822 c 0
 -16.4482 97.7227 -16.6299 111.463 -16.6299 125.152 c 0
EndSplineSet
Validated: 1
Layer: 4
SplineSet
13.37 145.15 m 0
 13.37 161.4 13.64 177.69 14 192.25 c 1
 48 300.95 127 532.95 160 602.25 c 1
 185.57 602.78 245.5 603.47 295.08 603.47 c 0
 344.69 603.47 392.3 601.92 448 600 c 0
 453.52 600 458 595.52 458 590 c 0
 460 496 462 400 462 300 c 0
 462 200 460.5 100 458 0 c 1
 431.68 -1.24 404.8 -1.76 377.73 -1.76 c 0
 346.55 -1.76 315.11 -1.07 284 0 c 0
 278.48 0 274 4.48 274 10 c 0
 273.41 37.9 273.17 65.98 273.12 94.28 c 1
 239.2 94.09 210.31 94 198.62 94 c 0
 164.66 94 57.95 95.08 24 96.25 c 0
 18.48 96.25 14.2 100.73 14 106.25 c 0
 13.55 118.53 13.37 131.82 13.37 145.15 c 0
197.6 250.31 m 1
 217.22 250.09 244.66 249.7 273.86 249.24 c 1
 273.95 266.05 274 282.97 274 300 c 0
 274 336.49 275.67 402.58 278.21 471.27 c 1
 249.91 384.66 222.9 311.03 197.6 250.31 c 1
EndSplineSet
Validated: 1
EndChar

StartChar: slash
Encoding: 47 47 47
Width: 374
VWidth: 0
Flags: MW
LayerCount: 5
Fore
SplineSet
-5.01 -43.2 m 0,0,1
 -5.01 -41.637 -5.01 -41.637 3.97 -8.42 c 0,2,3
 56.7329 186.909 56.7329 186.909 92.1 303.98 c 0,4,5
 156.412 516.867 156.412 516.867 208.19 650 c 1,6,7
 256.64 652.25 256.64 652.25 296.38 652.25 c 0,8,9
 330.574 652.25 330.574 652.25 391.19 650 c 0,10,11
 397.99 649.754 397.99 649.754 397.99 643.16 c 0,12,13
 397.99 641.204 397.99 641.204 388.33 604.83 c 0,14,15
 353.227 472.449 353.227 472.449 301.9 297.02 c 0,16,17
 238.522 80.3924 238.522 80.3924 187.81 -50 c 1,18,19
 139.36 -52.25 139.36 -52.25 99.62 -52.25 c 0,20,21
 64.3486 -52.25 64.3486 -52.25 1.81 -50 c 0,22,23
 -5.01 -49.7526 -5.01 -49.7526 -5.01 -43.2 c 0,0,1
EndSplineSet
Layer: 2
SplineSet
18.7009 -30.6067 m 1
 44.1066 63.587 77.1147 185.225 111.248 298.2 c 0
 145.694 412.211 186.032 536.038 222.148 630.602 c 1
 249.033 631.751 267.751 632.25 296.385 632.25 c 0
 324.185 632.25 348.985 631.511 374.436 630.602 c 1
 349.85 536.698 316.884 419.472 282.702 302.632 c 0
 249.19 188.086 209.825 63.8511 173.845 -30.6067 c 1
 146.976 -31.756 128.244 -32.25 99.6152 -32.25 c 0
 71.7356 -32.25 45.0988 -31.5148 18.7009 -30.6067 c 1
EndSplineSet
Validated: 1
Layer: 3
SplineSet
-33.1729 -49.5889 m 0
 -7.35547 46.1826 27.5322 175.471 63.8115 295.553 c 0
 100.052 415.501 142.48 545.688 180.912 644.5 c 2
 190.344 668.75 l 1
 216.335 669.957 l 2
 248.837 671.466 272.527 672.25 306.385 672.25 c 0
 341.21 672.25 371.163 671.127 402.677 669.957 c 0
 438.555 668.622 452.292 633.203 446.273 609.966 c 0
 421.297 513.586 386.366 389.104 350.288 265.784 c 0
 315.02 145.232 273.618 14.5596 235.088 -84.5 c 2
 225.656 -108.75 l 1
 199.665 -109.974 l 2
 167.163 -111.483 143.473 -112.25 109.615 -112.25 c 0
 74.7979 -112.25 42.9209 -111.146 10.3691 -109.974 c 0
 -25.3242 -108.689 -39.584 -73.3701 -33.1729 -49.5889 c 0
EndSplineSet
Validated: 33
Layer: 4
SplineSet
-5.01 -43.2 m 0
 -5.01 -40.01 0.98 -19.48 3.97 -8.42 c 0
 28.67 83.02 59.89 197.36 92.1 303.98 c 0
 128.14 423.28 170.43 552.91 208.19 650 c 1
 240.49 651.5 263.13 652.25 296.38 652.25 c 0
 330.34 652.25 359.67 651.17 391.19 650 c 0
 395.62 649.84 397.99 647.15 397.99 643.16 c 0
 397.99 638.87 391.57 617.03 388.33 604.83 c 0
 364.47 514.85 333.63 405.47 301.9 297.02 c 0
 266.83 177.15 225.57 47.09 187.81 -50 c 1
 155.51 -51.5 132.87 -52.25 99.62 -52.25 c 0
 65.66 -52.25 34.33 -51.17 1.81 -50 c 0
 -2.6 -49.84 -5.01 -47.17 -5.01 -43.2 c 0
EndSplineSet
Validated: 1
EndChar

StartChar: nine
Encoding: 57 57 48
Width: 500
VWidth: 0
Flags: MW
LayerCount: 5
Fore
SplineSet
205.99 392.66 m 0,0,1
 205.99 373.882 205.99 373.882 218.033 359.751 c 128,-1,2
 230.075 345.62 230.075 345.62 250.19 345.62 c 0,3,4
 267.115 345.62 267.115 345.62 277.273 359.762 c 128,-1,5
 287.43 373.905 287.43 373.905 287.43 392.82 c 0,6,7
 287.43 412.569 287.43 412.569 275.842 426.715 c 128,-1,8
 264.254 440.86 264.254 440.86 242.22 440.86 c 0,9,10
 225.915 440.86 225.915 440.86 215.953 427.605 c 128,-1,11
 205.99 414.35 205.99 414.35 205.99 392.66 c 0,0,1
26 390.67 m 0,12,13
 26 499.467 26 499.467 78.5013 553.233 c 128,-1,14
 131.003 607 131.003 607 240 607 c 0,15,16
 284.237 607 284.237 607 319.716 599.34 c 128,-1,17
 355.195 591.68 355.195 591.68 388.716 570.981 c 128,-1,18
 422.238 550.283 422.238 550.283 444.644 516.703 c 128,-1,19
 467.049 483.123 467.049 483.123 480.524 428.34 c 128,-1,20
 494 373.557 494 373.557 494 300.67 c 0,21,22
 494 214.534 494 214.534 475.395 153.89 c 128,-1,23
 456.791 93.2455 456.791 93.2455 420.683 58.8128 c 128,-1,24
 384.575 24.3802 384.575 24.3802 337.927 9.1901 c 128,-1,25
 291.278 -6 291.278 -6 229 -6 c 0,26,27
 157 -6 157 -6 52 11 c 1,28,-1
 73 169 l 1,29,-1
 249 169 l 2,30,31
 264.723 169 264.723 169 274.498 178.242 c 128,-1,32
 284.273 187.484 284.273 187.484 289.46 215.66 c 1,33,34
 257.011 209 257.011 209 216 209 c 0,35,36
 121.703 209 121.703 209 73.8516 260.322 c 128,-1,37
 26 311.643 26 311.643 26 390.67 c 0,12,13
EndSplineSet
Layer: 2
SplineSet
185.987 392.66 m 0
 185.987 361.022 208.688 325.617 250.186 325.617 c 0
 289.954 325.617 307.432 364.131 307.432 392.819 c 0
 307.432 423.953 287.001 460.861 242.217 460.861 c 0
 205.496 460.861 185.987 427.153 185.987 392.66 c 0
46 390.667 m 0
 46 525.86 103.412 587 240 587 c 0
 369.374 587 474 541.29 474 300.667 c 0
 474 74.3574 378.648 14 229 14 c 0
 180.206 14 129.613 19.3154 74.4473 27.7139 c 1
 90.8457 148.737 l 1
 248.814 148.617 l 0
 276.383 148.598 300.502 165.162 309.132 212.042 c 0
 314.503 241.22 l 1
 285.441 235.255 l 0
 270.791 232.248 229.951 229 216 229 c 0
 94.4932 229 46 301.644 46 390.667 c 0
EndSplineSet
Layer: 3
SplineSet
-4 370.667 m 0
 -4 532.883 74.167 627 250 627 c 0
 405.53 627 544 549.67 544 280.667 c 0
 544 27.6533 416.949 -66 239 -66 c 0
 179.797 -66 120.453 -58.9746 55.6143 -48.4873 c 2
 17.127 -42.2627 l 1
 48.4326 188.749 l 1
 84.1602 188.749 l 1
 23.1582 231.153 -4 299.282 -4 370.667 c 0
EndSplineSet
Layer: 4
SplineSet
205.99 392.66 m 0
 205.99 369.23 222 345.62 250.19 345.62 c 0
 273.87 345.62 287.43 369.15 287.43 392.82 c 0
 287.43 416.77 273.55 440.86 242.22 440.86 c 0
 220.48 440.86 205.99 421.58 205.99 392.66 c 0
26 390.67 m 0
 26 534.79 93.75 607 240 607 c 0
 378 607 494 550.69 494 300.67 c 0
 494 65.52 388 -6 229 -6 c 0
 173 -6 115.84 0.67 52 11 c 1
 73 169 l 1
 249 169 l 2
 267 169 281.92 174.7 289.46 215.66 c 1
 271.92 212.06 232.02 209 216 209 c 0
 83.4 209 26 292.67 26 390.67 c 0
EndSplineSet
Validated: 1
EndChar

StartChar: less
Encoding: 60 60 49
Width: 408
VWidth: 0
Flags: MW
LayerCount: 5
Fore
SplineSet
23 317 m 0,0,1
 23 345.811 23 345.811 24.78 376.61 c 1,2,3
 67.3629 398.976 67.3629 398.976 228.09 473.9 c 0,4,5
 310.805 512.463 310.805 512.463 370.99 538.05 c 0,6,7
 380.056 542.275 380.056 542.275 384.28 533.21 c 0,8,9
 398.11 503.53 398.11 503.53 398.11 394.49 c 1,10,11
 385.063 387.639 385.063 387.639 275.79 336.7 c 0,12,13
 222.075 311.633 222.075 311.633 187.81 300.52 c 1,14,15
 223.578 287.65 223.578 287.65 289.16 257.07 c 0,16,17
 342.729 232.096 342.729 232.096 387.61 210 c 0,18,19
 397.45 205.161 397.45 205.161 397.45 194.71 c 0,20,21
 397.45 170.154 397.45 170.154 394.565 121.869 c 128,-1,22
 391.68 73.5833 391.68 73.5833 387.05 53.73 c 1,23,24
 356.132 66.3977 356.132 66.3977 214.72 132.34 c 0,25,26
 144.502 165.077 144.502 165.077 34.69 220.98 c 0,27,28
 29.0676 223.6 29.0676 223.6 27.85 233.27 c 0,29,30
 23 271.985 23 271.985 23 317 c 0,0,1
EndSplineSet
Layer: 2
SplineSet
43 317 m 0
 43 331.997 43.4078 348.194 44.1443 364.01 c 1
 87.8131 385.74 209.218 443.028 236.541 455.77 c 0
 263.927 468.54 334.616 500.474 368.873 515.364 c 1
 373.512 494.333 377.403 452.194 378.032 406.796 c 1
 349.119 392.677 293.397 366.978 267.336 354.826 c 0
 249.879 346.684 193.997 324.063 161 312 c 1
 160.5 289.088 l 1
 199.444 275.08 264.065 246.7 280.705 238.94 c 0
 310.773 224.919 349.621 206.386 377.439 192.715 c 1
 377.263 173.171 375.048 117.579 371.235 82.5284 c 1
 326.905 102.461 247.239 139.242 223.173 150.465 c 0
 194.29 163.932 81.4962 219.722 47.5561 236.878 c 1
 44.1833 264.535 43 288.816 43 317 c 0
EndSplineSet
Validated: 1
Layer: 3
SplineSet
-7 297 m 0
 -7 323.866 -5.41309 354.42 -3.8457 381.504 c 1
 35.6533 402.246 177.887 469.957 221.185 490.148 c 0
 252.312 504.663 333.724 541.425 364.709 554.593 c 0
 388.724 565.79 418.837 555.196 430.531 530.116 c 0
 446.481 495.91 448.11 420.473 448.11 350.318 c 1
 426.706 339.079 l 2
 404.912 327.636 333.052 294.604 302.695 280.448 c 0
 302.438 280.327 301.848 280.054 301.757 280.011 c 1
 308.3 276.967 312.891 274.797 316.062 273.318 c 0
 347.101 258.845 385.628 240.48 415.272 225.89 c 0
 433.832 216.755 447.447 197.555 447.447 174.71 c 0
 447.447 128.277 436.051 24.8252 425.344 -21.1055 c 1
 381.879 -3.28418 l 2
 359.065 6.06836 238.67 61.6982 207.817 76.0859 c 0
 176.102 90.874 56.8457 149.906 27.1592 165.018 c 0
 2.94727 176.306 -0.967773 201.362 -1.83691 208.289 c 0
 -5.52246 237.669 -7 266.711 -7 297 c 0
EndSplineSet
Validated: 33
Layer: 4
SplineSet
23 317 m 0
 23 336 23.59 356.02 24.78 376.61 c 1
 52.92 391.39 197.95 459.85 228.09 473.9 c 0
 258.87 488.25 339.73 524.76 370.99 538.05 c 0
 375.99 540.38 381.95 538.21 384.28 533.21 c 0
 391.81 517.05 398.11 458.49 398.11 394.49 c 1
 378.82 384.36 305.93 350.75 275.79 336.7 c 0
 261.84 330.19 222.22 311.68 187.81 300.52 c 1
 228.72 285.8 275.07 263.64 289.16 257.07 c 0
 319.94 242.72 358.34 224.41 387.61 210 c 0
 393.71 207 397.45 201.38 397.45 194.71 c 0
 397.45 173 394.11 84 387.05 53.73 c 1
 366.89 61.99 244.85 118.29 214.72 132.34 c 0
 183.94 146.69 64.96 205.57 34.69 220.98 c 0
 29.69 223.31 28.54 227.79 27.85 233.27 c 0
 24.41 260.73 23 288 23 317 c 0
EndSplineSet
Validated: 1
EndChar

StartChar: dollar
Encoding: 36 36 50
Width: 470
VWidth: 0
Flags: MW
LayerCount: 5
Fore
SplineSet
35 417.33 m 0,0,1
 35 491.368 35 491.368 62.1882 528.111 c 128,-1,2
 89.3763 564.854 89.3763 564.854 143.67 577.46 c 1,3,4
 144.676 666.896 144.676 666.896 146 720 c 1,5,6
 193.625 722.25 193.625 722.25 223.38 722.25 c 0,7,8
 250.711 722.25 250.711 722.25 316 720 c 0,9,10
 326 720 326 720 326 710 c 0,11,12
 327.057 660.127 327.057 660.127 328 583.81 c 1,13,14
 384.861 578.698 384.861 578.698 445.8 567 c 1,15,-1
 425.38 423.15 l 1,16,17
 335.93 459.38 335.93 459.38 254.19 459.38 c 0,18,19
 193.99 459.38 193.99 459.38 193.99 427.34 c 0,20,21
 193.99 417.481 193.99 417.481 199.99 409.923 c 128,-1,22
 205.99 402.365 205.99 402.365 220.696 395.973 c 128,-1,23
 235.402 389.582 235.402 389.582 246.889 385.935 c 128,-1,24
 258.376 382.289 258.376 382.289 282.17 375.77 c 0,25,26
 305.386 369.411 305.386 369.411 317.867 365.699 c 128,-1,27
 330.347 361.986 330.347 361.986 352.855 353.606 c 128,-1,28
 375.362 345.226 375.362 345.226 388.374 337.438 c 128,-1,29
 401.386 329.65 401.386 329.65 418.16 316.442 c 128,-1,30
 434.933 303.235 434.933 303.235 443.952 288.477 c 128,-1,31
 452.971 273.72 452.971 273.72 459.485 252.791 c 128,-1,32
 466 231.863 466 231.863 466 207.33 c 0,33,34
 466 59.059 466 59.059 336.37 25.84 c 1,35,36
 335.34 -66.3502 335.34 -66.3502 334 -120 c 1,37,38
 286.375 -122.25 286.375 -122.25 256.62 -122.25 c 0,39,40
 229.289 -122.25 229.289 -122.25 164 -120 c 0,41,42
 154 -120 154 -120 154 -110 c 0,43,44
 152.978 -61.8196 152.978 -61.8196 152.01 16.82 c 1,45,46
 93.1395 19.3094 93.1395 19.3094 35.32 24.92 c 1,47,-1
 57.8 183.77 l 1,48,49
 162.584 151.95 162.584 151.95 225.81 151.95 c 0,50,51
 254.836 151.95 254.836 151.95 268.923 163.305 c 128,-1,52
 283.01 174.66 283.01 174.66 283.01 191.34 c 0,53,54
 283.01 202.382 283.01 202.382 277.538 210.316 c 128,-1,55
 272.066 218.25 272.066 218.25 258.06 224.322 c 128,-1,56
 244.055 230.394 244.055 230.394 233.974 233.411 c 128,-1,57
 223.893 236.429 223.893 236.429 201.17 242.14 c 0,58,59
 172.071 249.454 172.071 249.454 155.274 254.714 c 128,-1,60
 138.478 259.973 138.478 259.973 112.336 273.515 c 128,-1,61
 86.1953 287.056 86.1953 287.056 71.8136 303.861 c 128,-1,62
 57.4319 320.666 57.4319 320.666 46.2159 350.027 c 128,-1,63
 35 379.388 35 379.388 35 417.33 c 0,0,1
EndSplineSet
Layer: 2
SplineSet
55 417.333 m 0
 55 520.72 93.7877 545.339 163.487 561.526 c 1
 164.034 609.853 164.785 664.477 165.563 700.858 c 1
 189.762 701.865 204.86 702.25 223.375 702.25 c 0
 244.565 702.25 275.852 701.344 306.195 700.323 c 1
 306.901 664.862 307.64 612.46 308.221 565.505 c 5
 346.984 562.018 385.153 557.5 423.305 550.805 c 1
 409.084 450.64 l 1
 360.623 467.466 306.386 479.383 254.186 479.383 c 0
 225.37 479.383 173.987 475.138 173.987 427.34 c 0
 173.987 378.488 235.375 367.852 276.883 356.479 c 0
 358.931 334.001 446 308.971 446 207.333 c 0
 446 95.8923 396.058 61.7745 316.544 41.4017 c 1
 315.992 -7.89794 315.223 -64.0536 314.437 -100.858 c 1
 290.238 -101.864 275.14 -102.25 256.625 -102.25 c 0
 235.435 -102.25 204.148 -101.344 173.805 -100.323 c 1
 173.097 -64.6306 172.353 -11.2586 171.773 35.9963 c 1
 133.562 37.6141 94.9089 39.7227 58.0659 42.9106 c 1
 74.3614 158.055 l 1
 133.827 141.24 182.829 131.95 225.814 131.95 c 0
 273.751 131.95 303.013 157.766 303.013 191.34 c 0
 303.013 242.419 244.681 251.826 206.043 261.539 c 0
 133.072 279.884 55 299.54 55 417.333 c 0
EndSplineSet
Validated: 1
Layer: 3
SplineSet
-0.140625 -30.8545 m 1
 34.7393 215.612 l 1
 79.4248 202.041 l 2
 143.84 182.478 197.942 171.95 235.814 171.95 c 0
 238.146 171.95 240.518 172.049 240.518 172.049 c 1
 230.121 175.734 218.726 178.998 201.415 183.35 c 0
 130.41 201.2 5 236.143 5 397.333 c 0
 5 498.58 45.3105 560.355 114.021 587.132 c 1
 114.604 632.609 115.232 669.816 116.013 701 c 2
 116.942 738.199 l 1
 154.112 739.955 l 2
 186.09 741.466 209.218 742.25 233.375 742.25 c 0
 258.006 742.25 294.184 741.121 326.689 740 c 0
 353.224 740 376 717.42 376 690.425 c 0
 376.496 667.062 377.06 633.238 377.527 599.806 c 1
 408.916 595.943 434.633 591.796 463.346 586.283 c 2
 500.764 579.101 l 1
 467.791 346.864 l 1
 420.364 366.075 l 2
 382.596 381.373 331.628 394.727 288.787 398.312 c 1
 295.186 396.432 297.552 395.767 302.736 394.347 c 0
 377.026 373.994 516 338.418 516 187.333 c 0
 516 75.6709 464.04 6.86328 386.025 -23.4785 c 1
 385.424 -71.0088 384.789 -108.934 383.987 -141 c 2
 383.058 -178.199 l 1
 345.888 -179.955 l 2
 313.91 -181.467 290.782 -182.25 266.625 -182.25 c 0
 241.993 -182.25 205.817 -181.121 173.311 -180 c 0
 146.776 -180 124 -157.419 124 -130.425 c 0
 123.509 -107.305 122.973 -74.9463 122.501 -41.2227 c 1
 93.3145 -39.4785 68.6934 -37.541 41.4531 -34.8945 c 2
 -0.140625 -30.8545 l 1
EndSplineSet
Layer: 4
SplineSet
35 417.33 m 0
 35 520.47 75.23 561.57 143.67 577.46 c 1
 144.29 632.56 145.08 683.09 146 720 c 1
 177.75 721.5 200.13 722.25 223.38 722.25 c 0
 247.34 722.25 282.05 721.17 316 720 c 0
 321.52 720 326 715.52 326 710 c 0
 326.69 677.44 327.39 633.17 328 583.81 c 1
 366.15 580.38 407.25 574.4 445.8 567 c 1
 425.38 423.15 l 1
 376.1 443.11 311.61 459.38 254.19 459.38 c 0
 222.06 459.38 193.99 453.9 193.99 427.34 c 0
 193.99 399.94 233.37 389.14 282.17 375.77 c 0
 361.61 354.01 466 325.43 466 207.33 c 0
 466 97.56 415.04 46 336.37 25.84 c 1
 335.74 -30.54 334.94 -82.36 334 -120 c 1
 302.25 -121.5 279.87 -122.25 256.62 -122.25 c 0
 232.66 -122.25 197.95 -121.17 164 -120 c 0
 158.48 -120 154 -115.52 154 -110 c 0
 153.31 -77.48 152.62 -32.75 152.01 16.82 c 1
 112.99 18.47 73.45 21.22 35.32 24.92 c 1
 57.8 183.77 l 1
 124.22 163.6 181.12 151.95 225.81 151.95 c 0
 267.29 151.95 283.01 171.34 283.01 191.34 c 0
 283.01 222.05 246.33 230.79 201.17 242.14 c 0
 128.92 260.3 35 285.15 35 417.33 c 0
EndSplineSet
Validated: 1
EndChar

StartChar: ampersand
Encoding: 38 38 51
Width: 560
VWidth: 0
Flags: MW
LayerCount: 5
Fore
SplineSet
18 181 m 0,0,1
 18 219.178 18 219.178 44.6133 254.791 c 128,-1,2
 71.2266 290.404 71.2266 290.404 118.49 315.37 c 1,3,4
 71 361.773 71 361.773 71 436 c 0,5,6
 71 521 71 521 122 555 c 128,-1,7
 173 589 173 589 276 589 c 0,8,9
 350 589 350 589 421 572 c 1,10,-1
 400.62 425.25 l 1,11,-1
 289.19 431.38 l 1,12,13
 238 431.38 238 431.38 238 399 c 0,14,15
 238 366 238 366 294 366 c 1,16,-1
 279.28 300.5 l 1,17,-1
 283.28 300.5 l 1,18,19
 305.401 338.993 305.401 338.993 334.28 366.97 c 1,20,21
 396.798 368.35 396.798 368.35 438.93 368.35 c 0,22,23
 485.749 368.35 485.749 368.35 554 366 c 0,24,25
 564 366 564 366 564 356 c 0,26,27
 564.9 336.382 564.9 336.382 564.9 300.3 c 0,28,29
 564.9 265.803 564.9 265.803 564 230 c 1,30,31
 523.981 230 523.981 230 490.26 229.49 c 1,32,33
 503.15 184.866 503.15 184.866 503.15 148.07 c 0,34,35
 503.15 -5 503.15 -5 277 -5 c 0,36,37
 217 -5 217 -5 176 1.5 c 128,-1,38
 135 8 135 8 96 26 c 128,-1,39
 57 44 57 44 37.5 83 c 128,-1,40
 18 122 18 122 18 181 c 0,0,1
223 199 m 0,41,42
 223 179 223 179 234.5 170.5 c 128,-1,43
 246 162 246 162 274 162 c 0,44,45
 324 162 324 162 324 192 c 0,46,47
 324 212.188 324 212.188 322.5 230.61 c 1,48,49
 292.319 231.823 292.319 231.823 263 234 c 1,50,51
 244 234 244 234 233.5 224.5 c 128,-1,52
 223 215 223 215 223 199 c 0,41,42
EndSplineSet
Layer: 2
SplineSet
38 181 m 0
 38 221.574 68.6146 266.417 127.826 297.689 c 2
 152.087 310.502 l 1
 132.464 329.678 l 2
 105.92 355.618 91 390.483 91 436 c 0
 91 539.603 149.06 569 276 569 c 0
 309.13 569 362.383 563.379 398.637 556.363 c 1
 383.346 446.231 l 1
 289.736 451.384 l 1
 289.186 451.384 l 2
 256.215 451.384 218 440.281 218 399 c 0
 218 365.392 243.894 352.337 269.783 347.945 c 1
 256.949 291 l 1
 258.882 278.334 261.171 266.024 263.744 253.999 c 1
 229.984 253.999 203 232.644 203 199 c 0
 203 159.817 232.73 142 274 142 c 0
 313.754 142 344 156.117 344 192 c 0
 344 211.029 342.482 231.648 340.994 249.881 c 1
 321.588 250.667 298.998 252.471 279.949 253.634 c 1
 273.946 290.831 l 1
 294.617 290.168 l 1
 303.949 306.833 325.949 336.5 336.949 347.027 c 1
 379.377 347.958 411.288 348.347 438.926 348.347 c 0
 478.022 348.347 509.006 347.509 544.343 346.318 c 1
 544.71 333.679 544.899 319.025 544.899 300.299 c 0
 544.899 285.281 544.739 267.343 544.43 250.111 c 1
 526.767 250.069 509.692 249.783 489.958 249.484 c 2
 463.786 249.087 l 1
 471.046 223.939 l 2
 479.046 196.225 483.15 170.679 483.15 148.072 c 0
 483.15 73.2822 439.609 15 277 15 c 0
 135.463 15 38 33.68 38 181 c 0
EndSplineSet
Layer: 3
SplineSet
-2 161 m 0
 -2 217.203 32.9209 267.267 83.3604 302.923 c 1
 61.499 335.734 51 373.171 51 416 c 0
 51 566.829 132.826 605 287 605 c 0
 331.393 605 395.428 597.671 439.026 587.165 c 2
 465.453 580.799 l 1
 437.174 378.323 l 1
 441.191 378.323 445.149 378.323 448.926 378.323 c 0
 491.853 378.323 524.853 377.367 564.517 376 c 0
 586.703 376 603.057 357.261 603.968 337.372 c 0
 604.545 324.765 604.899 304.904 604.899 280.299 c 0
 604.899 251.145 604.031 211.539 603.255 179.548 c 1
 583.525 179.881 561.333 180.001 538.102 180.001 c 1
 541.626 161.117 543.15 145.347 543.15 128.072 c 0
 543.15 19.2295 462.927 -55 287 -55 c 0
 145.926 -55 -2 -29.2754 -2 161 c 0
EndSplineSet
Layer: 4
SplineSet
18 181 m 0
 18 231.87 55.43 282.06 118.49 315.37 c 1
 87.91 345.25 71 385.88 71 436 c 0
 71 554.42 146.21 589 276 589 c 0
 317.15 589 380.74 581.7 421 572 c 1
 400.62 425.25 l 1
 289.19 431.38 l 1
 257.19 431.38 238 423 238 399 c 0
 238 374 263 366 294 366 c 0
 279.28 300.5 l 1
 283.28 300.5 l 1
 293.67 318.58 312.83 346.19 334.28 366.97 c 1
 377.77 367.93 410.75 368.35 438.93 368.35 c 0
 481.63 368.35 513.34 367.4 554 366 c 0
 559.52 366 563.75 361.51 564 356 c 0
 564.54 344.23 564.9 324.58 564.9 300.3 c 0
 564.9 279.56 564.64 255.46 564 230 c 1
 545.03 230 518.03 229.91 490.26 229.49 c 1
 498.66 200.41 503.15 173.07 503.15 148.07 c 0
 503.15 59.72 444.91 -5 277 -5 c 0
 135.68 -5 18 16.56 18 181 c 0
223 199 m 0
 223 173 237 162 274 162 c 0
 311.31 162 324 172.57 324 192 c 0
 324 204.45 323.53 217.96 322.5 230.61 c 1
 303.09 231.39 283.2 232.5 263 234 c 1
 238 234 223 220 223 199 c 0
EndSplineSet
Validated: 1
EndChar

StartChar: colon
Encoding: 58 58 52
Width: 210
VWidth: 0
Flags: MW
LayerCount: 5
Fore
SplineSet
29.13 86.28 m 128,-1,1
 29.13 120.026 29.13 120.026 30 155 c 1,2,3
 66.4849 156.73 66.4849 156.73 104.03 156.73 c 0,4,5
 139.663 156.73 139.663 156.73 190 155 c 0,6,7
 200 155 200 155 200 145 c 0,8,9
 200.86 101.188 200.86 101.188 200.86 68.28 c 0,10,11
 200.86 34.328 200.86 34.328 200 0 c 1,12,13
 174.03 -1.32 174.03 -1.32 145.68 -1.32 c 0,14,15
 103.46 -1.32 103.46 -1.32 40 2 c 0,16,17
 30 3 30 3 30 12 c 0,18,0
 29.13 52.5949 29.13 52.5949 29.13 86.28 c 128,-1,1
29.13 386.28 m 128,-1,20
 29.13 420.026 29.13 420.026 30 455 c 1,21,22
 66.4844 456.73 66.4844 456.73 104.03 456.73 c 0,23,24
 139.664 456.73 139.664 456.73 190 455 c 0,25,26
 200 455 200 455 200 445 c 0,27,28
 200.86 401.189 200.86 401.189 200.86 368.28 c 0,29,30
 200.86 334.328 200.86 334.328 200 300 c 1,31,32
 174.031 298.68 174.031 298.68 145.68 298.68 c 0,33,34
 103.46 298.68 103.46 298.68 40 302 c 0,35,36
 30 303 30 303 30 312 c 0,37,19
 29.13 352.595 29.13 352.595 29.13 386.28 c 128,-1,20
EndSplineSet
Layer: 2
SplineSet
49.127 86.2812 m 0
 49.127 102.515 49.2783 118.854 49.5859 135.791 c 1
 69.7705 136.491 85.9092 136.732 104.03 136.732 c 0
 128.843 136.732 154.531 136.15 180.179 135.318 c 1
 180.609 111.596 180.855 90.2295 180.855 68.2832 c 0
 180.855 52.2363 180.708 35.7324 180.412 19.2119 c 1
 168.617 18.8428 157.362 18.6846 145.675 18.6846 c 0
 114.843 18.6846 82.2607 19.8975 49.8105 21.5234 c 1
 49.3623 44.6807 49.127 65.04 49.127 86.2812 c 0
49.127 386.281 m 0
 49.127 402.515 49.2783 418.854 49.5859 435.791 c 1
 69.7705 436.491 85.9092 436.732 104.03 436.732 c 0
 128.843 436.732 154.531 436.15 180.179 435.318 c 1
 180.609 411.596 180.855 390.229 180.855 368.283 c 0
 180.855 352.236 180.708 335.732 180.412 319.212 c 1
 168.617 318.842 157.362 318.685 145.675 318.685 c 0
 114.843 318.685 82.2607 319.897 49.8105 321.523 c 1
 49.3623 344.681 49.127 365.04 49.127 386.281 c 0
EndSplineSet
Validated: 1
Layer: 3
SplineSet
-0.873047 66.2812 m 0
 -0.873047 88.8711 -0.610352 111.565 0 135.999 c 2
 0.941406 173.198 l 1
 38.6367 174.98 l 2
 66.1328 176.262 89.3691 176.732 114.03 176.732 c 0
 142.189 176.732 171.795 175.978 200.689 174.98 c 0
 227.765 174.98 249.476 152.196 249.992 125.785 c 0
 250.525 98.6279 250.855 73.5566 250.855 48.2832 c 0
 250.855 26.1113 250.563 2.70898 249.992 -20.4658 c 2
 249.061 -58.0645 l 1
 212.032 -59.9482 l 2
 193.163 -60.9082 174.44 -61.3154 155.675 -61.3154 c 0
 120.36 -61.3154 84.9102 -59.8789 47.9121 -57.9453 c 0
 23.6426 -56.6768 0 -36.8643 0 -8.42578 c 0
 -0.538086 16.8633 -0.873047 42.1582 -0.873047 66.2812 c 0
-0.873047 366.281 m 0
 -0.873047 388.871 -0.610352 411.565 0 435.999 c 2
 0.941406 473.198 l 1
 38.6367 474.98 l 2
 66.1328 476.262 89.3691 476.732 114.03 476.732 c 0
 142.189 476.732 171.795 475.978 200.689 474.98 c 0
 227.765 474.98 249.476 452.196 249.992 425.785 c 0
 250.525 398.628 250.855 373.557 250.855 348.283 c 0
 250.855 326.111 250.563 302.709 249.992 279.534 c 2
 249.061 241.936 l 1
 212.032 240.052 l 2
 193.163 239.092 174.44 238.685 155.675 238.685 c 0
 120.36 238.685 84.9102 240.121 47.9121 242.055 c 0
 23.6426 243.323 0 263.136 0 291.574 c 0
 -0.538086 316.863 -0.873047 342.158 -0.873047 366.281 c 0
EndSplineSet
Validated: 1
Layer: 4
SplineSet
29.13 86.28 m 0
 29.13 108.55 29.4 130.88 30 155 c 1
 55.94 156.23 80.05 156.73 104.03 156.73 c 0
 131.98 156.73 159.74 156.04 190 155 c 0
 195.52 155 199.89 150.52 200 145 c 0
 200.53 118 200.86 93.2 200.86 68.28 c 0
 200.86 46.16 200.6 23.95 200 0 c 1
 181.9 -0.92 163.87 -1.32 145.68 -1.32 c 0
 111.46 -1.32 76.7 0.08 40 2 c 0
 34.49 2.29 30 6.48 30 12 c 0
 29.44 38.13 29.13 62.16 29.13 86.28 c 0
29.13 386.28 m 0
 29.13 408.55 29.4 430.88 30 455 c 1
 55.94 456.23 80.05 456.73 104.03 456.73 c 0
 131.98 456.73 159.74 456.04 190 455 c 0
 195.52 455 199.89 450.52 200 445 c 0
 200.53 418 200.86 393.2 200.86 368.28 c 0
 200.86 346.16 200.6 323.95 200 300 c 1
 181.9 299.08 163.87 298.68 145.68 298.68 c 0
 111.46 298.68 76.7 300.08 40 302 c 0
 34.49 302.29 30 306.48 30 312 c 0
 29.44 338.13 29.13 362.16 29.13 386.28 c 0
EndSplineSet
Validated: 1
EndChar

StartChar: semicolon
Encoding: 59 59 53
Width: 210
VWidth: 0
Flags: MW
LayerCount: 5
Fore
SplineSet
29.13 386.28 m 128,-1,1
 29.13 420.026 29.13 420.026 30 455 c 1,2,3
 66.4844 456.73 66.4844 456.73 104.03 456.73 c 0,4,5
 139.664 456.73 139.664 456.73 190 455 c 0,6,7
 200 455 200 455 200 445 c 0,8,9
 200.86 401.189 200.86 401.189 200.86 368.28 c 0,10,11
 200.86 334.328 200.86 334.328 200 300 c 1,12,13
 174.031 298.68 174.031 298.68 145.68 298.68 c 0,14,15
 103.46 298.68 103.46 298.68 40 302 c 0,16,17
 30 303 30 303 30 312 c 0,18,0
 29.13 352.595 29.13 352.595 29.13 386.28 c 128,-1,1
29.13 86.28 m 128,-1,20
 29.13 120.026 29.13 120.026 30 155 c 1,21,22
 66.4849 156.73 66.4849 156.73 104.03 156.73 c 0,23,24
 139.663 156.73 139.663 156.73 190 155 c 0,25,26
 200 155 200 155 200 145 c 0,27,28
 200 127.723 200 127.723 200.285 96.0825 c 128,-1,29
 200.57 64.4425 200.57 64.4425 200.57 48.92 c 1,30,31
 196.93 18.9724 196.93 18.9724 181.715 -41.4269 c 128,-1,32
 166.499 -101.826 166.499 -101.826 160 -120 c 1,33,34
 120.157 -121.88 120.157 -121.88 69.72 -121.88 c 1,35,36
 69.72 -85.8908 69.72 -85.8908 73.68 1.14999 c 1,37,38
 56.3363 1.15 56.3363 1.15 40 2 c 0,39,40
 30 3 30 3 30 12 c 0,41,19
 29.13 52.5949 29.13 52.5949 29.13 86.28 c 128,-1,20
EndSplineSet
Layer: 2
SplineSet
49.127 386.281 m 0
 49.127 402.515 49.2783 418.854 49.5859 435.791 c 1
 69.7705 436.491 85.9092 436.732 104.03 436.732 c 0
 128.843 436.732 154.531 436.15 180.179 435.318 c 1
 180.609 411.596 180.855 390.229 180.855 368.283 c 0
 180.855 352.236 180.708 335.732 180.412 319.212 c 1
 168.617 318.842 157.362 318.685 145.675 318.685 c 0
 114.843 318.685 82.2598 319.897 49.8096 321.523 c 1
 49.3614 344.681 49.127 365.04 49.127 386.281 c 0
49.5859 135.791 m 1
 95.3984 137.378 135.855 136.756 180.014 135.323 c 1
 180.115 103.748 180.545 77.9385 180.566 50.1562 c 1
 175.838 13.5918 154.779 -67.6836 145.115 -100.618 c 1
 125.51 -101.36 106.854 -101.686 90.2354 -101.808 c 1
 91.1846 -69.2627 92.9209 -15.9834 93.6592 0.240234 c 0
 94.6104 21.1494 l 1
 73.6797 21.1494 l 0
 65.9287 21.1494 57.5547 21.2695 49.8096 21.5684 c 1
 49.0283 61.8555 48.8779 96.9414 49.5859 135.791 c 1
EndSplineSet
Layer: 3
SplineSet
-0.873047 366.281 m 0
 -0.873047 388.871 -0.610352 411.565 0 435.999 c 2
 0.941406 473.198 l 1
 38.6367 474.98 l 2
 66.1328 476.262 89.3691 476.732 114.03 476.732 c 0
 142.189 476.732 171.795 475.978 200.689 474.98 c 0
 227.765 474.98 249.483 452.196 250 425.785 c 0
 250.533 398.628 250.855 373.557 250.855 348.283 c 0
 250.855 326.111 250.571 302.709 250 279.534 c 2
 249.061 241.936 l 1
 212.032 240.052 l 2
 193.163 239.092 174.44 238.685 155.675 238.685 c 0
 120.36 238.685 84.9102 240.121 47.9121 242.055 c 0
 23.6426 243.323 0 263.136 0 291.574 c 0
 -0.538086 316.863 -0.873047 342.158 -0.873047 366.281 c 0
0 -8.42578 m 0
 -1.05566 41.2012 -1.26562 85.3711 0 136 c 2
 0.941406 173.199 l 1
 38.6367 174.98 l 2
 96.7686 177.687 145.411 176.887 200.689 174.98 c 0
 227.185 174.98 250 152.673 250 125 c 0
 250 91.4902 250.566 61.04 250.566 28.917 c 2
 250.566 26.4941 l 1
 250.273 24.0898 l 2
 243.94 -28.0098 216.001 -130.138 207.668 -153.459 c 2
 198.651 -178.691 l 1
 171.888 -179.955 l 2
 139.275 -181.496 109.961 -181.877 79.7217 -181.877 c 2
 39.7217 -181.877 l 1
 39.7217 -141.877 l 2
 39.7217 -135.565 41.1016 -91.2129 42.2402 -57.3447 c 1
 18.5293 -52.7402 0 -34.873 0 -8.42578 c 0
EndSplineSet
Validated: 33
Layer: 4
SplineSet
29.13 386.28 m 0
 29.13 408.55 29.4 430.88 30 455 c 1
 55.94 456.23 80.05 456.73 104.03 456.73 c 0
 131.98 456.73 159.74 456.04 190 455 c 0
 195.52 455 199.89 450.52 200 445 c 0
 200.53 418 200.86 393.2 200.86 368.28 c 0
 200.86 346.16 200.6 323.95 200 300 c 1
 181.9 299.08 163.87 298.68 145.68 298.68 c 0
 111.46 298.68 76.7 300.08 40 302 c 0
 34.49 302.29 30 306.48 30 312 c 0
 29.44 338.13 29.13 362.16 29.13 386.28 c 0
29.13 86.28 m 0
 29.13 108.55 29.4 130.88 30 155 c 1
 55.94 156.23 80.05 156.73 104.03 156.73 c 0
 131.98 156.73 159.74 156.04 190 155 c 0
 195.52 155 200 150.52 200 145 c 0
 200 111.03 200.57 80.55 200.57 48.92 c 1
 195.1 3.92 166.43 -102.02 160 -120 c 1
 128.21 -121.5 99.63 -121.88 69.72 -121.88 c 1
 69.72 -114.8 72.68 -20.83 73.68 1.15 c 1
 63.14 1.15 54.03 1.27 40 2 c 0
 34.49 2.29 30 6.48 30 12 c 0
 29.44 38.13 29.13 62.16 29.13 86.28 c 0
EndSplineSet
Validated: 1
EndChar

StartChar: percent
Encoding: 37 37 54
Width: 756
VWidth: 0
Flags: MW
LayerCount: 5
Fore
SplineSet
67.31 33.88 m 0,0,1
 67.31 36.3724 67.31 36.3724 88.62 63.67 c 0,2,3
 151.6 144.364 151.6 144.364 298.675 329.675 c 128,-1,4
 445.751 514.985 445.751 514.985 497.6 581.39 c 1,5,6
 511.569 581.67 511.569 581.67 567.71 581.67 c 0,7,8
 642.128 581.67 642.128 581.67 689.4 574.14 c 0,9,10
 695.59 573.147 695.59 573.147 695.59 567.34 c 0,11,12
 695.59 564.657 695.59 564.657 661.22 517.92 c 0,13,14
 568.707 392.149 568.707 392.149 455.847 249.323 c 128,-1,15
 342.987 106.498 342.987 106.498 265.3 19.84 c 1,16,17
 250.831 19.55 250.831 19.55 195.19 19.55 c 0,18,19
 120.834 19.55 120.834 19.55 73.5 27.09 c 0,20,21
 67.31 28.083 67.31 28.083 67.31 33.88 c 0,0,1
16.5 457.14 m 0,22,23
 16.5 528.388 16.5 528.388 49.5267 561.268 c 128,-1,24
 82.5534 594.148 82.5534 594.148 143.78 597.18 c 1,25,26
 231.711 597.18 231.711 597.18 265.605 567.917 c 128,-1,27
 299.5 538.653 299.5 538.653 299.5 457.14 c 0,28,29
 299.5 385.82 299.5 385.82 267.444 353.324 c 128,-1,30
 235.389 320.828 235.389 320.828 174.39 317.81 c 1,31,32
 86.0198 317.81 86.0198 317.81 51.2599 346.847 c 128,-1,33
 16.5 375.884 16.5 375.884 16.5 457.14 c 0,22,23
137.99 457.14 m 0,34,35
 137.99 436.858 137.99 436.858 142.345 430.854 c 128,-1,36
 146.7 424.85 146.7 424.85 158 424.85 c 0,37,38
 168.796 424.85 168.796 424.85 173.403 430.828 c 128,-1,39
 178.01 436.806 178.01 436.806 178.01 457.14 c 128,-1,40
 178.01 477.478 178.01 477.478 172.903 483.454 c 128,-1,41
 167.796 489.43 167.796 489.43 155.83 489.43 c 0,42,43
 146.759 489.43 146.759 489.43 142.374 483.164 c 128,-1,44
 137.99 476.899 137.99 476.899 137.99 457.14 c 0,34,35
476.5 143.14 m 0,45,46
 476.5 214.388 476.5 214.388 509.527 247.268 c 128,-1,47
 542.553 280.148 542.553 280.148 603.78 283.18 c 1,48,49
 691.711 283.18 691.711 283.18 725.605 253.917 c 128,-1,50
 759.5 224.653 759.5 224.653 759.5 143.14 c 0,51,52
 759.5 71.8203 759.5 71.8203 727.444 39.3241 c 128,-1,53
 695.389 6.82785 695.389 6.82785 634.39 3.81 c 1,54,55
 546.02 3.81 546.02 3.81 511.26 32.8469 c 128,-1,56
 476.5 61.8839 476.5 61.8839 476.5 143.14 c 0,45,46
597.99 143.14 m 0,57,58
 597.99 122.858 597.99 122.858 602.345 116.854 c 128,-1,59
 606.7 110.85 606.7 110.85 618 110.85 c 0,60,61
 628.796 110.85 628.796 110.85 633.403 116.828 c 128,-1,62
 638.01 122.806 638.01 122.806 638.01 143.14 c 128,-1,63
 638.01 163.473 638.01 163.473 632.902 169.451 c 128,-1,64
 627.794 175.43 627.794 175.43 615.83 175.43 c 0,65,66
 606.759 175.43 606.759 175.43 602.374 169.164 c 128,-1,67
 597.99 162.899 597.99 162.899 597.99 143.14 c 0,57,58
EndSplineSet
Layer: 2
SplineSet
98.8339 44.2403 m 1
 219.211 198.667 397.896 421.426 507.431 561.489 c 1
 526.433 561.617 560.146 561.672 567.707 561.672 c 0
 597.52 561.672 638.355 559.395 664.963 556.9 c 1
 554.809 405.49 372.541 170.58 256.259 39.7405 c 1
 237.925 39.6116 202.771 39.5527 195.19 39.5527 c 0
 165.713 39.5527 125.401 41.7807 98.8339 44.2403 c 1
36.5049 457.139 m 0
 36.5049 546.93 76.373 573.576 144.272 577.178 c 1
 253.611 576.991 279.495 557.305 279.495 457.139 c 0
 279.495 367.174 241.681 341.406 173.889 337.812 c 1
 64.3135 337.992 36.5049 357.235 36.5049 457.139 c 0
117.99 457.139 m 0
 117.99 425.116 132.599 404.847 158 404.847 c 0
 181.553 404.847 198.01 423.51 198.01 457.139 c 0
 198.01 492.167 179.412 509.432 155.833 509.432 c 0
 132.55 509.432 117.99 489.08 117.99 457.139 c 0
496.505 143.139 m 0
 496.505 232.928 536.371 259.578 604.272 263.178 c 1
 713.609 262.991 739.495 243.305 739.495 143.139 c 0
 739.495 53.1749 701.681 27.4045 633.889 23.8114 c 1
 524.314 23.9912 496.505 43.2348 496.505 143.139 c 0
577.99 143.139 m 0
 577.99 111.116 592.599 90.847 618 90.847 c 0
 641.553 90.847 658.01 109.51 658.01 143.139 c 0
 658.01 178.167 639.412 195.432 615.833 195.432 c 0
 592.551 195.432 577.99 175.08 577.99 143.139 c 0
EndSplineSet
Layer: 3
SplineSet
-13.4951 437.139 m 0
 -13.4951 556.595 48.0879 617.129 151.798 617.129 c 0
 278.14 617.129 349.495 567.951 349.495 437.139 c 0
 349.495 433.079 349.414 429.092 349.254 425.179 c 1
 401.804 491.466 445.843 547.293 487.771 600.989 c 1
 507.546 601.395 556.547 601.672 577.707 601.672 c 0
 621.308 601.672 678.675 597.944 705.693 593.638 c 0
 737.408 588.582 759.072 548.597 735.981 518.858 c 1
 691.623 457.334 632.476 378.381 569.661 297.141 c 1
 583.467 300.527 598.342 303.178 613.778 303.178 c 0
 741.185 303.178 809.495 254.592 809.495 123.139 c 0
 809.495 3.41113 739.523 -51.2041 645.479 -56.1885 c 1
 518.541 -56.1885 446.505 -10.1973 446.505 123.139 c 0
 446.505 129.575 446.713 135.826 447.121 141.895 c 1
 390.043 71.2178 340.653 12.8135 293.486 -39.8008 c 1
 274.299 -40.1914 225.642 -40.4473 205.19 -40.4473 c 0
 161.589 -40.4473 104.225 -36.7207 77.2021 -32.4121 c 0
 45.1494 -27.3018 23.7266 12.5 47.3516 42.9277 c 0
 96.459 106.163 157.225 183.077 219.715 261.902 c 1
 208.526 259.672 196.706 257.812 184.39 257.812 c 0
 58.1221 257.812 -13.4951 304.389 -13.4951 437.139 c 0
EndSplineSet
Layer: 4
SplineSet
67.31 33.88 m 0
 67.31 37.83 77.16 48.99 88.62 63.67 c 0
 210.38 219.68 389.58 443.05 497.6 581.39 c 1
 507.08 581.58 558.47 581.67 567.71 581.67 c 0
 608.65 581.67 666.8 577.74 689.4 574.14 c 0
 693.14 573.54 695.59 570.61 695.59 567.34 c 0
 695.59 562.33 681.73 545.81 661.22 517.92 c 0
 548.37 364.5 375.46 142.72 265.3 19.84 c 1
 255.82 19.65 204.43 19.55 195.19 19.55 c 0
 154.25 19.55 96.1 23.49 73.5 27.09 c 0
 69.76 27.69 67.31 30.61 67.31 33.88 c 0
16.5 457.14 m 0
 16.5 556.58 66.84 593.37 143.78 597.18 c 1
 258.86 597.18 299.5 567.69 299.5 457.14 c 0
 299.5 357.88 251.4 321.62 174.39 317.81 c 1
 59.53 317.81 16.5 346.32 16.5 457.14 c 0
137.99 457.14 m 0
 137.99 428.53 144.07 424.85 158 424.85 c 0
 170.77 424.85 178.01 427.92 178.01 457.14 c 0
 178.01 486.37 169.98 489.43 155.83 489.43 c 0
 145.32 489.43 137.99 485.75 137.99 457.14 c 0
476.5 143.14 m 0
 476.5 242.58 526.84 279.37 603.78 283.18 c 1
 718.86 283.18 759.5 253.69 759.5 143.14 c 0
 759.5 43.88 711.4 7.62 634.39 3.81 c 1
 519.53 3.81 476.5 32.32 476.5 143.14 c 0
597.99 143.14 m 0
 597.99 114.53 604.07 110.85 618 110.85 c 0
 630.77 110.85 638.01 113.92 638.01 143.14 c 0
 638.01 172.36 629.98 175.43 615.83 175.43 c 0
 605.32 175.43 597.99 171.75 597.99 143.14 c 0
EndSplineSet
Validated: 1
EndChar

StartChar: quotedbl
Encoding: 34 34 55
Width: 420
VWidth: 0
Flags: MW
LayerCount: 5
Fore
SplineSet
29.63 496.92 m 1,0,1
 29.63 512.443 29.63 512.443 29.91 546.083 c 128,-1,2
 30.19 579.723 30.19 579.723 30.19 597 c 0,3,4
 30.19 607 30.19 607 39.19 607 c 0,5,6
 56.7017 607.61 56.7017 607.61 109.54 607.61 c 128,-1,7
 162.503 607.61 162.503 607.61 180 607 c 0,8,9
 190 607 190 607 190 597 c 0,10,11
 190 579.723 190 579.723 190.285 548.083 c 128,-1,12
 190.57 516.443 190.57 516.443 190.57 500.92 c 1,13,14
 186.979 471.381 186.979 471.381 171.098 411.78 c 128,-1,15
 155.217 352.179 155.217 352.179 148 332 c 1,16,17
 129.776 331.14 129.776 331.14 106.3 331.14 c 0,18,19
 85.1412 331.14 85.1412 331.14 50.19 332 c 1,20,21
 40.3485 386.617 40.3485 386.617 29.63 496.92 c 1,0,1
241.63 496.92 m 1,22,23
 241.63 512.443 241.63 512.443 241.91 546.083 c 128,-1,24
 242.19 579.723 242.19 579.723 242.19 597 c 0,25,26
 242.19 607 242.19 607 251.19 607 c 0,27,28
 268.702 607.61 268.702 607.61 321.54 607.61 c 128,-1,29
 374.503 607.61 374.503 607.61 392 607 c 0,30,31
 402 607 402 607 402 597 c 0,32,33
 402 579.723 402 579.723 402.285 548.083 c 128,-1,34
 402.57 516.443 402.57 516.443 402.57 500.92 c 1,35,36
 398.981 471.391 398.981 471.391 383.104 411.815 c 128,-1,37
 367.227 352.24 367.227 352.24 360 332 c 1,38,39
 341.777 331.14 341.777 331.14 318.3 331.14 c 0,40,41
 297.141 331.14 297.141 331.14 262.19 332 c 1,42,43
 252.349 386.617 252.349 386.617 241.63 496.92 c 1,22,23
EndSplineSet
Layer: 2
SplineSet
49.626 505.888 m 1
 49.6465 535.748 50.1025 565.364 50.1924 595.233 c 1
 81.2852 595.729 143.095 595.696 170.015 595.233 c 1
 170.114 563.874 170.545 537.872 170.566 510.161 c 1
 165.838 473.87 143.453 392.763 133.266 359.473 c 1
 110.153 358.874 87.3965 359.186 67.4238 359.605 c 1
 62.25 396.201 53.3213 468.435 49.626 505.888 c 1
261.626 505.888 m 1
 261.646 535.748 262.103 565.364 262.192 595.233 c 1
 293.285 595.729 355.095 595.696 382.015 595.233 c 1
 382.114 563.874 382.545 537.872 382.566 510.161 c 1
 377.838 473.87 355.453 392.763 345.266 359.473 c 1
 322.153 358.874 299.396 359.186 279.424 359.605 c 1
 274.25 396.201 265.321 468.435 261.626 505.888 c 1
EndSplineSet
Validated: 33
Layer: 3
SplineSet
-0.374023 482.979 m 1
 -0.374023 484.917 l 2
 -0.374023 517.015 0.192383 551.467 0.192383 585 c 0
 0.192383 607.262 17.5361 635 48.5029 635 c 0
 72.3418 635.821 166.913 635.819 190.689 635 c 0
 204.259 635 216.862 629.145 225.931 619.713 c 1
 234.097 628.709 245.755 635 260.503 635 c 0
 284.342 635.821 378.913 635.819 402.689 635 c 0
 429.185 635 452 612.673 452 585 c 0
 452 551.49 452.566 521.04 452.566 488.917 c 2
 452.566 486.495 l 1
 446.083 433.155 415.921 329.64 407.668 306.541 c 2
 398.651 281.309 l 1
 375.674 280.224 352.299 279.131 328.188 279.131 c 0
 295.484 279.131 263.026 280.066 238.616 280.818 c 1
 232.828 312.897 l 2
 230.644 325.005 226.032 359.23 221.523 395.672 c 1
 211.33 356.13 200.198 319.221 195.668 306.541 c 2
 186.651 281.309 l 1
 163.674 280.224 140.299 279.131 116.188 279.131 c 0
 83.4844 279.131 51.0264 280.066 26.6162 280.818 c 1
 20.8281 312.897 l 2
 16.79 335.276 4.46191 433.212 -0.186523 481.049 c 2
 -0.374023 482.979 l 1
EndSplineSet
Layer: 4
SplineSet
29.63 496.92 m 1
 29.63 528.55 30.19 563.03 30.19 597 c 0
 30.19 602.52 33.67 607 39.19 607 c 0
 50.96 607.41 80.25 607.61 109.54 607.61 c 0
 138.89 607.61 168.24 607.41 180 607 c 0
 185.52 607 190 602.52 190 597 c 0
 190 563.03 190.57 532.55 190.57 500.92 c 1
 185.1 455.92 154.43 349.98 148 332 c 1
 134.65 331.37 120.46 331.14 106.3 331.14 c 0
 86.74 331.14 67.26 331.58 50.19 332 c 1
 46.77 350.98 34.1 450.92 29.63 496.92 c 1
241.63 496.92 m 1
 241.63 528.55 242.19 563.03 242.19 597 c 0
 242.19 602.52 245.67 607 251.19 607 c 0
 262.96 607.41 292.25 607.61 321.54 607.61 c 0
 350.89 607.61 380.24 607.41 392 607 c 0
 397.52 607 402 602.52 402 597 c 0
 402 563.03 402.57 532.55 402.57 500.92 c 1
 397.1 455.92 366.42 349.98 360 332 c 1
 346.65 331.37 332.46 331.14 318.3 331.14 c 0
 298.74 331.14 279.26 331.58 262.19 332 c 1
 258.77 350.98 246.1 450.92 241.63 496.92 c 1
EndSplineSet
Validated: 1
EndChar

